<svg width="687" height="694" viewBox="0 0 687 694" fill="none" xmlns="http://www.w3.org/2000/svg">
<g clip-path="url(#clip0_378_430)">
<path d="M587.784 568.334V655.081H674.578V568.334H587.784ZM594.337 648.531V574.885H668.012V648.531H594.337Z" fill="#EBEBEB"/>
<path d="M627.618 416.697H373.674V670.542H627.618V416.697Z" fill="#455A64"/>
<path d="M422.611 670.542H563.891C564.483 665.146 542.842 550.386 517.424 513.489C514.541 509.302 489.836 506.256 480.764 516.669C432.721 571.82 421.451 669.217 422.611 670.539V670.542Z" fill="#263238"/>
<path d="M520.772 523.017C524.781 533.4 539.91 569.808 548.134 595.938C553.653 613.473 555.753 628.19 556.962 632.058C556.962 632.058 515.245 618.664 505.852 618.642C491.385 618.607 468.182 648.806 473.874 652.59C482.822 658.54 525.474 678.775 559.537 685.13C578.054 688.583 612.938 665.06 610.182 646.357C606.314 620.108 558.863 550.92 540.809 531.301C531.435 521.113 515.888 510.36 520.772 523.017Z" fill="#EB9481"/>
<path d="M612.722 651.9C611.848 670.808 588.187 686.723 574.466 687.564C550.8 688.999 479.804 668.332 479.804 668.332L507.4 615.186C507.4 615.186 555.709 631.576 556.937 632.039V632.017C556.51 630.608 544.604 585.889 539.285 571.072C539.001 570.253 538.673 569.417 538.363 568.537C536.833 564.433 534.731 559.013 532.411 553.158L532.386 553.116C531.101 549.875 529.74 546.489 528.407 543.142V543.12C522.571 528.632 516.885 514.842 516.885 514.842C525.017 516.176 533.047 520.449 546.233 534.283C559.394 548.097 614.166 620.706 612.724 651.9H612.722Z" fill="#263238"/>
<path d="M498.203 656.831C500.173 653.068 502.172 649.323 504.151 645.567C506.088 641.886 508.053 638.222 510.03 634.563C512.075 630.778 514.224 627.002 515.875 623.024C515.905 622.949 515.802 622.885 515.751 622.951C513.266 626.225 511.223 629.834 509.183 633.392C507.067 637.078 505.009 640.796 502.966 644.524C500.965 648.174 499.039 651.864 497.139 655.568C495.187 659.377 493.215 663.329 491.804 667.377C491.749 667.54 491.971 667.699 492.079 667.538C494.359 664.149 496.31 660.446 498.203 656.831Z" fill="#37474F"/>
<path d="M571.712 639.877L556.959 632.058L556.937 632.039V632.017C556.51 630.608 544.604 585.889 539.285 571.072C539.001 570.253 538.673 569.417 538.363 568.537C536.833 564.433 534.731 559.014 532.411 553.158L571.715 639.879L571.712 639.877Z" fill="#37474F"/>
<path d="M583.923 646.368C579.826 643.309 575.41 640.57 570.962 638.057C568.738 636.798 566.471 635.641 564.138 634.598C561.657 633.491 559.035 632.688 556.572 631.574C556.382 631.488 556.246 631.779 556.433 631.865C558.736 632.906 560.924 634.356 563.145 635.568C565.456 636.829 567.776 638.066 570.118 639.269C574.717 641.632 579.232 644.141 583.802 646.555C583.914 646.614 584.026 646.445 583.923 646.368Z" fill="#37474F"/>
<path d="M573.183 634.917C569.48 634.968 547.126 628.998 543.873 632.065C524.033 650.762 517.759 646.995 513.537 649.431C480.843 668.233 437.185 690.321 421.603 690.46C397.97 690.651 388.557 670.826 392.491 652.093C400.257 615.063 450.217 542.863 472.82 523.679C484.806 513.522 483.859 528.844 478.9 545.494C475.992 555.26 470.907 569.778 465.718 584.026C461.122 596.718 448.949 629.152 448.738 629.913V629.935C448.72 629.979 448.7 630.001 448.702 630.023C448.687 630.109 448.773 630.127 448.962 630.072C450.001 629.88 477.958 616.711 506.072 609.476C515.98 606.925 536.613 603.295 544.009 606.595C548.407 608.558 548.482 611.181 548.482 611.181C548.482 611.181 552.009 610.86 555.729 613.923C558.196 615.954 558.962 618.825 558.962 618.825C558.962 618.825 562.821 619.364 564.829 621.6C567.222 624.265 567.433 627.088 567.433 627.088C572.637 628.476 573.183 634.917 573.183 634.917Z" fill="#EB9481"/>
<path d="M540.161 610.396C537.181 610.437 534.271 610.871 531.343 611.386C531.145 611.421 531.152 611.729 531.363 611.707C534.24 611.39 537.15 611.326 540.042 611.229C542.915 611.133 545.834 611.073 548.707 611.13C548.724 611.13 548.727 611.102 548.709 611.1C545.841 610.627 543.076 610.358 540.164 610.4L540.161 610.396Z" fill="#263238"/>
<path d="M558.87 618.647C553.752 617.241 549.671 616.464 543.245 617.27C543.038 617.296 543.054 617.602 543.259 617.591C549.367 617.213 553.349 617.831 558.859 618.759C558.923 618.77 558.927 618.665 558.868 618.649L558.87 618.647Z" fill="#263238"/>
<path d="M567.371 626.914C562.238 624.802 558.289 624.146 552.594 624.144C552.394 624.144 552.326 624.439 552.535 624.459C557.998 624.978 561.996 625.766 567.297 627.141C567.429 627.174 567.497 626.965 567.371 626.914Z" fill="#263238"/>
<path d="M504.703 609.799C502.249 610.118 499.796 610.84 497.395 611.432C494.835 612.064 492.284 612.757 489.778 613.584C484.76 615.237 479.888 617.226 475.081 619.413C474.896 619.499 474.995 619.783 475.191 619.714C480.086 618 485.028 616.394 489.977 614.838C492.409 614.073 494.828 613.261 497.252 612.468C499.739 611.654 502.328 611.038 504.774 610.112C504.939 610.05 504.888 609.777 504.705 609.802L504.703 609.799Z" fill="#263238"/>
<path d="M485.149 615.1C490.322 613.348 492.662 613.339 492.662 613.339L522.076 662.992C522.076 662.992 441.06 692.145 424.425 693.853C407.789 695.558 388.865 682.463 388.546 661.586C388.097 632.245 435.961 561.786 460.037 534.538C471.072 522.051 483.938 512.983 487.218 515.027C491.095 517.445 484.057 533.145 480.346 544.858C473.498 566.482 448.96 630.071 448.96 630.071C448.96 630.071 478.988 617.186 485.149 615.1Z" fill="#263238"/>
<path d="M492.398 613.298C487.835 613.564 468.102 620.434 458.423 624.586C448.78 628.723 439.503 633.634 430.799 639.505C425.875 642.827 421.202 646.443 416.586 650.179C416.427 650.307 416.601 650.564 416.771 650.441C425.279 644.359 434.368 638.93 443.567 633.964C452.72 629.022 462.038 624.331 471.739 620.55C477.262 618.398 486.76 615.175 492.158 613.76C493.683 613.359 492.539 613.291 492.398 613.298Z" fill="#37474F"/>
<path d="M472.972 569.879C471.737 571.87 470.489 573.849 469.434 575.943C469.386 576.042 469.337 576.141 469.289 576.238C470.856 571.474 472.344 566.697 473.769 561.887C473.857 561.592 473.368 561.434 473.253 561.72C466.293 579.345 459.832 597.184 453.563 615.067C451.811 620.068 450.27 625.123 448.678 630.17C448.623 630.344 448.91 630.432 448.982 630.269C450.895 625.937 452.821 621.635 454.573 617.23C456.323 612.827 457.95 608.371 459.595 603.926C462.472 596.154 465.21 588.347 467.852 580.498C468.679 579.123 469.513 577.752 470.295 576.353C471.433 574.313 472.369 572.176 473.32 570.044C473.423 569.813 473.099 569.672 472.972 569.877V569.879Z" fill="#37474F"/>
<path d="M502.365 652.175C500.21 648.515 498.086 644.841 495.937 641.177C493.835 637.588 491.759 633.984 489.697 630.373C487.562 626.637 485.49 622.819 482.983 619.318C482.937 619.252 482.827 619.307 482.855 619.384C484.324 623.222 486.309 626.863 488.255 630.476C490.269 634.219 492.341 637.931 494.427 641.632C496.472 645.259 498.588 648.843 500.732 652.412C502.935 656.083 505.251 659.843 507.945 663.179C508.053 663.313 508.306 663.208 508.227 663.032C506.554 659.306 504.437 655.693 502.365 652.177V652.175Z" fill="#37474F"/>
<path d="M523.249 663.093C520.81 658.283 517.013 653.561 514.202 648.984C514.094 648.81 513.836 648.993 513.94 649.166C516.491 653.457 518.831 658.085 521.27 662.448C510.142 667.04 498.328 671.133 486.98 675.153C475.333 679.279 463.614 683.191 451.734 686.613C445.092 688.525 438.44 690.6 431.757 692.354C431.343 692.462 431.453 692.805 431.878 692.724C443.899 690.462 455.7 686.989 467.341 683.299C479.21 679.534 490.925 675.329 502.583 670.973C509.145 668.521 523.449 663.48 523.251 663.093H523.249Z" fill="#37474F"/>
<path d="M503.955 609.832C488.656 613.749 471.05 620.194 463.163 623.281C462.954 623.353 462.766 623.424 462.577 623.496C455.63 626.225 451.324 628.249 450.292 628.421C450.206 628.381 450.14 628.322 450.074 628.282V628.26C449.352 627.739 448.634 627.345 447.923 627.079C445.964 626.377 427.139 624.027 427.616 618.198C428.074 612.433 435.746 612.791 436.873 612.871C435.653 612.604 425.437 610.212 428.765 605.112C431.116 601.494 441.233 602.025 442.253 602.066C441.22 601.728 431.836 598.667 435.063 593.463C437.375 589.738 448.672 590.222 449.975 590.444C448.918 590.043 440.553 588.642 444.458 584.153C447.168 581.028 468.439 584.206 477.894 588.921C491.951 595.934 503.955 609.832 503.955 609.832Z" fill="#EB9481"/>
<path d="M463.163 623.281C462.954 623.353 462.766 623.424 462.577 623.496C459.31 620.961 446.959 614.422 437.254 613.179C436.653 613.102 436.613 612.758 437.249 612.787C449.235 613.328 460.008 620.381 463.163 623.281Z" fill="#263238"/>
<path d="M442.715 602.448C456.112 605.106 462.166 608.063 473.685 615.377C473.848 615.481 474.028 615.241 473.872 615.124C463.136 607.09 456.451 603.112 442.83 602.106C442.213 602.06 442.103 602.324 442.715 602.445V602.448Z" fill="#263238"/>
<path d="M450.384 590.717C463.238 594.132 470.011 597.091 480.364 605.464C480.608 605.662 480.91 605.363 480.683 605.143C470.927 595.685 462.498 591.936 450.508 590.363C449.689 590.255 449.576 590.501 450.384 590.717Z" fill="#263238"/>
<path d="M514.739 539.194C507.127 541.932 492.343 531.504 485.942 522.423C485.506 521.798 485.73 514.684 485.594 506.03C485.49 500.777 485.25 494.931 484.647 489.612L518.941 493.932C518.941 493.932 516.927 505.453 518.036 514.721C518.138 515.496 518.296 516.207 518.514 516.878C518.536 516.977 518.58 517.095 518.602 517.234C519.749 521.305 522.098 536.549 514.741 539.199L514.739 539.194Z" fill="#EB9481"/>
<path d="M518.611 517.228C518.677 517.448 518.743 517.69 518.787 517.976C498.258 517.106 490.45 508.083 485.393 499.426C485.239 496.126 485.019 492.781 484.645 489.612L518.941 493.925C518.941 493.925 516.916 505.455 518.038 514.719C518.127 515.489 518.303 516.193 518.523 516.875C518.545 516.963 518.567 517.096 518.611 517.228Z" fill="#263238"/>
<path d="M470.59 453.655C468.73 465.962 479.965 499.07 489.464 505.422C503.233 514.631 523.277 512.754 530.473 496.779C537.449 481.295 522.043 438.409 511.666 432.894C496.382 424.77 473.337 435.48 470.59 453.657V453.655Z" fill="#EB9481"/>
<path d="M502.297 468.547C502.251 468.468 502.159 468.712 502.192 468.803C503.008 471.012 503.572 473.681 501.797 475.098C501.742 475.142 501.786 475.252 501.857 475.217C504.208 474.046 503.424 470.51 502.297 468.547Z" fill="#263238"/>
<path d="M499.523 466.88C495.839 467.806 497.963 475.105 501.377 474.247C504.736 473.402 502.612 466.103 499.523 466.88Z" fill="#263238"/>
<path d="M516.057 464.404C516.049 464.312 516.264 464.459 516.289 464.552C516.876 466.834 517.931 469.349 520.196 469.505C520.266 469.509 520.293 469.626 520.213 469.637C517.614 470.013 516.247 466.66 516.057 464.404Z" fill="#263238"/>
<path d="M517.391 461.456C520.949 460.122 523.357 467.333 520.061 468.568C516.819 469.784 514.411 462.574 517.391 461.456Z" fill="#263238"/>
<path d="M495.669 464.38C496.591 463.841 497.351 463.189 498.207 462.562C499.174 461.854 500.014 461.389 500.441 460.214C500.67 459.585 500.241 458.698 499.649 458.419C498.271 457.768 496.873 458.342 495.674 459.147C494.375 460.021 493.595 461.026 493.142 462.523C492.7 463.973 494.452 465.091 495.669 464.38Z" fill="#263238"/>
<path d="M519.144 456.96C518.083 457.09 517.083 457.033 516.022 457.053C514.825 457.075 513.871 457.215 512.821 456.54C512.258 456.177 512.062 455.213 512.364 454.632C513.064 453.279 514.525 452.889 515.965 452.804C517.528 452.711 518.758 453.039 520.026 453.954C521.255 454.839 520.541 456.793 519.144 456.965V456.96Z" fill="#263238"/>
<path d="M507.532 489.506C508.227 489.878 508.98 490.45 509.821 490.279C510.627 490.116 511.448 489.493 512.086 489.003C512.15 488.954 512.245 489.009 512.218 489.091C511.884 490.129 510.807 491.031 509.704 491.152C508.628 491.271 507.864 490.534 507.342 489.669C507.27 489.548 507.428 489.449 507.53 489.504L507.532 489.506Z" fill="#263238"/>
<path d="M507.939 482.047C509.777 483.642 511.95 484.173 514.076 483.977C515.027 483.895 515.983 483.651 516.883 483.297C517.063 483.24 517.24 483.167 517.394 483.083C517.552 483.015 517.695 482.954 517.867 482.863C518.12 482.749 518.202 482.487 518.173 482.225L518.169 482.21C518.142 482.128 518.122 482.062 518.08 481.985L518.076 481.968L518.014 481.77C517.557 480.016 516.614 477.417 516.614 477.417C517.343 477.552 521.013 478.067 520.696 477.171C518.054 469.773 515.118 461.546 510.926 454.742C510.801 454.511 510.438 454.678 510.53 454.92C512.786 462.131 516.297 468.897 518.679 476.104C517.53 476.011 515.628 475.776 514.723 476.058C514.497 476.201 516.63 481.046 516.771 481.851C516.771 481.851 516.782 481.884 516.78 481.939C513.962 483.165 511.501 482.923 508.087 481.783C507.88 481.704 507.745 481.908 507.935 482.047H507.939Z" fill="#263238"/>
<path opacity="0.2" d="M474.204 476.978C476.148 475.391 478.6 467.248 479.741 463.881C480.925 460.387 477.412 446.22 476.265 442.009C473.366 445.279 471.325 449.277 470.605 453.781C469.782 458.91 471.376 467.996 474.204 476.978Z" fill="#263238"/>
<path d="M506.625 446.081C504.98 449.631 501.645 452.168 497.734 452.636C493.923 453.092 489.587 451.616 487.267 448.465C487.198 448.37 487.051 448.478 487.121 448.572C489.602 451.943 493.554 454.17 497.833 453.552C501.848 452.973 505.489 450.003 506.882 446.196C506.944 446.026 506.704 445.914 506.627 446.081H506.625Z" fill="#263238"/>
<path d="M487.61 422.431C481.334 424.385 476.542 429.545 475.468 434.509C474.816 437.526 475.369 440.239 476.568 442.816C476.617 442.919 476.837 442.834 476.795 442.726C475.204 438.556 475.915 433.079 479.639 428.78C483.216 424.649 488.803 422.081 494.414 422.544C497.342 422.786 499.964 423.846 501.65 425.571C501.839 425.765 502.268 425.479 502.101 425.276C499.255 421.826 493.292 420.664 487.612 422.431H487.61Z" fill="#263238"/>
<path d="M528.228 425.576C526.337 422.753 523.399 420.713 520.141 419.796C515.577 418.511 511.296 420.123 507.076 421.813C506.962 421.86 507.032 422.038 507.147 421.992C510.743 420.566 514.475 419.327 518.38 420.09C521.563 420.711 524.565 422.412 526.628 424.931C530.907 430.16 530.612 438.255 525.864 443.087C523.176 445.824 519.317 447.371 515.485 447.248C515.335 447.244 515.291 447.475 515.445 447.483C522.505 447.899 529.212 442.81 530.335 435.753C530.89 432.27 530.201 428.52 528.226 425.574L528.228 425.576Z" fill="#263238"/>
<path d="M470.513 460.701C470.513 460.701 461.309 451.094 464.477 443.129C466.271 438.616 475.849 436.437 475.849 436.437C475.849 436.437 477.357 430.153 484.669 426.157C492.061 422.119 502.757 424.077 502.757 424.077C502.757 424.077 509.046 417.665 517.211 419.696C528.591 422.528 531.583 437.795 523.073 445.377C517.099 450.7 505.962 447.228 505.962 447.228C505.093 447.606 497.408 455.801 488.075 449.516C488.075 449.516 483.811 456.179 477.702 454.078C477.702 454.078 476.564 459.938 470.511 460.703L470.513 460.701Z" fill="#263238"/>
<path d="M481.951 480.311C481.951 480.311 472.437 470.632 467.918 474.201C463.398 477.772 471.838 492.702 478.048 493.894C484.258 495.089 485.475 489.364 485.475 489.364L481.949 480.309L481.951 480.311Z" fill="#EB9481"/>
<path d="M470.443 478.421C470.348 478.428 470.35 478.562 470.438 478.582C474.814 479.554 477.61 482.989 479.783 486.675C478.308 485.363 476.509 484.811 474.722 486.602C474.629 486.697 474.759 486.846 474.869 486.802C476.487 486.162 477.749 486.248 479.107 487.403C480.071 488.219 480.822 489.331 481.581 490.334C481.834 490.668 482.464 490.36 482.252 489.962C482.237 489.934 482.219 489.903 482.204 489.874C481.431 484.633 476.142 478.005 470.443 478.421Z" fill="#263238"/>
<path d="M518.499 516.506L511.203 536.677L485.675 512.598L479.016 520.889C479.016 520.889 504.569 559.716 504.65 557.916L512.152 540.565L524.369 551.972L522.283 522.245L518.496 516.506H518.499Z" fill="#2F61D6"/>
<path d="M524.173 537.221C523.665 532.325 523.288 527.379 522.553 522.511C522.527 522.337 522.252 522.271 522.216 522.478C521.413 527.255 523.46 545.97 523.61 550.472C523.592 550.457 523.572 550.439 523.557 550.424C523.046 549.928 512.256 540.407 512.157 540.568C510.492 543.34 504.983 555.977 504.617 557.122C500.576 550.954 485.131 528.56 480.405 522.762C480.271 522.595 480.009 522.747 480.117 522.943C483.729 529.48 504.186 559.65 504.479 559.553C504.685 559.7 511.538 544.135 512.315 541.213C514.16 543.307 525.098 554.1 525.107 553.37C525.162 548.434 524.682 542.124 524.173 537.221Z" fill="#263238"/>
<path d="M356.132 289.975H96.4358V557.999H356.132V289.975Z" fill="#2F61D6"/>
<path d="M33.1182 370.011V507.845H171.006V370.011H33.1182ZM43.5302 497.437V380.419H160.594V497.437H43.5302Z" fill="#A6A6A6"/>
<path d="M267.74 365.368C274.572 363.751 292.275 368.372 298.313 377.422C304.351 386.473 304.083 401.279 301.067 402.769C298.051 404.258 284.982 403.347 275.95 398.544C266.919 393.74 264.376 366.165 267.74 365.368Z" fill="#263238"/>
<path d="M267.724 365.408C267.495 365.362 267.46 364.981 267.724 364.97C273.72 364.728 280.177 366.651 285.918 368.211C290.551 369.47 295.311 370.975 299.088 374.058C302.865 377.143 304.88 381.262 305.128 386.109C305.399 391.395 304.745 397.798 302.218 402.522C302.146 402.661 301.879 402.626 301.928 402.445C304.536 392.411 306.768 380.173 296.733 373.516C288.212 367.866 277.414 367.357 267.724 365.408Z" fill="#263238"/>
<path d="M300.037 400.183C306.046 400.863 321.796 412.028 324.581 423.385C327.366 434.743 318.378 451.721 315.459 452.987C312.542 454.252 299.125 443.529 294.685 435.577C291.718 430.261 293.902 423.974 295.115 417.738C296.906 408.534 299.101 400.076 300.037 400.181V400.183Z" fill="#263238"/>
<path d="M291.069 434.2C289.109 422.614 295.513 411.018 299.31 400.472C299.35 400.362 299.537 400.408 299.513 400.527C297.474 410.62 291.553 419.749 291.549 430.276C291.546 436.523 293.814 442.618 299.022 446.37C303.534 449.622 309.163 451.053 314.363 452.806C314.706 452.923 314.49 453.429 314.149 453.323C303.781 450.111 293.087 446.157 291.066 434.202L291.069 434.2Z" fill="#263238"/>
<path d="M301.349 401.237C301.047 401.094 301.241 400.615 301.547 400.756C310.134 404.657 320.487 410.389 325.182 418.949C330.267 428.223 325.461 438.088 321.195 446.592C321.142 446.698 320.971 446.63 321.024 446.522C325.228 437.89 329.648 427.187 323.887 418.165C318.935 410.404 309.447 405.057 301.349 401.237Z" fill="#263238"/>
<path d="M314.775 452.694C311.002 455.152 305.884 462.556 305.366 470.684C304.481 484.598 299.049 482.424 284.472 487.575C272.151 491.929 270.901 506.333 278.343 512.631C278.343 512.631 273.551 504.316 281.632 499.184C291.287 493.052 315.637 501.38 325.783 485.834C338.909 465.723 314.775 452.694 314.775 452.694Z" fill="#263238"/>
<path d="M310.044 459.561C310.189 459.357 309.846 459.099 309.687 459.297C308.151 461.225 306.944 463.313 306.178 465.663C305.192 468.689 305.452 471.826 304.682 474.885C302.72 482.666 293.633 483.323 287.111 484.454C278.365 485.973 271.825 492.068 272.221 501.396C272.228 501.532 272.435 501.525 272.433 501.389C272.301 495.584 275.253 489.975 280.43 487.146C285.359 484.45 291.282 485.011 296.495 483.18C300.061 481.928 303.543 480.005 304.877 476.271C305.608 474.229 305.599 471.965 305.881 469.837C306.394 465.956 307.766 462.739 310.042 459.563L310.044 459.561Z" fill="#263238"/>
<path d="M317.257 454.115C317.169 454.058 317.064 454.197 317.147 454.263C322.635 458.681 328.422 463.088 330.588 470.143C332.92 477.734 329.71 485.9 324.095 491.197C317.806 497.129 310.238 495.366 302.467 494.653C296.845 494.136 291.159 494.055 285.94 496.486C285.779 496.561 285.9 496.825 286.065 496.768C294.573 493.863 302.81 495.65 311.51 496.165C318.618 496.585 323.868 493.599 327.817 487.718C336.527 474.74 329.061 461.685 317.26 454.115H317.257Z" fill="#263238"/>
<path d="M272.897 359.009C274.764 356.562 278.528 359.508 276.659 361.96C274.793 364.407 271.028 361.46 272.897 359.009Z" fill="#FFC727"/>
<path d="M271.107 363.08C272.972 360.633 276.738 363.579 274.867 366.03C273.001 368.477 269.236 365.531 271.107 363.08Z" fill="#FFC727"/>
<path d="M268.618 366.814C270.484 364.367 274.246 367.313 272.378 369.764C270.511 372.211 266.747 369.265 268.618 366.814Z" fill="#FFC727"/>
<path d="M265.739 370.097C267.605 367.65 271.369 370.596 269.498 373.048C267.632 375.494 263.868 372.548 265.739 370.097Z" fill="#FFC727"/>
<path d="M262.263 372.898C264.129 370.451 267.891 373.398 266.023 375.849C264.156 378.296 260.392 375.349 262.263 372.898Z" fill="#FFC727"/>
<path d="M258.485 374.953C260.352 372.506 264.116 375.453 262.247 377.904C260.381 380.351 256.616 377.405 258.485 374.953Z" fill="#FFC727"/>
<path d="M254.89 419.302C244.555 432.005 189.301 472.06 142.658 471.314C126.816 471.061 82.7833 403.453 74.6452 377.741C68.803 359.284 108.023 349.959 119.102 352.628C132.926 355.959 159.888 413.949 165.213 414.319C181.046 415.421 208.254 405.88 241.654 402.5C258.802 400.764 262.85 409.517 254.89 419.3V419.302Z" fill="#AD6359"/>
<path d="M76.1641 381.988C73.2232 375.569 59.3771 339.865 58.2545 330.672C57.1318 321.478 55.8177 294.794 62.7737 293.219C69.7298 291.643 70.7379 299.426 70.7379 299.426C70.7379 299.426 71.9684 288.07 79.1138 287.123C86.2592 286.177 87.4302 298.335 87.4302 298.335C87.4302 298.335 89.5457 286.763 96.7395 286.329C103.933 285.893 103.064 298.317 103.064 298.317C103.064 298.317 104.503 287.647 110.581 289.784C117.894 292.352 113.016 311.722 115.017 321.776C115.47 324.06 127.524 367.401 127.524 367.401L76.1641 381.988Z" fill="#AD6359"/>
<path d="M103.117 297.25C99.5639 311.502 100.475 318.352 105.01 332.085C105.098 332.353 104.719 332.544 104.6 332.274C98.9366 319.232 96.5526 310.804 102.434 297.043C102.723 296.37 103.284 296.572 103.117 297.252V297.25Z" fill="#263238"/>
<path d="M87.7319 297.208C85.3347 312.334 86.2593 319.773 89.9486 334.503C90.0014 334.712 89.6536 334.822 89.5832 334.615C84.7536 320.466 82.5677 312.006 86.9483 297.206C87.1464 296.537 87.8398 296.515 87.7297 297.206L87.7319 297.208Z" fill="#263238"/>
<path d="M70.9472 300.172C69.6836 314.983 70.344 323.182 75.7636 337.024C75.8912 337.35 75.4268 337.568 75.2661 337.253C68.3673 323.677 67.4669 313.451 70.4915 300.183C70.6984 299.278 71.0264 299.241 70.945 300.174L70.9472 300.172Z" fill="#263238"/>
<path d="M137.287 374.123C137.287 374.123 139.332 355.831 138.456 347.597C137.582 339.363 123.023 309.88 116.474 312.661C108.019 316.252 113.069 334.927 116.738 343.753C116.738 343.753 97.171 352.042 97.893 366.231C98.6151 380.419 137.287 374.123 137.287 374.123Z" fill="#AD6359"/>
<path d="M114.473 314.411C109.126 323.246 114.689 334.518 117.61 343.344C117.832 344.015 117.37 344.429 116.824 344.499C108.855 348.522 98.7845 356.514 97.4615 365.841C97.4219 366.114 97.03 366.096 97.0322 365.817C97.0917 355.622 106.344 346.962 115.356 343.115C112.221 334.111 107.136 322.561 114.394 314.356C114.436 314.31 114.51 314.356 114.475 314.411H114.473Z" fill="#263238"/>
<path d="M188.821 409.834L208.065 454.364C208.065 454.364 237.168 440.53 254.86 422.627C272.551 404.725 252.892 398.744 235.75 401.347C218.609 403.948 188.821 409.834 188.821 409.834Z" fill="#EBEBEB"/>
<path d="M254.866 422.638C237.168 440.528 208.067 454.368 208.067 454.368L202.212 440.836L260.832 406.861C262.989 410.426 261.8 415.619 254.866 422.638Z" fill="#C7C7C7"/>
<path d="M215.336 448.117C205.837 430.256 200.226 413.331 198.709 409.898C198.639 409.735 198.908 409.638 198.971 409.805C200.286 413.251 209.438 432.157 215.624 448.016C215.695 448.198 215.428 448.289 215.336 448.117Z" fill="#263238"/>
<path d="M210.775 497.749L202.881 557.999L329.021 558.008C329.021 558.008 312.335 445.025 285.396 410.331C271.922 392.979 253.867 393.432 241.106 406.696C238.324 409.59 210.132 449.829 205.172 466.446C200.834 481.11 210.775 497.749 210.775 497.749Z" fill="#EBEBEB"/>
<path d="M247.492 412.723L239.532 434.08C236.897 441.201 234.37 448.359 231.962 455.537C229.717 462.752 227.007 469.958 228.085 477.33C228.887 484.666 231.588 491.885 235.24 498.322L235.411 498.625L235.376 498.933C234.284 508.507 232.994 518.061 231.812 527.627C230.601 537.19 229.305 546.742 227.951 556.287C228.755 546.68 229.615 537.077 230.564 527.486C231.539 517.896 232.409 508.296 233.472 498.718L233.611 499.329C229.708 492.625 226.875 485.337 225.913 477.561C225.453 473.701 225.732 469.637 226.74 465.894C227.707 462.162 228.876 458.525 230.111 454.916C232.547 447.688 235.431 440.644 238.31 433.605C241.187 426.566 244.285 419.617 247.492 412.723Z" fill="#263238"/>
<path d="M229.89 440.547C229.732 441.568 230.353 442.543 231.277 442.721C232.202 442.9 233.082 442.217 233.241 441.196C233.399 440.175 232.779 439.201 231.854 439.022C230.929 438.844 230.049 439.526 229.89 440.547Z" fill="#263238"/>
<path d="M222.248 461.352C222.089 462.373 222.71 463.348 223.634 463.527C224.559 463.705 225.439 463.023 225.598 462.002C225.756 460.981 225.136 460.006 224.211 459.828C223.287 459.649 222.406 460.331 222.248 461.352Z" fill="#263238"/>
<path d="M221.283 482.564C221.125 483.585 221.746 484.56 222.67 484.738C223.595 484.917 224.475 484.235 224.634 483.214C224.792 482.193 224.172 481.218 223.247 481.04C222.322 480.861 221.442 481.543 221.283 482.564Z" fill="#263238"/>
<path d="M227.181 500.126C227.022 501.147 227.643 502.122 228.568 502.3C229.492 502.478 230.373 501.796 230.531 500.775C230.69 499.754 230.069 498.779 229.144 498.601C228.22 498.423 227.339 499.105 227.181 500.126Z" fill="#263238"/>
<path d="M224.887 519.296C224.729 520.317 225.349 521.292 226.274 521.47C227.198 521.648 228.079 520.966 228.237 519.945C228.396 518.924 227.775 517.949 226.851 517.771C225.926 517.593 225.045 518.275 224.887 519.296Z" fill="#263238"/>
<path d="M222.798 538.224C222.639 539.245 223.26 540.219 224.185 540.398C225.109 540.576 225.99 539.894 226.148 538.873C226.307 537.852 225.686 536.877 224.761 536.699C223.835 536.52 222.956 537.203 222.798 538.224Z" fill="#263238"/>
<path d="M248.075 624.005C254.422 628.32 265.122 609.306 268.763 605.231C272.404 601.141 273.964 601.279 273.758 604.4L282.03 571.552C277.746 574.879 268.642 582.039 263.806 586.737C257.321 593.03 241.711 619.688 248.075 624.005Z" fill="#AD6359"/>
<path d="M295.636 415.159C322.586 436.873 356.546 475.079 363.469 499.77C368.811 518.828 342.004 585.034 334.009 600.485C330.526 607.218 284.385 586.717 282.354 578.872C280.322 571.026 312.487 514 312.813 507.949C313.138 501.898 292.099 461.931 277.753 434.906C260.38 402.177 272.723 396.696 295.636 415.157V415.159Z" fill="#AD6359"/>
<path d="M252.601 642.847C256.849 647.475 265.45 641.877 265.45 641.877C265.45 641.877 257.803 651.323 263.786 654.998C269.786 658.672 277.936 650.595 277.936 650.595C277.936 650.595 271.38 659.66 277.605 662.884C283.848 666.125 291.894 659.071 291.894 659.071C291.894 659.071 291.46 662.554 296.889 662.849C304.674 663.3 315.791 650.663 320.039 642.706C324.288 634.732 333.947 602.403 335.334 597.43L284.387 569.747C284.387 569.747 283.485 570.423 282.03 571.549L273.757 604.397C273.619 606.443 267.792 619.045 265.677 622.667C260.891 630.848 247.833 637.661 252.601 642.845V642.847Z" fill="#AD6359"/>
<path d="M265.712 641.412C277.134 632.763 280.634 627.002 285.594 613.804C285.691 613.546 286.096 613.632 286.019 613.912C282.338 627.279 278.99 635.137 266.101 641.989C265.472 642.323 265.168 641.826 265.712 641.415V641.412Z" fill="#263238"/>
<path d="M277.37 650.854C288.447 640.834 292.299 634.622 298.511 621.177C298.599 620.988 298.929 621.116 298.857 621.316C293.866 635.013 290.346 642.774 277.962 651.334C277.403 651.721 276.861 651.312 277.37 650.854Z" fill="#263238"/>
<path d="M291.927 658.87C301.951 648.394 306.468 641.764 310.825 627.939C310.928 627.613 311.413 627.732 311.342 628.069C308.274 642.598 302.698 650.914 292.279 659.141C291.568 659.702 291.297 659.528 291.927 658.87Z" fill="#263238"/>
<path d="M290.578 474.595L329.463 445.576C329.463 445.576 309.264 420.473 287.749 407.411C266.231 394.35 264.961 414.853 271.46 430.919C277.958 446.986 290.578 474.592 290.578 474.592V474.595Z" fill="#EBEBEB"/>
<path d="M321.699 439.951C306.515 453.321 291.342 462.693 288.35 464.966C288.209 465.073 288.051 464.834 288.2 464.732C291.249 462.657 307.534 449.382 321.534 439.696C321.697 439.584 321.845 439.821 321.699 439.951Z" fill="#263238"/>
<path d="M283.734 458.136C281.359 452.824 278.121 445.094 275.446 439.927C275.411 439.859 275.299 439.91 275.323 439.982C276.375 443.003 277.575 445.998 278.823 448.971C278.722 448.819 278.631 448.661 278.528 448.513C277.553 447.12 276.555 445.763 275.477 444.447C275.439 444.401 275.373 444.462 275.4 444.511C276.221 446.02 277.099 447.49 278.052 448.92C278.647 449.809 279.281 450.672 279.912 451.534C280.588 453.101 282.162 456.98 282.842 458.532C283.985 461.139 289.587 475.882 289.829 475.726C290.19 475.493 292.264 474.058 293.736 472.793C293.926 472.63 293.633 472.287 293.444 472.443C292.75 473.024 290.994 474.201 290.703 474.423C289.433 471.756 288.394 468.94 287.238 466.222C286.089 463.52 284.931 460.82 283.732 458.14L283.734 458.136Z" fill="#263238"/>
<path d="M267.365 401.978C266.714 404.216 255.113 418.347 244.78 417.313C241.414 416.969 242.469 398.526 242.469 398.526L242.235 397.146L238.982 377.837L262.172 364.646L265.514 362.914C265.514 362.914 266.055 368.257 266.663 374.913C266.694 375.221 266.722 375.531 266.751 375.861C266.795 376.238 266.841 376.592 266.866 376.944C266.969 377.936 267.07 378.953 267.15 379.965C267.213 380.735 267.279 381.486 267.317 382.298C267.376 383.112 267.416 383.902 267.475 384.716C267.883 392.747 267.627 401.03 267.365 401.98V401.978Z" fill="#AD6359"/>
<path d="M266.661 374.913C260.385 389.81 247.917 395.357 242.233 397.146L238.98 377.837L262.17 364.646L265.512 362.914C265.512 362.914 266.053 368.257 266.661 374.913Z" fill="#263238"/>
<path d="M214.774 343.83C207.79 377.481 227.163 385.462 234.423 386.96C241.014 388.32 263.63 392.112 274.057 359.363C284.482 326.614 271.039 312.729 256.13 308.824C241.218 304.918 221.761 310.179 214.774 343.83Z" fill="#AD6359"/>
<path d="M226.135 335.906C226.948 335.948 227.703 335.851 228.508 335.809C229.417 335.763 230.148 335.818 230.91 335.251C231.317 334.945 231.416 334.203 231.156 333.778C230.553 332.79 229.424 332.57 228.326 332.581C227.135 332.595 226.219 332.909 225.305 333.668C224.42 334.406 225.065 335.849 226.135 335.904V335.906Z" fill="#263238"/>
<path d="M249.282 341.058C248.502 340.831 247.82 340.492 247.072 340.186C246.228 339.843 245.52 339.658 244.987 338.87C244.701 338.448 244.853 337.715 245.238 337.401C246.132 336.666 247.272 336.828 248.304 337.2C249.425 337.603 250.186 338.201 250.798 339.22C251.393 340.206 250.31 341.359 249.279 341.06L249.282 341.058Z" fill="#263238"/>
<path d="M243.323 348.343C243.358 348.259 243.481 348.486 243.459 348.581C242.942 350.865 242.735 353.567 244.668 354.731C244.727 354.768 244.699 354.88 244.624 354.856C242.156 354.009 242.467 350.424 243.323 348.345V348.343Z" fill="#263238"/>
<path d="M245.837 346.338C249.588 346.772 248.445 354.238 244.972 353.837C241.551 353.444 242.693 345.975 245.837 346.338Z" fill="#263238"/>
<path d="M247.243 346.959C247.831 347.481 248.357 348.326 249.13 348.521C250.026 348.75 250.834 348.075 251.542 347.412C251.615 347.344 251.67 347.419 251.657 347.518C251.459 348.953 250.684 350.337 249.119 350.315C247.688 350.295 246.878 348.876 246.739 347.382C246.713 347.104 247.006 346.748 247.241 346.957L247.243 346.959Z" fill="#263238"/>
<path d="M229.177 345.106C229.173 345.016 228.982 345.19 228.968 345.284C228.706 347.61 228.013 350.231 225.807 350.695C225.739 350.708 225.728 350.827 225.807 350.827C228.418 350.838 229.301 347.351 229.177 345.104V345.106Z" fill="#263238"/>
<path d="M227.46 342.389C223.775 341.566 222.4 348.994 225.814 349.756C229.173 350.506 230.549 343.077 227.46 342.389Z" fill="#263238"/>
<path d="M225.82 342.591C225.16 342.877 224.447 343.485 223.738 343.401C222.915 343.304 222.463 342.389 222.087 341.524C222.047 341.434 221.979 341.487 221.957 341.583C221.656 342.996 221.851 344.561 223.166 345.086C224.363 345.566 225.503 344.517 226.104 343.166C226.217 342.915 226.089 342.479 225.823 342.593L225.82 342.591Z" fill="#263238"/>
<path d="M238.068 365.962C237.454 366.448 236.816 367.139 235.964 367.119C235.147 367.102 234.236 366.633 233.525 366.268C233.454 366.23 233.371 366.301 233.41 366.375C233.919 367.333 235.132 368.028 236.23 367.953C237.304 367.883 237.923 367.027 238.28 366.092C238.33 365.96 238.159 365.891 238.068 365.962Z" fill="#263238"/>
<path d="M229.787 356.025C229.787 356.025 228.741 359.394 228.473 361.022C228.449 361.174 228.829 361.312 229.378 361.436C229.402 361.449 229.415 361.462 229.441 361.449C232.241 362.371 235.297 361.856 237.43 359.798C237.569 359.658 237.39 359.455 237.225 359.532C234.819 360.753 232.382 360.769 229.829 360.39C229.789 359.922 231.812 354.678 231.557 354.616C230.681 354.394 228.827 354.709 227.724 354.843C229.699 347.76 232.792 341.053 234.652 333.97C234.713 333.717 234.357 333.578 234.245 333.796C230.505 340.598 228.052 348.697 225.827 355.961C225.541 356.863 229.089 356.194 229.787 356.025Z" fill="#263238"/>
<path d="M240.402 313.079C240.402 313.079 238.566 318.068 239.979 321.929C242.885 329.871 252.236 328.746 255.08 332.049C257.746 335.145 256.163 340.882 258.553 343.951C261.86 348.202 267.009 347.168 267.365 349.853C267.722 352.537 268.668 361.064 271.915 362.446C275.162 363.83 295.834 309.697 251.897 307.268C251.897 307.268 246.123 304.245 236.358 308.045C225.58 312.241 219.494 328.715 219.494 328.715C219.494 328.715 219.734 328.506 221.358 327.329C223.65 325.67 224.629 324.024 226.291 322.966C228.904 321.302 230.17 322.147 232.875 320.543C236.996 318.098 240.399 313.075 240.399 313.075L240.402 313.079Z" fill="#263238"/>
<path d="M241.298 310.725C240.413 312.842 239.75 315.053 239.38 317.293C238.993 319.507 238.887 321.859 239.693 323.886C240.514 325.862 242.372 327.331 244.342 328.269C246.352 329.233 248.626 329.67 250.781 330.779C251.831 331.369 252.852 332.126 253.504 333.262C254.14 334.379 254.325 335.603 254.47 336.745C254.719 339.033 254.983 341.289 256.319 343.031C257.631 344.772 259.707 345.943 261.952 346.053C264.156 346.266 266.654 345.881 268.712 347.056C266.564 346.053 264.239 346.625 261.919 346.583C259.546 346.576 257.195 345.417 255.665 343.546C254.039 341.65 253.783 339.079 253.493 336.875C253.339 335.755 253.134 334.659 252.608 333.779C252.104 332.914 251.212 332.241 250.266 331.732C248.344 330.694 246.041 330.203 243.915 329.156C242.85 328.638 241.833 327.976 240.959 327.151C240.098 326.35 239.277 325.355 238.909 324.18C238.115 321.861 238.363 319.434 238.856 317.185C239.411 314.93 240.25 312.767 241.298 310.723V310.725Z" fill="#263238"/>
<path d="M240.272 312.637C239.653 314.686 238.731 316.633 237.575 318.466C236.437 320.299 234.786 321.947 232.724 322.869C231.691 323.342 230.551 323.527 229.585 323.756C228.66 323.989 227.659 324.46 227.069 325.114C226.424 325.866 225.79 326.832 224.92 327.514C224.048 328.194 223.031 328.652 221.988 328.867C222.954 328.416 223.868 327.88 224.561 327.118C225.308 326.399 225.774 325.512 226.419 324.585C227.176 323.573 228.235 323.14 229.314 322.775C230.401 322.473 231.381 322.323 232.281 321.886C234.117 321.052 235.621 319.637 236.858 317.962C238.126 316.308 239.213 314.488 240.272 312.637Z" fill="#263238"/>
<path d="M265.043 357.631C265.043 357.631 274.072 348.152 278.486 351.527C282.897 354.902 274.984 369.43 269.012 370.675C263.042 371.92 261.781 366.417 261.781 366.417L265.043 357.631Z" fill="#AD6359"/>
<path d="M276.113 355.635C276.206 355.642 276.203 355.771 276.12 355.791C271.913 356.795 269.269 360.15 267.229 363.737C268.631 362.45 270.357 361.891 272.109 363.592C272.201 363.682 272.078 363.827 271.97 363.787C270.401 363.193 269.186 363.297 267.891 364.43C266.976 365.233 266.267 366.316 265.549 367.293C265.309 367.618 264.699 367.332 264.895 366.945C264.909 366.916 264.926 366.888 264.942 366.859C265.609 361.794 270.61 355.32 276.113 355.637V355.635Z" fill="#263238"/>
<path d="M242.211 400.033L247.078 415.7L267.495 398.026L272.34 404.619C272.34 404.619 251.421 433.627 251.415 432.241L246.218 418.655L236.45 427.023L239.033 404.238L242.209 400.031L242.211 400.033Z" fill="#EBEBEB"/>
<path d="M237.093 415.691C237.646 411.944 238.097 408.155 238.823 404.436C238.85 404.304 239.063 404.262 239.083 404.421C239.543 408.12 237.355 422.44 237.091 425.894C237.104 425.883 237.122 425.87 237.133 425.859C237.542 425.496 246.151 418.53 246.22 418.657C247.408 420.845 251.228 430.74 251.472 431.631C254.78 427.021 267.392 410.313 271.215 406.012C271.325 405.888 271.521 406.012 271.431 406.161C268.439 411.068 251.721 433.589 251.498 433.506C251.333 433.614 246.578 421.419 246.077 419.148C244.591 420.697 235.825 428.636 235.845 428.073C235.966 424.277 236.541 419.443 237.093 415.691Z" fill="#263238"/>
<path d="M658.496 114.028H373.674V398.737H658.496V114.028Z" fill="#DBDBDB"/>
<path d="M495.114 41.8784V233.689H687V41.8784H495.114ZM676.588 223.281H505.526V52.2864H676.588V223.281Z" fill="#263238"/>
<path d="M467.858 283.198C469.089 283.277 474.849 283.673 483.272 284.272C486.466 279.037 490.364 269.692 489.49 256.17C489.332 253.932 494.014 266.968 491.099 284.824C507.373 285.959 529.509 287.491 548.857 288.646C549.576 281.108 550.585 274.152 550.585 274.152C550.998 279.629 551.941 284.595 553.063 288.915C555.709 289.093 558.302 289.218 560.79 289.361C560.759 277.604 563.695 257.257 563.695 257.257C564.798 271.556 568.822 283.117 571.792 289.958C584.081 290.563 592.178 290.737 591.685 290.129C574.063 267.969 588.24 256.315 583.813 237.306C578.497 214.525 559.262 210.067 560.609 193.201C561.67 179.477 564.523 154.619 547.397 148.495C547.397 148.495 533.976 132.381 511.4 139.885C483.47 149.14 492.396 192.021 490.129 200.557C486.901 212.752 480.837 216.825 475.818 230.667C470.7 244.677 476.745 254.41 477.04 264.083C477.295 273.747 464.774 283.033 467.858 283.202V283.198Z" fill="#263238"/>
<path d="M592.374 287.11C590.067 283.191 588.042 279.081 586.956 274.806C585.743 270.55 586.549 266.29 587.599 261.9C588.645 257.535 589.858 253.079 590.483 248.423C591.053 243.784 591.108 238.882 589.774 234.21C588.521 229.532 586.056 225.224 582.93 221.679C579.844 218.081 576.249 215.137 572.784 212.232C569.355 209.297 565.934 206.397 563.431 202.746C560.867 199.151 559.407 194.79 559.066 190.235C558.676 194.777 559.674 199.54 562.022 203.627C564.338 207.737 567.675 211.112 570.982 214.241C574.29 217.395 577.627 220.405 580.379 223.804C583.111 227.202 585.246 230.998 586.294 235.139C587.355 239.269 587.511 243.632 586.996 248.002C586.542 252.388 585.521 256.771 584.72 261.308C584.339 263.579 583.987 265.894 583.956 268.29C583.912 270.691 584.405 273.144 585.191 275.345C586.862 279.748 589.378 283.662 592.378 287.108L592.374 287.11Z" fill="#263238"/>
<path d="M495.156 154.936C492.781 160.047 491.729 165.66 490.672 171.166C489.719 176.709 489.039 182.285 488.418 187.843L487.439 196.136C487.106 198.909 486.635 201.501 485.818 204.031C484.223 209.116 481.134 213.473 477.671 217.889C475.99 220.134 474.279 222.471 472.853 225.025C471.424 227.571 470.249 230.287 469.421 233.094C468.675 235.939 468.136 238.734 467.823 241.612C467.497 244.484 467.517 247.439 467.9 250.315C468.268 253.202 468.954 255.948 469.507 258.635C470.07 261.315 470.385 264.052 470.423 266.756C470.588 272.121 467.517 277.331 463.026 280.632C467.959 278.003 471.728 272.752 472.162 266.827C472.373 263.944 472.208 261.079 471.834 258.249C471.475 255.422 470.894 252.704 470.711 250.022C470.282 244.701 471.209 239.214 472.721 234.082C473.56 231.55 474.601 229.103 475.944 226.79C477.269 224.469 478.889 222.292 480.584 220.083C482.25 217.856 483.987 215.57 485.495 213.068C486.996 210.571 488.282 207.878 489.116 205.052C489.937 202.227 490.369 199.285 490.613 196.493C490.899 193.678 491.077 190.882 491.251 188.089C491.625 182.507 491.918 176.937 492.442 171.395C492.9 165.841 493.567 160.307 495.154 154.931L495.156 154.936Z" fill="#263238"/>
<path d="M629.542 390.933C629.494 390.596 629.43 390.277 629.366 389.942C629.445 390.358 629.527 390.757 629.573 391.172C629.557 391.093 629.558 391.012 629.542 390.933Z" fill="#FFC727"/>
<path d="M574.418 400.683C574.594 400.795 574.785 400.889 574.992 400.986L575.071 400.843L575.087 400.828C574.895 400.779 574.688 400.749 574.495 400.7C574.464 400.7 574.446 400.7 574.416 400.685L574.418 400.683Z" fill="#FFC727"/>
<path d="M495.627 245.865C461.03 284.777 419.133 365.018 428.519 380.355C438.975 397.437 488.893 342.028 487.176 339.517C485.719 337.385 501.947 289.385 513.728 254.286C525.499 219.218 504.181 236.243 495.625 245.863L495.627 245.865Z" fill="#D3766A"/>
<path d="M495.627 245.865C461.03 284.777 419.133 365.018 428.519 380.355C438.975 397.437 488.893 342.028 487.176 339.517C485.719 337.385 501.947 289.385 513.728 254.286C525.499 219.218 504.181 236.243 495.625 245.863L495.627 245.865Z" fill="#455A64"/>
<path d="M500.283 294.554C496.911 304.792 493.809 314.397 491.458 322.072C486.109 322.31 470.471 321.447 454.219 305.84C459.101 297.179 464.393 288.483 469.846 280.172C473.934 284.474 483.848 292.864 500.281 294.556L500.283 294.554Z" fill="#EBEBEB"/>
<path d="M462.245 398.099L470.936 339.242C470.936 339.242 457.006 314.934 465.087 297.487C469.166 288.65 497.135 245.467 512.203 234.535C526.337 224.282 545.698 233.633 552.284 242.554C571.217 268.202 580.443 314.369 591.013 398.099H462.245Z" fill="#455A64"/>
<path d="M487.593 261.675C484.735 265.596 481.957 269.577 479.23 273.59C479.974 272.028 480.725 270.47 481.458 268.904C481.511 268.791 481.345 268.697 481.286 268.809C480.271 270.772 479.338 272.761 478.427 274.763C474.781 280.161 471.239 285.631 467.823 291.176C466.375 293.528 465.045 295.927 464.068 298.517C463.121 301.025 462.533 303.666 462.223 306.324C461.91 308.989 461.888 311.664 462.095 314.338C462.307 317.09 462.641 319.819 463.258 322.512C463.955 325.551 464.904 328.574 466.137 331.442C466.742 332.85 467.387 334.249 468.083 335.614C468.719 336.861 470.011 339.407 469.993 339.506C469.734 340.917 469.467 341.905 469.289 343.091C469.106 344.299 468.926 345.507 468.743 346.715C468.38 349.131 465.243 372.638 464.889 375.054C464.186 379.853 463.583 384.656 462.985 389.471C462.641 392.232 462.461 395.018 462.071 397.773C462.056 397.885 462.225 397.929 462.243 397.815C462.639 395.414 463.235 393.047 463.671 390.653C464.109 388.256 464.552 385.86 465.001 383.466C465.91 378.627 469.403 352.654 470.163 347.788C470.372 346.444 470.583 345.097 470.792 343.753C471.002 342.417 471.358 340.62 471.305 339.264C471.305 339.264 466.993 330.41 465.32 324.2C464.618 321.593 463.898 318.884 463.608 316.195C463.321 313.552 463.293 310.89 463.511 308.243C463.729 305.593 464.226 302.968 465.038 300.436C465.877 297.824 467.079 295.392 468.422 293.007C471.237 288.005 474.229 283.098 477.262 278.229C480.703 272.706 484.183 267.207 487.74 261.759C487.802 261.666 487.654 261.589 487.593 261.675Z" fill="#263238"/>
<path d="M428.519 380.357C437.353 391.683 459.85 392.761 516.24 400.786C524.044 401.897 546.699 348.96 538.427 347.344C528.008 345.311 487.135 339.678 484.092 339.643C458.443 339.35 422.527 372.676 428.519 380.357Z" fill="#D3766A"/>
<path d="M527.128 345.379C527.128 345.379 550.963 347.723 563.103 352.828C579.362 359.664 590.582 372.257 594.964 377.818C604.115 389.425 618.21 423.815 609.009 429.602C600.681 434.839 588.05 398.96 588.05 398.96C588.05 398.96 606.968 433.418 595.779 437.883C584.592 442.345 572.3 399.862 572.3 399.862C572.3 399.862 590.943 435.702 578.677 438.481C569.408 440.58 556.105 402.729 556.105 402.729C556.105 402.729 571.915 433.645 562.476 436.215C552.044 439.055 537.573 404.883 537.573 404.883C512.478 407.378 499.508 398.304 491.051 390.752C489.004 388.923 527.128 345.382 527.128 345.382V345.379Z" fill="#D3766A"/>
<path d="M582.272 386.622C584.64 390.589 587.066 394.589 589.074 398.752C591.081 402.916 592.946 407.154 594.557 411.486C598.508 422.112 599.321 429.384 599.219 428.94C596.877 418.446 589.919 403.428 587.911 399.263C585.908 395.106 584.112 390.851 582.111 386.692C582.06 386.586 582.217 386.527 582.272 386.622Z" fill="#263238"/>
<path d="M567.098 393.595C569.903 398.792 572.879 403.847 575.457 409.172C578.019 414.468 579.989 419.716 582.182 425.175C582.351 425.596 582.069 425.549 581.882 425.133C579.474 419.767 576.832 414.992 574.363 409.654C571.899 404.335 569.625 398.878 566.971 393.654C566.929 393.573 567.057 393.518 567.101 393.597L567.098 393.595Z" fill="#263238"/>
<path d="M552.997 397.241C557.69 404.964 560.955 413.541 563.953 422.033C564.102 422.455 563.746 422.354 563.568 421.932C560.081 413.621 557.404 407.077 552.726 397.404C552.654 397.252 552.896 397.078 552.995 397.241H552.997Z" fill="#263238"/>
<path d="M545.138 345.791L498.713 400.399C498.713 400.399 435.299 395.989 427.997 379.29C420.696 362.591 468.976 338.25 484.015 339.559C499.052 340.869 545.138 345.791 545.138 345.791Z" fill="#455A64"/>
<path d="M459.588 346.792C463.233 344.303 473.584 338.391 484.016 339.559C484.132 339.573 484.137 339.738 484.016 339.742C475.464 340.004 463.405 344.816 459.676 346.94C459.579 346.995 459.498 346.854 459.588 346.792Z" fill="#263238"/>
<path d="M488.894 390.961C507.138 371.641 523.383 348.572 526.502 344.752C526.65 344.572 526.342 344.354 526.203 344.546C523.341 348.451 501.914 372.803 488.566 390.732C488.411 390.939 488.717 391.146 488.894 390.961Z" fill="#263238"/>
<path d="M440.739 271.748L420.167 372.487L497.584 388.283L518.155 287.544L440.739 271.748Z" fill="#2F61D6"/>
<path d="M499.176 278.301L462.493 270.773L460.211 281.884L496.894 289.413L499.176 278.301Z" fill="#EBEBEB"/>
<path d="M490.844 276.599L486.327 275.672L487.379 270.547L476.401 268.294L475.349 273.419L470.832 272.493L472.749 263.156L492.825 267.278L490.844 276.599Z" fill="#EBEBEB"/>
<path d="M561.558 254.746C598.845 302.176 612.911 387.381 592.217 394.022C573.306 400.09 495.528 380.634 472.362 372.768C465.558 370.457 486.573 317.57 493.853 320.033C502.649 323.008 550.754 334.401 551.687 334.423C553.684 334.469 542.997 282.012 538.409 258.241C532.019 225.122 547.558 236.934 561.558 254.746Z" fill="#D3766A"/>
<path d="M431.673 300.165C427.735 304.63 430.923 309.906 430.923 309.906C430.923 309.906 426.329 311.132 423.989 315.053C421.31 319.544 427.178 325.714 427.178 325.714C427.178 325.714 422.787 327.919 420.731 332.309C418.598 336.866 423.632 343.936 423.632 343.936C423.632 343.936 420.669 348.235 421.616 353.303C423.236 361.968 435.774 366.886 443.712 370.094C451.65 373.303 477.174 374.966 482.006 375.776L503.037 325.021C503.037 325.021 471.532 300.515 461.661 298.068C453.347 296.009 436.089 295.15 431.671 300.163L431.673 300.165Z" fill="#D3766A"/>
<path d="M431.612 309.235C440.978 309.306 449.812 312.142 458.791 314.47C458.991 314.523 458.908 314.835 458.707 314.78C449.803 312.36 440.536 311.737 431.554 309.678C431.306 309.62 431.359 309.233 431.612 309.235Z" fill="#263238"/>
<path d="M427.616 325.118C429.734 325.197 431.821 325.976 433.826 326.603C435.986 327.281 438.132 327.994 440.267 328.742C444.542 330.238 448.786 331.831 452.977 333.55C453.162 333.625 453.092 333.928 452.894 333.86C448.63 332.377 444.344 330.958 440.021 329.653C437.857 329.002 435.688 328.368 433.516 327.747C431.495 327.171 429.314 326.731 427.458 325.716C427.183 325.567 427.297 325.105 427.616 325.118Z" fill="#263238"/>
<path d="M423.817 343.993C425.659 343.989 427.632 344.992 429.336 345.628C431.271 346.35 433.208 347.063 435.149 347.762C439.032 349.164 442.915 350.561 446.845 351.826C447.041 351.89 446.959 352.198 446.761 352.137C442.761 350.871 438.746 349.661 434.757 348.361C432.798 347.723 430.843 347.074 428.893 346.413C427.233 345.852 425.098 345.34 423.738 344.182C423.661 344.116 423.725 343.993 423.817 343.993Z" fill="#263238"/>
<path d="M550.987 332.276C551.59 331.915 540.417 281.285 536.668 254.865C532.921 228.445 544.725 230.984 561.712 253.569C579.908 277.762 612.304 343.253 601.08 391.751C597.445 407.455 484.894 385.455 484.894 385.455L500.061 320.792C500.061 320.792 550.056 332.834 550.987 332.276Z" fill="#455A64"/>
<path d="M596.851 327.476C578.492 332.861 558.59 330.126 550.466 328.599C549.29 322.244 546.439 308.471 543.536 293.588C562.821 295.722 575.912 292.972 583.062 290.578C588.288 301.866 593.181 314.457 596.851 327.476Z" fill="#EBEBEB"/>
<path d="M499.627 378.808C506.471 356.293 510.248 331.593 511.212 327.336C511.258 327.133 510.928 327.085 510.893 327.289C510.164 331.516 502.786 359.277 499.275 378.757C499.233 378.981 499.561 379.023 499.627 378.808Z" fill="#263238"/>
<path d="M572.148 339.759C569.978 339.385 512.515 323.212 499.951 321.263C499.752 321.232 499.929 320.572 500.138 320.609C538.748 327.417 570.469 337.737 572.901 338.705C575.782 339.854 576.194 340.455 572.148 339.759Z" fill="#263238"/>
<path d="M550.432 332.795C550.474 332.683 546.644 313.299 545.966 312.089C545.27 310.835 543.765 308.049 543.148 306.751C541.905 304.13 540.826 301.452 539.681 298.799C539.587 298.579 539.917 298.409 540.014 298.629C541.251 301.195 542.708 303.657 544.181 306.086C544.914 307.281 545.645 308.485 546.378 309.669C546.433 309.748 542.842 290.725 542.338 287.385C542.299 287.139 542.567 287.068 542.642 287.277C543.721 290.639 551.254 328.744 552.284 332.967C552.284 332.967 551.568 332.953 550.432 332.795Z" fill="#263238"/>
<path d="M508.071 389.473C504.322 388.437 489.283 386.005 485.625 385.479C485.983 384.155 487.051 378.775 486.954 377.259C486.945 377.116 486.732 377.03 486.642 377.16C485.787 378.412 484.321 385.028 483.886 386.591C483.802 386.888 504.144 389.44 508.04 389.647C508.152 389.654 508.183 389.504 508.071 389.473Z" fill="#263238"/>
<path d="M503.039 239.242C503.039 239.242 504.549 254.121 516.887 256.439C529.226 258.756 552.284 242.554 552.284 242.554C552.284 242.554 543.023 230.097 526.293 230.058C510.204 230.018 503.039 239.242 503.039 239.242Z" fill="#D3766A"/>
<path d="M538.466 235.084C537.806 237.319 526.15 251.404 515.82 250.328C512.456 249.972 513.583 231.532 513.583 231.532L513.354 230.153L510.176 210.831L533.417 197.732L536.765 196.013C536.765 196.013 537.284 201.356 537.868 208.016C537.896 208.325 537.925 208.635 537.951 208.965C537.995 209.341 538.039 209.695 538.064 210.047C538.163 211.042 538.262 212.056 538.337 213.071C538.398 213.841 538.462 214.591 538.495 215.403C538.55 216.217 538.587 217.007 538.643 217.821C539.017 225.855 538.728 234.135 538.462 235.086L538.466 235.084Z" fill="#D3766A"/>
<path d="M537.872 208.016C531.537 222.889 519.049 228.386 513.356 230.153L510.178 210.831L533.419 197.732L536.767 196.013C536.767 196.013 537.286 201.356 537.87 208.016H537.872Z" fill="#263238"/>
<path d="M487.839 174.764C478.794 207.92 497.639 217.08 504.793 219.021C511.289 220.783 533.628 225.961 546.052 193.916C558.476 161.872 545.913 147.186 531.273 142.369C516.632 137.553 496.884 141.606 487.839 174.764Z" fill="#D3766A"/>
<path d="M499.785 168.277C500.591 168.373 501.353 168.329 502.158 168.343C503.07 168.358 503.794 168.466 504.593 167.949C505.022 167.671 505.17 166.939 504.941 166.496C504.406 165.469 503.294 165.172 502.2 165.108C501.011 165.04 500.076 165.291 499.112 165.986C498.178 166.661 498.722 168.147 499.785 168.277Z" fill="#263238"/>
<path d="M523.425 171.586C522.659 171.32 521.994 170.945 521.263 170.602C520.438 170.215 519.742 169.993 519.251 169.179C518.987 168.743 519.179 168.017 519.577 167.722C520.508 167.033 521.638 167.255 522.65 167.68C523.749 168.14 524.477 168.778 525.036 169.825C525.578 170.842 524.435 171.938 523.425 171.586Z" fill="#263238"/>
<path d="M515.846 182.185C515.886 182.104 515.996 182.337 515.971 182.43C515.338 184.683 514.99 187.372 516.859 188.633C516.916 188.672 516.881 188.784 516.808 188.756C514.387 187.783 514.882 184.219 515.846 182.185Z" fill="#263238"/>
<path d="M518.461 180.315C522.186 180.942 520.658 188.34 517.209 187.759C513.814 187.187 515.342 179.789 518.461 180.315Z" fill="#263238"/>
<path d="M519.835 181.006C520.394 181.558 520.876 182.427 521.638 182.665C522.52 182.94 523.361 182.306 524.105 181.684C524.182 181.618 524.233 181.697 524.213 181.794C523.942 183.215 523.095 184.557 521.532 184.456C520.105 184.364 519.368 182.903 519.309 181.404C519.298 181.127 519.606 180.784 519.833 181.006H519.835Z" fill="#263238"/>
<path d="M502.187 177.666C502.187 177.576 501.985 177.736 501.967 177.831C501.547 180.132 500.675 182.7 498.441 183.013C498.372 183.022 498.353 183.138 498.432 183.145C501.034 183.334 502.156 179.917 502.185 177.668L502.187 177.666Z" fill="#263238"/>
<path d="M500.659 174.836C497.04 173.762 495.156 181.078 498.511 182.073C501.811 183.052 503.695 175.736 500.659 174.836Z" fill="#263238"/>
<path d="M499.01 174.924C498.332 175.164 497.58 175.72 496.877 175.588C496.063 175.434 495.676 174.493 495.359 173.601C495.326 173.509 495.253 173.555 495.224 173.652C494.826 175.04 494.914 176.616 496.188 177.23C497.351 177.791 498.559 176.821 499.25 175.514C499.378 175.272 499.283 174.827 499.01 174.924Z" fill="#263238"/>
<path d="M509.986 199.52C509.348 199.974 508.676 200.629 507.825 200.568C507.01 200.506 506.125 199.993 505.432 199.591C505.363 199.551 505.278 199.617 505.313 199.692C505.771 200.676 506.946 201.43 508.047 201.415C509.123 201.4 509.784 200.577 510.191 199.661C510.248 199.534 510.079 199.454 509.986 199.52Z" fill="#263238"/>
<path d="M502.231 189.167C502.231 189.167 501.014 192.479 500.659 194.09C500.626 194.239 501.001 194.398 501.542 194.549C501.566 194.563 501.579 194.576 501.606 194.565C504.353 195.63 507.433 195.276 509.669 193.33C509.815 193.196 509.647 192.987 509.478 193.055C507.012 194.149 504.578 194.039 502.046 193.531C502.031 193.06 504.322 187.931 504.071 187.854C503.206 187.585 501.342 187.805 500.232 187.882C502.57 180.911 506.008 174.372 508.232 167.396C508.307 167.145 507.959 166.989 507.833 167.2C503.746 173.799 500.879 181.763 498.278 188.899C497.945 189.786 501.527 189.301 502.231 189.167Z" fill="#263238"/>
<path d="M502.18 194.039C502.18 194.039 503.151 196.493 505.031 197.786C505.724 198.266 506.519 198.594 507.446 198.596C509.346 198.605 509.825 196.988 509.872 195.507C509.914 194.29 509.647 193.161 509.647 193.161C509.647 193.161 506.407 194.893 502.18 194.039Z" fill="#263238"/>
<path d="M505.031 197.784C505.724 198.264 506.519 198.592 507.446 198.594C509.346 198.603 509.825 196.986 509.872 195.505C507.917 195.192 505.687 195.978 505.031 197.784Z" fill="#FF9CBD"/>
<path d="M544.198 193.357C540.661 192.112 534.132 179.532 538.827 162.078C538.827 162.078 535.695 178.04 536.212 180.663C536.73 183.284 532.571 173.593 536.162 159.466C536.162 159.466 526.795 162.842 519.645 162.798C512.496 162.756 508.465 161.532 508.13 160.919C507.796 160.305 518.413 160.03 521.915 157.75C521.915 157.75 501.967 160.886 493.675 159.178C492.715 158.98 497.131 139.365 512.022 134.773C526.914 130.181 544.249 144.719 548.112 151.408C548.112 151.408 554.131 154.099 558.289 165.33C562.447 176.559 548.007 194.701 544.198 193.361V193.357Z" fill="#263238"/>
<path d="M539.067 194.087C539.067 194.087 548.368 184.872 552.68 188.375C556.992 191.876 548.66 206.168 542.655 207.239C536.65 208.311 535.55 202.775 535.55 202.775L539.067 194.087Z" fill="#D3766A"/>
<path d="M550.19 192.411C550.283 192.419 550.276 192.549 550.193 192.567C545.957 193.449 543.219 196.726 541.075 200.253C542.512 199.007 544.256 198.499 545.957 200.248C546.048 200.341 545.92 200.484 545.812 200.44C544.26 199.8 543.043 199.87 541.718 200.964C540.778 201.738 540.04 202.801 539.294 203.758C539.045 204.077 538.442 203.773 538.651 203.391C538.667 203.362 538.684 203.333 538.7 203.305C539.514 198.259 544.7 191.935 550.19 192.411Z" fill="#263238"/>
<path d="M574.497 400.698C574.688 400.747 574.88 400.795 575.071 400.841L575.087 400.826C574.895 400.777 574.688 400.747 574.495 400.698H574.497Z" fill="#D3766A"/>
<path d="M629.368 389.942C629.447 390.358 629.529 390.757 629.575 391.172C629.56 391.093 629.56 391.012 629.544 390.933C629.496 390.596 629.432 390.277 629.368 389.942Z" fill="#FFC727"/>
<path d="M629.368 389.942C629.447 390.358 629.529 390.757 629.575 391.172C629.56 391.093 629.56 391.012 629.544 390.933C629.496 390.596 629.432 390.277 629.368 389.942Z" fill="#FFC727"/>
<path d="M571.891 406.674V406.69C572.498 406.833 573.09 406.978 573.68 407.106C573.088 406.963 572.481 406.817 571.891 406.674Z" fill="#FFC727"/>
<path d="M629.368 389.942C629.448 390.358 629.529 390.757 629.575 391.172C629.56 391.093 629.56 391.012 629.544 390.933C629.496 390.596 629.432 390.277 629.368 389.942Z" fill="#DBDBDB"/>
<path d="M0 22.1538V108.901H86.7943V22.1538H0ZM6.55321 102.35V28.7044H80.2279V102.35H6.55321Z" fill="#EBEBEB"/>
<path d="M356.134 0H61.6799V271.065H356.134V0Z" fill="#37474F"/>
<path d="M261.409 134.738C297.285 171.091 342.42 247.56 334.007 263.062C324.636 280.328 274.676 229.369 274.867 226.392C275.013 224.143 257.438 177.694 244.104 143.909C230.784 110.157 252.535 125.747 261.409 134.736V134.738Z" fill="#F7A9A0"/>
<path d="M274.533 226.449C273.007 221.483 249.092 160.232 242.255 140.864C235.418 121.496 241.755 115.5 261.283 133.239C280.811 150.979 323.599 210.245 333.364 241.7C342.772 272 327.167 272 306.574 258.034C289.715 246.598 274.535 226.449 274.535 226.449H274.533Z" fill="#2F61D6"/>
<path opacity="0.1" d="M257.895 135.246C257.706 136.652 257.226 137.926 256.678 139.169C256.095 140.395 255.441 141.59 254.497 142.648C254.684 141.24 255.164 139.968 255.712 138.725C256.297 137.499 256.953 136.307 257.895 135.246ZM317.053 219.469C316.504 220.71 316.025 221.984 315.837 223.393C316.782 222.332 317.436 221.139 318.019 219.914C318.565 218.67 319.045 217.396 319.234 215.99C318.292 217.051 317.638 218.246 317.053 219.469ZM295.903 187.288C295.355 188.529 294.875 189.803 294.688 191.211C295.632 190.151 296.286 188.958 296.869 187.733C297.415 186.489 297.895 185.215 298.084 183.809C297.142 184.87 296.488 186.065 295.903 187.288ZM273.934 179.21C272.692 178.662 271.418 178.183 270.009 177.996C271.07 178.94 272.263 179.593 273.489 180.176C274.733 180.722 276.007 181.202 277.414 181.391C276.353 180.449 275.158 179.796 273.934 179.21ZM293.739 211.75C292.497 211.202 291.223 210.723 289.814 210.536C290.875 211.479 292.068 212.133 293.296 212.716C294.538 213.262 295.812 213.742 297.221 213.933C296.16 212.991 294.965 212.338 293.741 211.752L293.739 211.75ZM277.636 156.016C276.395 155.468 275.12 154.988 273.712 154.801C274.773 155.745 275.966 156.399 277.192 156.982C278.435 157.528 279.71 158.007 281.117 158.196C280.056 157.255 278.86 156.601 277.636 156.016ZM265.355 199.463C265.846 200.728 266.408 201.969 267.271 203.096C267.189 201.679 266.806 200.372 266.353 199.093C265.86 197.828 265.298 196.589 264.438 195.46C264.521 196.878 264.904 198.182 265.355 199.463ZM306.795 238.241C307.285 239.506 307.847 240.747 308.71 241.874C308.628 240.457 308.245 239.15 307.792 237.871C307.299 236.606 306.737 235.367 305.877 234.238C305.96 235.655 306.343 236.96 306.795 238.241ZM278.893 231.717C278.86 231.728 278.838 231.739 278.805 231.75C279.036 232.027 279.27 232.313 279.523 232.61C280.705 232.146 281.852 231.607 282.902 230.799C281.489 230.876 280.174 231.266 278.893 231.717ZM327.997 254.854C329.263 254.363 330.505 253.802 331.632 252.94C330.214 253.021 328.906 253.404 327.628 253.857C326.362 254.35 325.122 254.911 323.993 255.772C325.411 255.688 326.716 255.305 327.997 254.854ZM254.314 165.106C253.42 165.447 252.546 165.823 251.719 166.32C251.785 166.496 251.851 166.683 251.917 166.862C252.865 166.708 253.783 166.419 254.677 166.1C255.947 165.614 257.184 165.051 258.32 164.19C256.896 164.267 255.595 164.655 254.314 165.106Z" fill="black"/>
<path d="M270.245 271.45H133.84C133.84 271.45 155.523 164.51 207.834 118.22C214.299 112.498 228.883 113.799 238.399 118.525C241.798 120.213 253.993 137.268 257.473 153.395C260.929 169.505 270.625 270.968 270.245 271.45Z" fill="#2F61D6"/>
<path d="M258.657 160.067C259.727 163.667 260.612 167.403 261.338 171.155C261.343 171.01 261.354 170.865 261.358 170.719C261.413 168.611 261.431 166.462 261.653 164.367C261.664 164.257 261.842 164.224 261.86 164.349C262.164 166.437 262.148 168.644 262.034 170.75C261.979 171.756 261.917 172.764 261.831 173.769C262.118 175.455 262.375 177.138 262.584 178.81C262.985 181.994 264.055 193.839 264.147 196.194C264.167 196.689 263.595 196.768 263.458 196.255C262.818 193.874 261.114 181.658 260.572 178.513C259.531 172.475 258.796 166.204 258.417 160.087C258.408 159.942 258.622 159.942 258.659 160.065L258.657 160.067Z" fill="#263238"/>
<path opacity="0.1" d="M216.386 146.139C216.197 147.545 215.717 148.819 215.169 150.062C214.585 151.288 213.931 152.482 212.987 153.541C213.174 152.132 213.654 150.861 214.202 149.617C214.788 148.392 215.442 147.199 216.384 146.136L216.386 146.139ZM197.902 200.443C197.354 201.684 196.874 202.958 196.687 204.366C197.631 203.305 198.285 202.113 198.868 200.887C199.414 199.644 199.894 198.37 200.085 196.964C199.143 198.024 198.49 199.219 197.904 200.445L197.902 200.443ZM153.592 219.883C153.044 221.124 152.564 222.398 152.377 223.807C153.321 222.746 153.975 221.553 154.559 220.326C155.104 219.082 155.584 217.808 155.774 216.402C154.832 217.463 154.178 218.658 153.592 219.883ZM186.162 254.696C185.614 255.937 185.134 257.211 184.947 258.619C185.892 257.559 186.545 256.366 187.129 255.138C187.675 253.895 188.154 252.621 188.344 251.215C187.402 252.276 186.748 253.47 186.162 254.696ZM243.032 187.425C242.484 188.666 242.004 189.94 241.817 191.348C242.762 190.288 243.415 189.095 243.999 187.869C244.545 186.626 245.025 185.352 245.214 183.946C244.272 185.007 243.618 186.202 243.032 187.425ZM260.949 224.372C260.401 225.613 259.921 226.887 259.734 228.295C260.678 227.235 261.332 226.042 261.915 224.817C262.461 223.573 262.941 222.299 263.13 220.893C262.188 221.954 261.534 223.149 260.949 224.372ZM217.59 250.995C217.042 252.236 216.562 253.51 216.375 254.918C217.319 253.858 217.973 252.665 218.556 251.439C219.102 250.196 219.582 248.922 219.771 247.516C218.829 248.577 218.176 249.772 217.59 250.995ZM176.032 178.973C175.484 180.214 175.004 181.488 174.817 182.897C175.761 181.836 176.415 180.643 176.998 179.415C177.544 178.172 178.024 176.898 178.214 175.492C177.271 176.553 176.618 177.748 176.032 178.973ZM227.601 166.822C226.36 166.272 225.085 165.795 223.677 165.608C224.738 166.552 225.931 167.205 227.159 167.788C228.403 168.334 229.677 168.814 231.084 169.003C230.023 168.061 228.828 167.408 227.604 166.822H227.601ZM236.204 210.697C234.963 210.146 233.688 209.669 232.279 209.482C233.34 210.426 234.533 211.079 235.759 211.663C237.003 212.208 238.278 212.688 239.684 212.877C238.623 211.935 237.428 211.282 236.204 210.697ZM155.996 257.187C154.754 256.639 153.48 256.159 152.071 255.972C153.132 256.916 154.325 257.57 155.554 258.153C156.797 258.699 158.07 259.178 159.478 259.368C158.417 258.426 157.22 257.772 155.996 257.187ZM237.615 266.074C236.374 265.524 235.09 265.036 233.686 264.853C234.745 265.791 235.947 266.442 237.166 267.032C237.452 267.155 237.716 267.276 238 267.399C238.733 267.441 239.447 267.5 240.18 267.542C239.365 266.952 238.489 266.481 237.615 266.074ZM186.658 221.668C185.416 221.12 184.142 220.64 182.733 220.453C183.794 221.397 184.987 222.051 186.213 222.634C187.457 223.18 188.731 223.659 190.138 223.848C189.077 222.907 187.882 222.253 186.658 221.668ZM227.601 127.981C226.36 127.433 225.085 126.953 223.677 126.766C224.738 127.71 225.931 128.364 227.157 128.947C228.401 129.492 229.675 129.972 231.082 130.161C230.021 129.22 228.825 128.566 227.601 127.981ZM236.435 148.332C236.926 149.598 237.487 150.839 238.35 151.965C238.269 150.548 237.886 149.241 237.432 147.963C236.939 146.697 236.378 145.459 235.517 144.33C235.601 145.747 235.984 147.052 236.435 148.332ZM258.098 249.82C258.589 251.085 259.15 252.326 260.013 253.453C259.932 252.036 259.549 250.729 259.095 249.45C258.602 248.185 258.041 246.946 257.18 245.817C257.264 247.234 257.647 248.539 258.098 249.82ZM199.584 173.842C200.074 175.107 200.636 176.348 201.499 177.475C201.417 176.058 201.034 174.751 200.581 173.472C200.088 172.207 199.526 170.968 198.666 169.839C198.749 171.256 199.132 172.561 199.584 173.842ZM216.43 218.515C216.921 219.78 217.482 221.021 218.345 222.148C218.264 220.73 217.881 219.423 217.425 218.145C216.934 216.88 216.371 215.641 215.51 214.512C215.593 215.929 215.979 217.236 216.43 218.515ZM138.26 270.893C138.271 271.08 138.282 271.27 138.304 271.457H138.656C138.535 271.27 138.406 271.08 138.26 270.893ZM176.664 270.717C176.166 269.448 175.605 268.211 174.742 267.076C174.83 268.499 175.207 269.802 175.658 271.083C175.702 271.204 175.757 271.336 175.801 271.459H176.906C176.829 271.217 176.752 270.959 176.664 270.717ZM168.821 239.232C169.312 240.497 169.873 241.738 170.736 242.864C170.654 241.447 170.271 240.14 169.818 238.862C169.325 237.597 168.763 236.358 167.903 235.229C167.986 236.646 168.369 237.953 168.821 239.232ZM201.853 134.109C202.344 135.374 202.905 136.615 203.768 137.742C203.687 136.325 203.304 135.018 202.85 133.739C202.357 132.474 201.796 131.235 200.935 130.106C201.019 131.523 201.402 132.828 201.853 134.109ZM238.357 237.143C239.623 236.653 240.864 236.092 241.991 235.229C240.574 235.31 239.266 235.693 237.987 236.149C236.721 236.642 235.482 237.203 234.353 238.063C235.77 237.98 237.076 237.594 238.357 237.143ZM202.65 269.98C203.916 269.489 205.157 268.928 206.284 268.066C204.867 268.147 203.559 268.53 202.28 268.983C201.014 269.476 199.775 270.037 198.646 270.898C200.063 270.814 201.369 270.431 202.65 269.98ZM141.914 240.244C141.826 240.552 141.727 240.873 141.639 241.17C142.28 240.851 142.909 240.486 143.495 240.032C142.953 240.065 142.436 240.132 141.917 240.242L141.914 240.244ZM173.054 202.427C174.319 201.939 175.561 201.376 176.688 200.513C175.27 200.594 173.963 200.977 172.684 201.433C171.418 201.926 170.179 202.487 169.05 203.347C170.467 203.264 171.773 202.881 173.054 202.427ZM201.681 238.56C202.947 238.07 204.189 237.509 205.316 236.646C203.898 236.727 202.591 237.11 201.312 237.564C200.046 238.057 198.807 238.618 197.677 239.478C199.095 239.394 200.4 239.012 201.681 238.56ZM218.686 186.732C219.952 186.241 221.194 185.68 222.321 184.817C220.903 184.899 219.595 185.282 218.316 185.735C217.051 186.228 215.811 186.789 214.682 187.649C216.1 187.566 217.405 187.183 218.686 186.732ZM254.677 166.105C255.943 165.614 257.184 165.053 258.312 164.191C256.894 164.272 255.586 164.655 254.307 165.108C253.042 165.601 251.802 166.162 250.673 167.023C252.091 166.939 253.396 166.556 254.677 166.105ZM190.321 154.04C191.586 153.55 192.828 152.988 193.955 152.126C192.537 152.207 191.23 152.59 189.951 153.043C188.685 153.536 187.446 154.097 186.316 154.958C187.734 154.874 189.039 154.491 190.321 154.04Z" fill="black"/>
<path d="M89.7086 76.1872C89.4202 69.6366 90.7454 39.5063 92.9907 31.2019C95.236 22.8998 103.429 -0.525869 109.965 0.547934C116.5 1.62174 114.649 8.66967 114.649 8.66967C114.649 8.66967 119.677 -0.673297 126.155 1.00562C132.636 2.68454 129.395 13.5568 129.395 13.5568C129.395 13.5568 135.258 4.33705 141.602 6.47365C147.946 8.61026 142.856 18.9984 142.856 18.9984C142.856 18.9984 147.822 10.3178 152.309 14.2785C157.704 19.0402 146.739 34.0075 144.948 43.3592C144.54 45.4826 139.772 86.9913 139.772 86.9913L89.7064 76.1828L89.7086 76.1872Z" fill="#F7A9A0"/>
<path d="M143.279 18.1028C135.242 29.1291 133.633 35.3408 132.737 48.7414C132.719 49.0032 132.325 49.0362 132.319 48.7612C132 35.5587 132.893 27.4743 142.764 17.6847C143.246 17.205 143.662 17.5769 143.279 18.1028Z" fill="#263238"/>
<path d="M130.054 12.6961C122.706 24.8755 120.903 31.5999 118.933 45.5682C118.904 45.7662 118.567 45.7398 118.578 45.5373C119.364 31.6747 120.441 23.63 129.382 12.4233C129.785 11.9172 130.388 12.1394 130.054 12.6961Z" fill="#263238"/>
<path d="M114.572 9.38694C108.309 21.6939 106.013 28.9794 105.842 42.7848C105.837 43.1105 105.362 43.1347 105.335 42.809C104.14 28.7176 106.938 19.6013 114.178 9.23731C114.671 8.53097 114.966 8.61239 114.572 9.38694Z" fill="#263238"/>
<path d="M139.361 95.5639C139.361 95.5639 151.813 83.8488 156.148 77.494C160.482 71.1414 167.918 41.5217 161.611 39.5523C153.467 37.0108 145.804 53.2631 143.092 61.7149C143.092 61.7149 124.256 55.8178 116.23 66.2917C108.206 76.7679 139.361 95.5639 139.361 95.5639Z" fill="#F7A9A0"/>
<path d="M159.144 39.5877C150.044 42.6265 147.2 53.9498 143.955 61.9505C143.708 62.5579 143.132 62.5755 142.702 62.2938C134.643 60.3486 122.706 59.9504 116.159 65.7573C115.968 65.9267 115.699 65.678 115.869 65.4822C122.043 58.3023 133.805 57.7367 142.495 60.4323C145.694 52.1741 149.046 40.9432 159.117 39.4997C159.174 39.4909 159.203 39.5701 159.144 39.5877Z" fill="#263238"/>
<path d="M215.362 134.166C207.176 148.332 159.839 192.008 118.576 199.575C112.976 200.603 91.6591 196.099 87.1993 181.961C79.2571 156.784 85.61 104.806 89.6692 73.5356C90.4616 67.4273 147.211 79.9741 145.738 89.3082C144.109 99.6414 138.031 137.603 138.965 138.034C142.363 139.601 178.634 123.947 202.445 118.816C219.322 115.179 221.667 123.254 215.362 134.166Z" fill="#F7A9A0"/>
<path d="M81.6608 89.0002L146.323 102.995C146.323 102.995 140.444 136.023 141.602 135.832C142.76 135.64 188.121 119.102 205.619 117.366C223.117 115.63 223.117 123.316 214.24 137.75C205.362 152.185 147.252 200.52 118.618 200.506C104.043 200.5 90.477 191.168 87.8376 186.714C79.6246 172.86 81.663 88.998 81.663 88.998L81.6608 89.0002Z" fill="#455A64"/>
<path d="M81.6608 89.0002L146.323 102.995C146.323 102.995 140.444 136.023 141.602 135.832C142.76 135.64 188.121 119.102 205.619 117.366C223.117 115.63 223.117 123.316 214.24 137.75C205.362 152.185 147.252 200.52 118.618 200.506C104.043 200.5 90.477 191.168 87.8376 186.714C79.6246 172.86 81.663 88.998 81.663 88.998L81.6608 89.0002Z" fill="#2F61D6"/>
<path opacity="0.1" d="M174.335 135.022C173.789 136.263 173.302 137.539 173.115 138.943C174.066 137.887 174.718 136.692 175.297 135.473C175.843 134.219 176.329 132.956 176.516 131.541C175.576 132.608 174.927 133.803 174.335 135.022ZM122.942 192.719C122.396 193.96 121.92 195.236 121.735 196.64C122.675 195.584 123.325 194.389 123.917 193.159C124.463 191.918 124.938 190.642 125.123 189.238C124.183 190.305 123.534 191.5 122.942 192.719ZM84.8616 153.156C84.3047 154.397 83.8292 155.673 83.6421 157.077C84.582 156.02 85.2446 154.826 85.8236 153.596C86.3695 152.355 86.8449 151.078 87.0431 149.674C86.1031 150.742 85.4405 151.936 84.8616 153.156ZM141.164 153.318C140.607 154.559 140.131 155.836 139.944 157.24C140.884 156.183 141.547 154.988 142.126 153.758C142.672 152.517 143.147 151.241 143.345 149.837C142.394 150.905 141.743 152.099 141.164 153.318ZM112.833 169.619C112.287 170.86 111.801 172.136 111.614 173.54C112.565 172.484 113.216 171.289 113.795 170.059C114.341 168.818 114.828 167.542 115.015 166.138C114.075 167.194 113.412 168.389 112.833 169.619ZM115.33 129.882C114.784 131.123 114.308 132.399 114.123 133.803C115.063 132.747 115.713 131.552 116.305 130.322C116.851 129.081 117.326 127.805 117.511 126.401C116.571 127.457 115.922 128.652 115.33 129.882ZM86.5566 100.343C86.0107 101.584 85.5352 102.861 85.3371 104.264C86.288 103.208 86.9396 102.013 87.5185 100.794C88.0645 99.5424 88.5509 98.2772 88.7381 96.8623C87.7981 97.9295 87.1487 99.1243 86.5566 100.343ZM202.852 133.732C202.366 132.467 201.796 131.226 200.937 130.102C201.019 131.517 201.402 132.828 201.855 134.104C202.355 135.37 202.912 136.611 203.77 137.735C203.689 136.32 203.304 135.009 202.852 133.732ZM164.552 160.151C164.053 158.885 163.496 157.644 162.637 156.52C162.719 157.935 163.102 159.246 163.555 160.523C164.042 161.788 164.601 163.029 165.47 164.153C165.389 162.738 165.004 161.438 164.552 160.151ZM135.793 130.381C135.306 129.116 134.736 127.886 133.878 126.751C133.97 128.165 134.342 129.477 134.795 130.753C135.295 132.018 135.852 133.259 136.711 134.384C136.629 132.969 136.246 131.668 135.793 130.381ZM132.068 173.47C131.582 172.205 131.011 170.963 130.153 169.839C130.234 171.254 130.617 172.565 131.071 173.842C131.571 175.107 132.127 176.348 132.986 177.472C132.905 176.057 132.522 174.746 132.068 173.47ZM95.1834 168.818C94.6969 167.553 94.1268 166.312 93.2683 165.187C93.3497 166.602 93.7328 167.903 94.184 169.19C94.6705 170.455 95.2406 171.696 96.0991 172.821C96.0177 171.406 95.6347 170.094 95.1834 168.818ZM106.813 107.908C106.326 106.643 105.756 105.402 104.898 104.264C104.979 105.693 105.362 106.991 105.813 108.278C106.313 109.543 106.87 110.773 107.729 111.909C107.647 110.494 107.264 109.185 106.813 107.908ZM102.461 142.47C101.961 141.194 101.404 139.964 100.546 138.826C100.627 140.241 101.01 141.553 101.461 142.829C101.948 144.105 102.518 145.335 103.377 146.473C103.295 145.047 102.912 143.747 102.461 142.47ZM189.962 153.039C188.696 153.538 187.455 154.095 186.33 154.953C187.745 154.872 189.046 154.489 190.334 154.038C191.6 153.549 192.841 152.982 193.966 152.124C192.55 152.205 191.238 152.586 189.962 153.039ZM121.553 151.461C120.287 151.961 119.045 152.517 117.92 153.376C119.336 153.294 120.637 152.911 121.925 152.46C123.19 151.972 124.432 151.404 125.557 150.546C124.141 150.627 122.829 151.008 121.553 151.461ZM128.005 110.844C126.739 111.343 125.497 111.9 124.372 112.758C125.788 112.677 127.089 112.294 128.377 111.841C129.642 111.354 130.884 110.795 132.009 109.926C130.593 110.008 129.281 110.39 128.005 110.844ZM91.2937 123.595C90.028 124.081 88.7865 124.651 87.6616 125.51C89.0771 125.428 90.389 125.045 91.6658 124.592C92.9315 124.106 94.173 123.536 95.2979 122.678C93.8824 122.759 92.5815 123.144 91.2937 123.595ZM152.344 178.694C151.078 179.193 149.837 179.75 148.712 180.608C150.127 180.527 151.428 180.144 152.716 179.69C153.982 179.204 155.223 178.634 156.348 177.776C154.933 177.857 153.621 178.24 152.344 178.694ZM103.192 189.436C101.926 189.922 100.684 190.492 99.5596 191.35C100.975 191.269 102.287 190.886 103.564 190.435C104.829 189.949 106.071 189.379 107.196 188.521C105.78 188.602 104.468 188.983 103.192 189.436ZM156.163 134.745C154.898 135.244 153.656 135.801 152.531 136.659C153.947 136.578 155.248 136.195 156.535 135.741C157.801 135.255 159.043 134.696 160.167 133.827C158.752 133.908 157.44 134.291 156.163 134.745Z" fill="black"/>
<path d="M142.101 136.12C141.745 141.071 140.609 145.929 139.533 150.744C138.441 155.627 136.915 160.362 135.469 165.137C135.436 165.245 135.271 165.185 135.297 165.077C136.541 160.276 137.441 155.376 138.505 150.528C139.563 145.696 140.301 140.783 141.54 136.001C141.619 135.693 142.121 135.807 142.099 136.122L142.101 136.12Z" fill="#263238"/>
<path d="M142.522 115.183C135.033 113.321 127.452 111.86 119.866 110.419C112.274 108.978 104.684 107.521 97.0566 106.269C92.7465 105.563 88.4386 104.828 84.1042 104.271C83.9898 104.256 83.9369 104.443 84.0536 104.471C91.5291 106.333 99.1126 107.827 106.676 109.316C114.257 110.808 121.863 112.221 129.475 113.563C133.776 114.32 138.093 115.002 142.427 115.561C142.641 115.59 142.744 115.24 142.524 115.185L142.522 115.183Z" fill="#263238"/>
<path d="M163.868 181.21C165.063 180.156 166.377 179.263 167.627 178.279C168.838 177.324 170.062 176.383 171.286 175.441C173.776 173.524 176.278 171.621 178.766 169.698C183.747 165.847 188.634 161.875 193.567 157.963C196.38 155.732 199.163 153.47 201.926 151.177C202.038 151.082 202.194 151.241 202.084 151.344C198.692 154.533 195.262 157.697 191.731 160.738C192.176 160.524 192.623 160.313 193.065 160.091C194.417 159.415 195.747 158.687 197.069 157.956C197.186 157.893 197.27 158.06 197.166 158.132C195.929 159.017 194.639 159.798 193.301 160.518C192.645 160.87 191.978 161.202 191.302 161.514C190.976 161.664 190.653 161.812 190.318 161.939C190.312 161.941 190.303 161.946 190.296 161.948C189.495 162.626 188.696 163.306 187.884 163.968C183.003 167.938 178.015 171.771 172.919 175.461C171.513 176.48 170.091 177.481 168.638 178.436C167.108 179.441 165.633 180.541 164.028 181.426C163.898 181.499 163.755 181.314 163.872 181.213L163.868 181.21Z" fill="#263238"/>
<path d="M228.066 150.874L235.612 139.39L242.724 149.043L239.816 157.578L231.753 157.748L228.066 150.874Z" fill="#263238"/>
<path d="M231.753 157.748L218.371 246.728L231.966 278.082L244.23 245.744L239.816 157.578L231.753 157.748Z" fill="#263238"/>
<path d="M238.324 138.558C230.463 140.468 216.875 128.529 211.477 118.816C211.112 118.149 212.091 111.099 212.877 102.478C213.333 97.2431 213.718 91.4054 213.685 86.0518L247.323 93.9953C247.323 93.9953 244.091 105.237 244.208 114.569C244.226 115.35 244.307 116.074 244.452 116.765C244.463 116.866 244.494 116.987 244.503 117.128C245.209 121.296 245.92 136.705 238.324 138.556V138.558Z" fill="#F7A9A0"/>
<path d="M216.051 86.6216C217.07 93.7047 221.88 117.02 241.049 117.331C242.302 117.359 243.459 117.293 244.507 117.126C244.487 116.985 244.463 116.877 244.459 116.772C244.307 116.076 244.228 115.352 244.208 114.565C244.091 105.244 247.318 93.9952 247.318 93.9952L216.051 86.6216Z" fill="#263238"/>
<path d="M205.93 48.5213C203.361 60.7006 212.663 94.4 221.779 101.292C234.993 111.279 255.113 110.564 263.22 95.0315C271.079 79.9763 258.177 36.2716 248.137 30.1655C233.349 21.1724 209.723 30.5308 205.93 48.5213Z" fill="#F7A9A0"/>
<path d="M235.955 68.5055C235.913 68.4241 235.806 68.6617 235.836 68.7541C236.523 71.0074 236.93 73.7051 235.079 75.0143C235.022 75.0539 235.059 75.1683 235.132 75.1375C237.547 74.1055 236.97 70.5299 235.955 68.5055Z" fill="#263238"/>
<path d="M233.281 66.6816C229.55 67.3923 231.247 74.8033 234.705 74.1432C238.108 73.4941 236.409 66.0853 233.281 66.6816Z" fill="#263238"/>
<path d="M249.645 65.0882C249.643 64.9958 249.85 65.1565 249.867 65.2511C250.321 67.5637 251.23 70.1338 253.482 70.4198C253.552 70.4287 253.572 70.5453 253.493 70.5519C250.878 70.7763 249.704 67.3503 249.645 65.0882Z" fill="#263238"/>
<path d="M251.146 62.2212C254.774 61.0946 256.762 68.433 253.4 69.476C250.092 70.5036 248.104 63.1652 251.146 62.2212Z" fill="#263238"/>
<path d="M229.58 63.9644C230.531 63.4781 231.328 62.873 232.22 62.2965C233.226 61.6452 234.093 61.2293 234.586 60.0829C234.85 59.4668 234.474 58.5558 233.899 58.2433C232.561 57.515 231.132 58.0057 229.889 58.7406C228.541 59.5372 227.705 60.4966 227.166 61.9642C226.642 63.3857 228.326 64.6025 229.58 63.9644Z" fill="#A6A6A6"/>
<path d="M253.158 57.8338C252.093 57.9021 251.098 57.7876 250.037 57.7458C248.839 57.6996 247.882 57.7832 246.872 57.0483C246.33 56.6544 246.189 55.6796 246.524 55.1163C247.301 53.8071 248.782 53.5012 250.226 53.499C251.794 53.499 253 53.8951 254.215 54.8809C255.391 55.8359 254.563 57.7436 253.158 57.8338Z" fill="#A6A6A6"/>
<path d="M239.446 89.6784C240.12 90.0899 240.838 90.7038 241.687 90.5828C242.502 90.4662 243.356 89.8918 244.023 89.4408C244.089 89.3968 244.179 89.4562 244.148 89.5354C243.754 90.5542 242.627 91.3925 241.52 91.4497C240.439 91.507 239.719 90.7258 239.248 89.8324C239.182 89.707 239.347 89.619 239.446 89.6784Z" fill="#263238"/>
<path d="M240.285 82.2518C242.026 83.9505 244.166 84.6062 246.301 84.5336C247.257 84.5072 248.223 84.3201 249.143 84.0187C249.326 83.9725 249.506 83.9087 249.665 83.8339C249.828 83.7744 249.975 83.7216 250.149 83.6424C250.409 83.5412 250.506 83.2859 250.493 83.0241L250.488 83.0065C250.466 82.9229 250.451 82.8569 250.411 82.7777L250.407 82.7601L250.356 82.5598C249.999 80.7819 249.211 78.1348 249.211 78.1348C249.931 78.3108 253.565 79.037 253.301 78.1238C251.091 70.5852 248.637 62.2016 244.844 55.1668C244.732 54.9292 244.36 55.0744 244.439 55.3209C246.275 62.6505 249.387 69.606 251.351 76.94C250.209 76.7815 248.324 76.4361 247.404 76.6649C247.169 76.7947 249.018 81.7567 249.115 82.5664C249.115 82.5664 249.123 82.5994 249.119 82.6544C246.235 83.715 243.792 83.33 240.45 81.9965C240.25 81.9041 240.105 82.1021 240.285 82.2518Z" fill="#263238"/>
<path d="M247.906 83.6555C247.906 83.6555 246.715 86.0781 244.69 87.2444C243.944 87.6756 243.105 87.9463 242.161 87.8715C240.221 87.724 239.865 86.0341 239.94 84.5202C239.997 83.2748 240.362 82.146 240.362 82.146C240.362 82.146 243.525 84.1792 247.906 83.6555Z" fill="#263238"/>
<path d="M244.69 87.2421C243.944 87.6734 243.105 87.944 242.161 87.8692C240.221 87.7218 239.865 86.0319 239.94 84.518C241.96 84.3595 244.17 85.3453 244.69 87.2421Z" fill="#FF9CBD"/>
<g opacity="0.2">
<path d="M239.502 52.6982C240.721 52.5574 241.947 52.4737 243.14 52.1635C244.347 51.851 245.476 51.3053 246.691 51.0193C248.996 50.478 251.292 50.6958 253.707 50.9797C253.911 51.0039 253.907 51.1337 253.7 51.1161C251.228 50.9026 248.745 50.8872 246.374 51.719C244.386 52.4143 242.579 52.9864 240.466 53.1361C235.808 53.4661 231.284 54.3859 227.586 57.4247C227.562 57.4445 227.529 57.4093 227.553 57.3895C230.875 54.5333 235.209 53.1955 239.502 52.6982Z" fill="black"/>
<path d="M238.718 49.5052C239.874 49.3709 241.036 49.2917 242.167 48.9991C243.312 48.702 244.382 48.1849 245.535 47.9143C247.721 47.3994 249.896 47.6062 252.188 47.8769C252.381 47.8989 252.377 48.0243 252.183 48.0067C249.841 47.8042 247.486 47.791 245.238 48.5788C243.354 49.2389 241.641 49.7802 239.636 49.9232C235.22 50.2357 230.93 51.1071 227.423 53.9896C227.401 54.0072 227.37 53.9764 227.392 53.9566C230.542 51.2501 234.65 49.9783 238.72 49.5074L238.718 49.5052Z" fill="black"/>
</g>
<path d="M209.274 77.565C209.274 77.565 197.488 58.1375 198.578 46.9044C199.071 41.8258 205.991 38.3998 205.991 38.3998C205.991 38.3998 203.918 32.2232 209.613 26.8564C215.613 21.1992 230.164 22.4578 230.164 22.4578C230.164 22.4578 239.585 8.82842 252.932 14.2216C266.278 19.6149 257.596 34.7383 257.596 34.7383C257.596 34.7383 262.498 41.6806 250.543 47.1178C238.903 52.412 215.094 47.2279 215.094 47.2279C215.094 47.2279 217.024 59.4204 214.742 71.8725C213.896 76.4868 209.278 77.565 209.278 77.565H209.274Z" fill="#A6A6A6"/>
<path d="M232.466 22.6334C229.519 21.3571 226.283 20.9193 223.08 20.9259C220.24 20.9325 217.31 21.2867 214.627 22.2527C209.83 23.98 205.564 27.5161 204.761 32.7861C204.356 35.4354 205.038 38.0231 206.63 40.1663C206.694 40.2543 206.823 40.1333 206.753 40.0475C203.662 36.2319 205.283 30.293 208.468 27.0936C212.071 23.4739 217.583 22.1009 222.543 21.8874C225.862 21.7444 229.138 22.2703 232.38 22.9172C232.572 22.9546 232.642 22.7082 232.466 22.6312V22.6334Z" fill="#A6A6A6"/>
<path d="M262.478 20.6532C261.367 16.9213 258.164 14.5229 254.567 13.3786C250.468 12.0738 245.949 12.3224 241.936 13.8275C237.848 15.3612 234.346 18.1139 231.61 21.4894C231.55 21.5642 231.678 21.6698 231.742 21.5972C236.756 15.6627 244.606 12.2784 252.364 13.9133C255.833 14.6439 259.304 16.4306 260.911 19.74C262.39 22.7832 262.073 26.656 260.618 29.6441C258.82 33.3386 255.487 36.1331 252.047 38.2455C251.967 38.294 252.033 38.4172 252.117 38.3732C255.452 36.5754 258.576 34.2958 260.66 31.0744C262.628 28.0334 263.531 24.1871 262.478 20.6532Z" fill="#A6A6A6"/>
<path d="M215.73 75.7913C215.73 75.7913 206.793 65.5769 202.073 68.8819C197.354 72.1848 204.917 87.5789 211.048 89.128C217.178 90.6793 218.726 85.033 218.726 85.033L215.73 75.7913Z" fill="#F7A9A0"/>
<path d="M204.352 73.2388C204.257 73.2388 204.252 73.3753 204.338 73.3995C208.651 74.6229 211.244 78.2162 213.201 82.0185C211.805 80.6234 210.042 79.9699 208.153 81.6532C208.054 81.7412 208.175 81.8997 208.29 81.8623C209.943 81.3166 211.195 81.4772 212.485 82.7072C213.399 83.5786 214.086 84.7316 214.786 85.7746C215.019 86.1223 215.664 85.8516 215.477 85.4423C215.464 85.4115 215.448 85.3807 215.433 85.3499C214.964 80.0733 210.066 73.1508 204.354 73.2366L204.352 73.2388Z" fill="#263238"/>
<path d="M235.295 80.4888C230.701 81.0983 226.089 78.5524 224.288 74.0592C222.158 68.7452 224.749 62.6896 230.065 60.5596C235.381 58.4296 241.439 61.0195 243.569 66.3335C245.698 71.6475 243.109 77.7031 237.793 79.8331C236.972 80.1609 236.136 80.3788 235.295 80.4888ZM232.744 61.2792C232.017 61.376 231.291 61.563 230.582 61.8469C225.977 63.6908 223.732 68.9388 225.576 73.5421C227.423 78.1432 232.673 80.392 237.276 78.5436C241.881 76.6975 244.124 71.4517 242.282 66.8484C240.721 62.9559 236.726 60.7511 232.744 61.2792Z" fill="#455A64"/>
<path d="M258.364 74.4972C254.426 75.0209 250.317 71.4606 248.98 66.2104C248.307 63.5611 248.426 60.87 249.319 58.6344C250.239 56.3217 251.873 54.7617 253.916 54.2424C255.965 53.7165 258.138 54.315 260.053 55.9059C261.904 57.4462 263.293 59.7522 263.967 62.3993C265.375 67.9465 263.163 73.3156 259.031 74.3652C258.809 74.4202 258.587 74.4642 258.362 74.4928L258.364 74.4972ZM254.776 55.49C254.602 55.5142 254.431 55.545 254.259 55.589C252.659 55.9961 251.362 57.2591 250.607 59.1471C249.826 61.1121 249.724 63.4995 250.325 65.865C251.549 70.6707 255.289 73.8877 258.69 73.0185C262.08 72.1581 263.843 67.5461 262.624 62.7404C262.023 60.3727 260.795 58.3241 259.166 56.9709C257.77 55.8091 256.231 55.2942 254.776 55.4856V55.49Z" fill="#455A64"/>
<path d="M243.528 67.5814L242.401 66.7695C243.6 65.1016 246.693 62.4809 249.821 64.4855L249.071 65.6539C246.273 63.8539 243.64 67.4296 243.528 67.5814Z" fill="#455A64"/>
<path d="M199.335 81.5627L197.983 81.2481C198.131 80.6166 199.498 75.0517 202.379 73.8019C205.073 72.6401 223.542 69.7487 224.326 69.6255L224.539 70.9963C219.243 71.8193 205.012 74.1715 202.932 75.0737C201.03 75.8989 199.691 80.0379 199.335 81.5627Z" fill="#455A64"/>
<path d="M244.479 116.4L235.077 135.68L212.259 109.02L204.754 116.554C204.754 116.554 226.025 157.88 226.301 156.097L235.608 139.645L246.541 152.289L247.631 122.508L244.479 116.4Z" fill="#EBEBEB"/>
<path d="M247.915 137.599C247.93 132.676 248.082 127.719 247.871 122.801C247.864 122.627 247.598 122.53 247.541 122.731C246.233 127.395 246.275 146.222 245.945 150.713C245.929 150.696 245.912 150.676 245.896 150.658C245.441 150.113 235.724 139.496 235.612 139.645C233.662 142.224 226.838 154.203 226.351 155.303C222.99 148.742 210.018 124.83 205.937 118.563C205.82 118.383 205.545 118.506 205.631 118.713C208.525 125.598 225.653 157.774 225.955 157.708C226.147 157.878 234.617 143.128 235.702 140.307C237.314 142.587 247.039 154.483 247.125 153.756C247.704 148.856 247.9 142.532 247.917 137.603L247.915 137.599Z" fill="#263238"/>
<path d="M333.868 263.218C325.794 274.763 303.81 276.964 248.98 287.702C241.392 289.187 216.5 238.485 224.52 236.483C234.621 233.961 274.374 226.359 277.35 226.169C302.46 224.576 339.345 255.387 333.868 263.218Z" fill="#F7A9A0"/>
<path d="M235.488 233.983C235.488 233.983 212.261 237.493 200.627 243.113C185.051 250.638 174.7 263.546 170.689 269.216C162.318 281.054 150.266 315.46 159.573 320.66C167.999 325.366 178.541 289.574 178.541 289.574C178.541 289.574 161.768 324.295 172.957 328.097C184.144 331.899 194.019 289.654 194.019 289.654C194.019 289.654 177.586 325.714 189.741 327.809C198.93 329.393 210.028 291.634 210.028 291.634C210.028 291.634 196.119 322.726 205.496 324.761C215.86 327.012 228.292 292.8 228.292 292.8C253.002 293.964 265.245 284.414 273.144 276.585C275.056 274.691 235.488 233.983 235.488 233.983Z" fill="#F7A9A0"/>
<path d="M183.573 277.193C181.456 281.2 179.285 285.242 177.531 289.423C175.777 293.603 174.167 297.85 172.809 302.176C169.481 312.787 169.056 319.951 169.131 319.511C170.892 309.112 176.939 294.046 178.695 289.863C180.445 285.691 181.986 281.429 183.736 277.252C183.78 277.147 183.626 277.096 183.576 277.191L183.573 277.193Z" fill="#263238"/>
<path d="M198.795 283.25C196.312 288.485 193.655 293.588 191.403 298.935C189.163 304.253 187.501 309.497 185.632 314.954C185.489 315.374 185.762 315.313 185.922 314.897C188.007 309.517 190.351 304.705 192.5 299.349C194.642 294.013 196.59 288.551 198.923 283.299C198.96 283.217 198.835 283.171 198.795 283.25Z" fill="#263238"/>
<path d="M212.793 286.102C208.589 293.907 205.831 302.476 203.325 310.947C203.2 311.37 203.546 311.251 203.698 310.828C206.689 302.511 208.976 295.962 213.066 286.248C213.13 286.096 212.883 285.937 212.793 286.102Z" fill="#263238"/>
<path d="M230.641 233.983L278.682 287.458C278.682 287.458 327.258 276.31 334.416 263.856C339.127 255.659 302.557 222.455 274.946 226.326L230.641 233.983Z" fill="#2F61D6"/>
<path opacity="0.1" d="M273.3 267.348C273.11 268.754 272.631 270.028 272.085 271.272C271.501 272.497 270.848 273.692 269.903 274.75C270.09 273.342 270.57 272.07 271.118 270.827C271.704 269.601 272.358 268.409 273.3 267.348ZM306.673 264.351C306.125 265.592 305.645 266.866 305.458 268.275C306.403 267.214 307.056 266.021 307.64 264.794C308.186 263.55 308.666 262.276 308.855 260.87C307.913 261.931 307.259 263.128 306.673 264.351ZM282.871 253.123C281.629 252.572 280.355 252.095 278.946 251.906C280.007 252.85 281.2 253.503 282.429 254.086C283.672 254.632 284.945 255.112 286.353 255.301C285.292 254.359 284.097 253.706 282.873 253.12L282.871 253.123ZM306.658 238.397C307.149 239.663 307.71 240.904 308.573 242.03C308.492 240.613 308.109 239.306 307.655 238.028C307.162 236.762 306.601 235.524 305.74 234.395C305.824 235.812 306.207 237.117 306.658 238.397ZM257.966 249.972C258.457 251.237 259.018 252.478 259.881 253.604C259.799 252.187 259.416 250.88 258.963 249.602C258.47 248.337 257.908 247.098 257.048 245.969C257.131 247.386 257.514 248.691 257.966 249.972ZM238.227 237.295C239.493 236.804 240.734 236.243 241.861 235.381C240.443 235.462 239.136 235.845 237.857 236.3C236.591 236.793 235.352 237.354 234.223 238.215C235.64 238.131 236.946 237.746 238.227 237.295ZM279.133 232.87C280.399 232.381 281.64 231.818 282.767 230.956C281.35 231.037 280.042 231.42 278.763 231.873C277.498 232.366 276.258 232.927 275.129 233.788C276.547 233.704 277.852 233.323 279.133 232.87ZM294.265 279.886C295.531 279.396 296.772 278.834 297.899 277.972C296.481 278.053 295.174 278.436 293.895 278.889C292.629 279.382 291.39 279.943 290.261 280.804C291.678 280.72 292.984 280.337 294.265 279.886ZM330.379 253.222C329.386 253.387 328.435 253.686 327.498 254.016C326.227 254.513 324.99 255.077 323.854 255.937C325.279 255.849 326.582 255.462 327.863 255.011C328.845 254.636 329.807 254.216 330.711 253.642C330.601 253.51 330.489 253.367 330.379 253.222Z" fill="black"/>
<path d="M307.884 235.024C303.431 231.798 290.895 224.279 274.907 226.282C274.766 226.299 274.761 226.528 274.907 226.524C286.961 226.185 303.226 232.483 307.778 235.222C307.897 235.295 307.996 235.105 307.884 235.024Z" fill="#263238"/>
<path d="M291.817 278.504C286.849 272.341 281.559 266.451 276.25 260.575C270.938 254.696 265.637 248.801 260.18 243.054C257.096 239.806 254.03 236.538 250.834 233.398C250.75 233.315 250.591 233.436 250.668 233.53C255.626 239.685 260.898 245.604 266.159 251.505C271.431 257.422 276.771 263.286 282.16 269.098C285.207 272.381 288.31 275.611 291.507 278.753C291.665 278.909 291.962 278.685 291.817 278.504Z" fill="#263238"/>
<path d="M230.555 233.289C233.487 232.318 236.525 231.808 239.559 231.24C242.59 230.672 245.632 230.155 248.676 229.667C254.732 228.696 267.455 225.948 278.64 225.979C278.763 225.979 278.129 226.579 278.008 226.573C272.683 226.285 234.524 233.874 231.39 234.096C231.513 234.301 231.632 234.505 231.726 234.732C231.79 234.886 231.636 235.086 231.471 234.974C231.079 234.71 230.8 234.38 230.43 234.09C230.126 233.852 230.174 233.414 230.555 233.289Z" fill="#263238"/>
</g>
<defs>
<clipPath id="clip0_378_430">
<rect width="687" height="694" fill="white"/>
</clipPath>
</defs>
</svg>
