<svg width="41" height="41" viewBox="0 0 41 41" fill="none" xmlns="http://www.w3.org/2000/svg">
<path fill-rule="evenodd" clip-rule="evenodd" d="M7.35354 6.46763C7.33131 6.46639 7.30939 6.46993 7.28972 6.47746C7.27054 6.48481 7.25236 6.49636 7.23646 6.5122C5.68551 8.0722 4.65819 10.076 4.29704 12.2458C3.93605 14.4147 4.25847 16.6421 5.21949 18.6197C7.07398 22.3819 9.54364 25.8082 12.5266 28.757L12.5404 28.7707C15.4978 31.754 18.9311 34.2243 22.6997 36.0802C24.6738 37.0421 26.8989 37.3636 29.0647 36.9998C31.2318 36.6357 33.231 35.6036 34.7828 34.0478L36.1428 35.4044L34.7788 34.0518C34.7933 34.0372 34.8052 34.0191 34.8132 33.9976C34.8213 33.9763 34.8243 33.9545 34.823 33.934C34.8217 33.9127 34.8159 33.8916 34.8057 33.8721C34.7956 33.853 34.7815 33.8361 34.7644 33.8226L34.7446 33.807L30.0032 29.9831C29.6209 29.6954 29.1586 29.5337 28.68 29.5207C28.1946 29.5076 27.7172 29.6481 27.3165 29.9221C27.2939 29.9375 27.2711 29.9525 27.2479 29.9669L26.2365 30.5968C25.1915 31.2573 23.9692 31.582 22.734 31.5267C21.4962 31.4714 20.3047 31.0373 19.3214 30.2829L19.3177 30.28C17.9144 29.1979 16.5836 28.0255 15.3334 26.7705C15.1799 26.6853 15.0362 26.5779 14.9073 26.4489C13.4992 25.0402 12.19 23.5361 10.9888 21.9475L10.9847 21.942C10.2443 20.9555 9.82109 19.7674 9.77099 18.535C9.72091 17.3029 10.0459 16.0843 10.704 15.0407L10.7106 15.0302L11.4521 13.8709C11.6923 13.4803 11.8073 13.0255 11.7815 12.5678C11.7557 12.1092 11.5896 11.6689 11.3055 11.3068L7.46486 6.52531C7.45091 6.50777 7.43406 6.49409 7.41549 6.48448C7.3965 6.47466 7.37546 6.46886 7.35354 6.46763ZM17.1359 23.2367C17.3016 23.3281 17.4559 23.4453 17.5925 23.5875C18.8566 24.9028 20.2164 26.1225 21.6609 27.2366C22.0194 27.5112 22.454 27.6695 22.9055 27.6896C23.3574 27.7099 23.8047 27.5908 24.1868 27.3485L24.1999 27.3402L25.1857 26.7263C26.2468 26.0121 27.505 25.6465 28.7842 25.6812C30.0784 25.7164 31.3283 26.1593 32.3558 26.9468C32.3684 26.9565 32.3808 26.9662 32.3931 26.9762L37.1476 30.8105C37.5856 31.1569 37.9463 31.5915 38.206 32.086C38.4679 32.5846 38.6216 33.1332 38.6566 33.6959C38.6916 34.2595 38.6064 34.8229 38.4085 35.3492C38.2106 35.8756 37.9037 36.3554 37.5061 36.7563L36.1428 35.4044L37.5022 36.7603C35.3851 38.8829 32.6575 40.2909 29.7011 40.7876C26.7446 41.2843 23.707 40.8449 21.0125 39.5307L21.006 39.5276C16.8568 37.4846 13.0762 34.7655 9.81941 31.4817C9.82172 31.484 9.82403 31.4863 9.82634 31.4885L11.1765 30.1228L9.81257 31.4748C9.81485 31.4771 9.81713 31.4794 9.81941 31.4817C6.53416 28.2325 3.8143 24.4577 1.77194 20.313L1.76766 20.3043C0.456329 17.6088 0.0160712 14.5722 0.508233 11.6152C1.00039 8.6583 2.40055 5.92788 4.51427 3.80252L5.87595 5.15673L4.51583 3.80095C4.91276 3.40275 5.38974 3.09204 5.91664 2.89035C6.44319 2.6888 7.00618 2.60129 7.56792 2.6327C8.12996 2.66411 8.67927 2.81391 9.17981 3.07276C9.67923 3.33103 10.1175 3.69145 10.4672 4.12976L14.3159 8.92136C15.0915 9.90364 15.5461 11.1016 15.6164 12.3522C15.6867 13.6024 15.3696 14.8438 14.7089 15.9071L14.6957 15.9284L13.9501 17.0938C13.7094 17.4775 13.5903 17.9255 13.6087 18.379C13.6272 18.8329 13.7828 19.2705 14.0549 19.6341C15.009 20.8957 16.0379 22.0988 17.1359 23.2367Z" fill="#ffffff"/>
<path fill-rule="evenodd" clip-rule="evenodd" d="M23.2944 8.8252C25.6833 8.8252 27.9741 9.77428 29.6631 11.4633C31.3522 13.1524 32.3013 15.4433 32.3013 17.8322H28.4604C28.4604 16.4621 27.9161 15.1482 26.9472 14.1793C25.9783 13.2104 24.6645 12.6661 23.2944 12.6661V8.8252Z" fill="#ffffff"/>
<path fill-rule="evenodd" clip-rule="evenodd" d="M23.2944 0.547363C27.8785 0.547363 32.2746 2.36837 35.516 5.60977C38.7573 8.85113 40.5786 13.2474 40.5786 17.8315H36.7377C36.7377 14.2662 35.3212 10.8469 32.8 8.32571C30.2789 5.8046 26.8598 4.38829 23.2944 4.38829V0.547363Z" fill="#ffffff"/>
</svg>
