<svg width="877" height="947" viewBox="0 0 877 947" fill="none" xmlns="http://www.w3.org/2000/svg">
<path d="M111 0V947" stroke="url(#paint0_linear_370_119)" stroke-width="2"/>
<path d="M161 0V947" stroke="url(#paint1_linear_370_119)" stroke-width="2"/>
<path d="M210.5 0V947" stroke="url(#paint2_linear_370_119)" stroke-width="2"/>
<path d="M260 0V947" stroke="url(#paint3_linear_370_119)" stroke-width="2"/>
<path d="M309.5 0V947" stroke="url(#paint4_linear_370_119)" stroke-width="2"/>
<path d="M359 0V947" stroke="url(#paint5_linear_370_119)" stroke-width="2"/>
<path d="M408.5 0V947" stroke="url(#paint6_linear_370_119)" stroke-width="2"/>
<path d="M458 0V947" stroke="url(#paint7_linear_370_119)" stroke-width="2"/>
<path d="M507.5 0V947" stroke="url(#paint8_linear_370_119)" stroke-width="2"/>
<path d="M557 0V947" stroke="url(#paint9_linear_370_119)" stroke-width="2"/>
<path d="M606.5 0V947" stroke="url(#paint10_linear_370_119)" stroke-width="2"/>
<path d="M656 0V947" stroke="url(#paint11_linear_370_119)" stroke-width="2"/>
<path d="M705.5 0V947" stroke="url(#paint12_linear_370_119)" stroke-width="2"/>
<path d="M755 0V947" stroke="url(#paint13_linear_370_119)" stroke-width="2"/>
<path d="M0 856.5L877 856.5" stroke="url(#paint14_linear_370_119)" stroke-width="2"/>
<path d="M0 806.5L877 806.5" stroke="url(#paint15_linear_370_119)" stroke-width="2"/>
<path d="M0 757L877 757" stroke="url(#paint16_linear_370_119)" stroke-width="2"/>
<path d="M0 707.5L877 707.5" stroke="url(#paint17_linear_370_119)" stroke-width="2"/>
<path d="M0 658L877 658" stroke="url(#paint18_linear_370_119)" stroke-width="2"/>
<path d="M0 608.5L877 608.5" stroke="url(#paint19_linear_370_119)" stroke-width="2"/>
<path d="M0 559L877 559" stroke="url(#paint20_linear_370_119)" stroke-width="2"/>
<path d="M0 509.5L877 509.5" stroke="url(#paint21_linear_370_119)" stroke-width="2"/>
<path d="M0 460L877 460" stroke="url(#paint22_linear_370_119)" stroke-width="2"/>
<path d="M0 410.5L877 410.5" stroke="url(#paint23_linear_370_119)" stroke-width="2"/>
<path d="M0 361L877 361" stroke="url(#paint24_linear_370_119)" stroke-width="2"/>
<path d="M0 311.5L877 311.5" stroke="url(#paint25_linear_370_119)" stroke-width="2"/>
<path d="M0 262L877 262" stroke="url(#paint26_linear_370_119)" stroke-width="2"/>
<path d="M0 212.5L877 212.5" stroke="url(#paint27_linear_370_119)" stroke-width="2"/>
<path d="M0 163L877 163" stroke="url(#paint28_linear_370_119)" stroke-width="2"/>
<path d="M0 113.5L877 113.5" stroke="url(#paint29_linear_370_119)" stroke-width="2"/>
<path d="M0 64L877 64" stroke="url(#paint30_linear_370_119)" stroke-width="2"/>
<path d="M382.571 830.369H390.569V841.121C389.446 841.492 388.284 841.78 387.083 841.985C385.882 842.19 384.534 842.293 383.04 842.293C380.862 842.293 379.017 841.863 377.503 841.004C375.999 840.135 374.856 838.88 374.075 837.239C373.294 835.589 372.903 833.602 372.903 831.277C372.903 829.041 373.338 827.103 374.207 825.462C375.076 823.812 376.341 822.537 378.001 821.639C379.661 820.73 381.673 820.276 384.036 820.276C385.198 820.276 386.321 820.394 387.405 820.628C388.499 820.853 389.5 821.165 390.408 821.565L389.178 824.466C388.455 824.124 387.645 823.836 386.746 823.602C385.848 823.367 384.915 823.25 383.948 823.25C382.415 823.25 381.092 823.582 379.979 824.246C378.875 824.91 378.025 825.848 377.43 827.059C376.834 828.26 376.536 829.681 376.536 831.321C376.536 832.913 376.775 834.31 377.254 835.511C377.732 836.712 378.479 837.649 379.495 838.323C380.521 838.987 381.844 839.319 383.465 839.319C384.275 839.319 384.964 839.275 385.53 839.188C386.097 839.1 386.619 839.002 387.098 838.895V833.372H382.571V830.369Z" fill="white"/>
<path d="M390.936 794H386.614L376.126 776.905H375.994C376.033 777.481 376.067 778.092 376.097 778.736C376.136 779.381 376.165 780.045 376.185 780.729C376.214 781.412 376.238 782.105 376.258 782.809V794H373.064V772.584H377.356L387.83 789.562H387.933C387.913 789.063 387.889 788.492 387.859 787.848C387.83 787.203 387.801 786.539 387.771 785.855C387.752 785.162 387.737 784.493 387.728 783.849V772.584H390.936V794Z" fill="white"/>
<path d="M380.228 743V721.584H383.743V743H380.228Z" fill="white"/>
<path d="M383.258 692H379.728V673.572H373.458V670.584H389.513V673.572H383.258V692Z" fill="white"/>
<path d="M388.062 644H375.934V622.584H388.062V625.543H379.449V631.358H387.521V634.303H379.449V641.026H388.062V644Z" fill="white"/>
<path d="M391.565 594H387.522L380.857 584.273L378.748 585.987V594H375.232V572.584H378.748V582.823C379.178 582.296 379.612 581.769 380.052 581.241C380.491 580.714 380.931 580.187 381.37 579.659L387.405 572.584H391.375L383.377 581.959L391.565 594Z" fill="white"/>
<path d="M381.253 524.584C383.099 524.584 384.622 524.809 385.823 525.258C387.034 525.707 387.933 526.391 388.519 527.309C389.114 528.227 389.412 529.394 389.412 530.81C389.412 531.864 389.217 532.763 388.826 533.505C388.436 534.247 387.923 534.862 387.288 535.351C386.653 535.839 385.975 536.229 385.252 536.522L391.331 546H387.361L382.19 537.416H378.748V546H375.232V524.584H381.253ZM381.019 527.514H378.748V534.516H381.18C382.811 534.516 383.992 534.213 384.725 533.607C385.467 533.002 385.838 532.108 385.838 530.927C385.838 529.687 385.442 528.808 384.651 528.29C383.87 527.772 382.659 527.514 381.019 527.514Z" fill="white"/>
<path d="M388.167 498L386.072 492.053H377.884L375.789 498H372.083L380.052 476.496H383.948L391.902 498H388.167ZM385.164 489.035L383.128 483.176C383.05 482.922 382.938 482.565 382.791 482.106C382.645 481.638 382.498 481.164 382.352 480.686C382.205 480.197 382.083 479.787 381.985 479.455C381.888 479.855 381.766 480.305 381.619 480.803C381.482 481.291 381.346 481.75 381.209 482.18C381.082 482.609 380.984 482.941 380.916 483.176L378.865 489.035H385.164Z" fill="white"/>
<path d="M380.228 443L374.061 425.114H373.929C373.958 425.515 373.992 426.062 374.031 426.755C374.07 427.448 374.104 428.19 374.134 428.981C374.163 429.772 374.178 430.529 374.178 431.252V443H370.984V421.584H375.921L381.854 438.679H381.941L388.079 421.584H393.001V443H389.646V431.076C389.646 430.422 389.656 429.714 389.676 428.952C389.705 428.19 389.734 427.468 389.764 426.784C389.803 426.101 389.832 425.554 389.852 425.144H389.734L383.333 443H380.228Z" fill="white"/>
<path d="M376.153 395V373.584H379.669V392.012H388.766V395H376.153Z" fill="white"/>
<path d="M388.167 347L386.072 341.053H377.884L375.789 347H372.083L380.052 325.496H383.948L391.902 347H388.167ZM385.164 338.035L383.128 332.176C383.05 331.922 382.938 331.565 382.791 331.106C382.645 330.638 382.498 330.164 382.352 329.686C382.205 329.197 382.083 328.787 381.985 328.455C381.888 328.855 381.766 329.305 381.619 329.803C381.482 330.291 381.346 330.75 381.209 331.18C381.082 331.609 380.984 331.941 380.916 332.176L378.865 338.035H385.164Z" fill="white"/>
<path d="M383.258 299H379.728V280.572H373.458V277.584H389.513V280.572H383.258V299Z" fill="white"/>
<path d="M380.228 251V229.584H383.743V251H380.228Z" fill="white"/>
<path d="M382.571 187.369H390.569V198.121C389.446 198.492 388.284 198.78 387.083 198.985C385.882 199.19 384.534 199.293 383.04 199.293C380.862 199.293 379.017 198.863 377.503 198.004C375.999 197.135 374.856 195.88 374.075 194.239C373.294 192.589 372.903 190.602 372.903 188.277C372.903 186.041 373.338 184.103 374.207 182.462C375.076 180.812 376.341 179.537 378.001 178.639C379.661 177.73 381.673 177.276 384.036 177.276C385.198 177.276 386.321 177.394 387.405 177.628C388.499 177.853 389.5 178.165 390.408 178.565L389.178 181.466C388.455 181.124 387.645 180.836 386.746 180.602C385.848 180.367 384.915 180.25 383.948 180.25C382.415 180.25 381.092 180.582 379.979 181.246C378.875 181.91 378.025 182.848 377.43 184.059C376.834 185.26 376.536 186.681 376.536 188.321C376.536 189.913 376.775 191.31 377.254 192.511C377.732 193.712 378.479 194.649 379.495 195.323C380.521 195.987 381.844 196.319 383.465 196.319C384.275 196.319 384.964 196.275 385.53 196.188C386.097 196.1 386.619 196.002 387.098 195.895V190.372H382.571V187.369Z" fill="white"/>
<path d="M380.228 148V126.584H383.743V148H380.228Z" fill="white"/>
<path d="M390.699 89.0869C390.699 91.499 390.25 93.5156 389.352 95.1367C388.453 96.748 387.149 97.9639 385.44 98.7842C383.731 99.5947 381.671 100 379.259 100H373.312V78.584H379.903C382.12 78.584 384.034 78.9844 385.646 79.7852C387.257 80.5762 388.502 81.7529 389.381 83.3154C390.26 84.8682 390.699 86.792 390.699 89.0869ZM387.037 89.1895C387.037 87.4316 386.759 85.9863 386.202 84.8535C385.655 83.7207 384.845 82.8809 383.771 82.334C382.706 81.7773 381.393 81.499 379.83 81.499H376.827V97.0557H379.317C381.905 97.0557 383.839 96.3965 385.118 95.0781C386.397 93.7598 387.037 91.7969 387.037 89.1895Z" fill="white"/>
<path d="M185.571 535.369H193.569V546.121C192.446 546.492 191.284 546.78 190.083 546.985C188.882 547.19 187.534 547.293 186.04 547.293C183.862 547.293 182.017 546.863 180.503 546.004C178.999 545.135 177.856 543.88 177.075 542.239C176.294 540.589 175.903 538.602 175.903 536.277C175.903 534.041 176.338 532.103 177.207 530.462C178.076 528.812 179.341 527.537 181.001 526.639C182.661 525.73 184.673 525.276 187.036 525.276C188.198 525.276 189.321 525.394 190.405 525.628C191.499 525.853 192.5 526.165 193.408 526.565L192.178 529.466C191.455 529.124 190.645 528.836 189.746 528.602C188.848 528.367 187.915 528.25 186.948 528.25C185.415 528.25 184.092 528.582 182.979 529.246C181.875 529.91 181.025 530.848 180.43 532.059C179.834 533.26 179.536 534.681 179.536 536.321C179.536 537.913 179.775 539.31 180.254 540.511C180.732 541.712 181.479 542.649 182.495 543.323C183.521 543.987 184.844 544.319 186.465 544.319C187.275 544.319 187.964 544.275 188.53 544.188C189.097 544.1 189.619 544.002 190.098 543.895V538.372H185.571V535.369Z" fill="white"/>
<path d="M192.936 496H188.614L178.126 478.905H177.994C178.033 479.481 178.067 480.092 178.097 480.736C178.136 481.381 178.165 482.045 178.185 482.729C178.214 483.412 178.238 484.105 178.258 484.809V496H175.064V474.584H179.356L189.83 491.562H189.933C189.913 491.063 189.889 490.492 189.859 489.848C189.83 489.203 189.801 488.539 189.771 487.855C189.752 487.162 189.737 486.493 189.728 485.849V474.584H192.936V496Z" fill="white"/>
<path d="M183.228 447V425.584H186.743V447H183.228Z" fill="white"/>
<path d="M193.699 387.087C193.699 389.499 193.25 391.516 192.352 393.137C191.453 394.748 190.149 395.964 188.44 396.784C186.731 397.595 184.671 398 182.259 398H176.312V376.584H182.903C185.12 376.584 187.034 376.984 188.646 377.785C190.257 378.576 191.502 379.753 192.381 381.315C193.26 382.868 193.699 384.792 193.699 387.087ZM190.037 387.189C190.037 385.432 189.759 383.986 189.202 382.854C188.655 381.721 187.845 380.881 186.771 380.334C185.706 379.777 184.393 379.499 182.83 379.499H179.827V395.056H182.317C184.905 395.056 186.839 394.396 188.118 393.078C189.397 391.76 190.037 389.797 190.037 387.189Z" fill="white"/>
<path d="M193.936 348H189.614L179.126 330.905H178.994C179.033 331.481 179.067 332.092 179.097 332.736C179.136 333.381 179.165 334.045 179.185 334.729C179.214 335.412 179.238 336.105 179.258 336.809V348H176.064V326.584H180.356L190.83 343.562H190.933C190.913 343.063 190.889 342.492 190.859 341.848C190.83 341.203 190.801 340.539 190.771 339.855C190.752 339.162 190.737 338.493 190.728 337.849V326.584H193.936V348Z" fill="white"/>
<path d="M191.167 298L189.072 292.053H180.884L178.789 298H175.083L183.052 276.496H186.948L194.902 298H191.167ZM188.164 289.035L186.128 283.176C186.05 282.922 185.938 282.565 185.791 282.106C185.645 281.638 185.498 281.164 185.352 280.686C185.205 280.197 185.083 279.787 184.985 279.455C184.888 279.855 184.766 280.305 184.619 280.803C184.482 281.291 184.346 281.75 184.209 282.18C184.082 282.609 183.984 282.941 183.916 283.176L181.865 289.035H188.164Z" fill="white"/>
<path d="M178.925 181.584H185.297C188.061 181.584 190.146 181.984 191.552 182.785C192.958 183.586 193.661 184.968 193.661 186.931C193.661 187.751 193.515 188.493 193.222 189.157C192.938 189.812 192.523 190.354 191.977 190.783C191.43 191.203 190.756 191.486 189.955 191.633V191.779C190.785 191.926 191.522 192.185 192.167 192.556C192.821 192.927 193.334 193.459 193.705 194.152C194.086 194.846 194.276 195.744 194.276 196.848C194.276 198.156 193.964 199.27 193.339 200.188C192.724 201.105 191.84 201.804 190.688 202.282C189.545 202.761 188.188 203 186.615 203H178.925V181.584ZM182.44 190.417H185.81C187.401 190.417 188.505 190.158 189.12 189.641C189.735 189.123 190.043 188.366 190.043 187.37C190.043 186.354 189.677 185.622 188.944 185.173C188.222 184.724 187.069 184.499 185.487 184.499H182.44V190.417ZM182.44 193.259V200.056H186.146C187.787 200.056 188.939 199.738 189.604 199.104C190.268 198.469 190.6 197.609 190.6 196.525C190.6 195.861 190.448 195.285 190.146 194.797C189.853 194.309 189.369 193.933 188.695 193.669C188.021 193.396 187.113 193.259 185.971 193.259H182.44Z" fill="white"/>
<path d="M485.571 239.369H493.569V250.121C492.446 250.492 491.284 250.78 490.083 250.985C488.882 251.19 487.534 251.293 486.04 251.293C483.862 251.293 482.017 250.863 480.503 250.004C478.999 249.135 477.856 247.88 477.075 246.239C476.294 244.589 475.903 242.602 475.903 240.277C475.903 238.041 476.338 236.103 477.207 234.462C478.076 232.812 479.341 231.537 481.001 230.639C482.661 229.73 484.673 229.276 487.036 229.276C488.198 229.276 489.321 229.394 490.405 229.628C491.499 229.853 492.5 230.165 493.408 230.565L492.178 233.466C491.455 233.124 490.645 232.836 489.746 232.602C488.848 232.367 487.915 232.25 486.948 232.25C485.415 232.25 484.092 232.582 482.979 233.246C481.875 233.91 481.025 234.848 480.43 236.059C479.834 237.26 479.536 238.681 479.536 240.321C479.536 241.913 479.775 243.31 480.254 244.511C480.732 245.712 481.479 246.649 482.495 247.323C483.521 247.987 484.844 248.319 486.465 248.319C487.275 248.319 487.964 248.275 488.53 248.188C489.097 248.1 489.619 248.002 490.098 247.895V242.372H485.571V239.369Z" fill="white"/>
<path d="M440.936 251H436.614L426.126 233.905H425.994C426.033 234.481 426.067 235.092 426.097 235.736C426.136 236.381 426.165 237.045 426.185 237.729C426.214 238.412 426.238 239.105 426.258 239.809V251H423.064V229.584H427.356L437.83 246.562H437.933C437.913 246.063 437.889 245.492 437.859 244.848C437.83 244.203 437.801 243.539 437.771 242.855C437.752 242.162 437.737 241.493 437.728 240.849V229.584H440.936V251Z" fill="white"/>
<path d="M340.936 251H336.614L326.126 233.905H325.994C326.033 234.481 326.067 235.092 326.097 235.736C326.136 236.381 326.165 237.045 326.185 237.729C326.214 238.412 326.238 239.105 326.258 239.809V251H323.064V229.584H327.356L337.83 246.562H337.933C337.913 246.063 337.889 245.492 337.859 244.848C337.83 244.203 337.801 243.539 337.771 242.855C337.752 242.162 337.737 241.493 337.728 240.849V229.584H340.936V251Z" fill="white"/>
<path d="M280.228 251V229.584H283.743V251H280.228Z" fill="white"/>
<path d="M240.167 251L238.072 245.053H229.884L227.789 251H224.083L232.052 229.496H235.948L243.902 251H240.167ZM237.164 242.035L235.128 236.176C235.05 235.922 234.938 235.565 234.791 235.106C234.645 234.638 234.498 234.164 234.352 233.686C234.205 233.197 234.083 232.787 233.985 232.455C233.888 232.855 233.766 233.305 233.619 233.803C233.482 234.291 233.346 234.75 233.209 235.18C233.082 235.609 232.984 235.941 232.916 236.176L230.865 242.035H237.164Z" fill="white"/>
<path d="M183.253 229.584C185.099 229.584 186.622 229.809 187.823 230.258C189.034 230.707 189.933 231.391 190.519 232.309C191.114 233.227 191.412 234.394 191.412 235.81C191.412 236.864 191.217 237.763 190.826 238.505C190.436 239.247 189.923 239.862 189.288 240.351C188.653 240.839 187.975 241.229 187.252 241.522L193.331 251H189.361L184.19 242.416H180.748V251H177.232V229.584H183.253ZM183.019 232.514H180.748V239.516H183.18C184.811 239.516 185.992 239.213 186.725 238.607C187.467 238.002 187.838 237.108 187.838 235.927C187.838 234.687 187.442 233.808 186.651 233.29C185.87 232.772 184.659 232.514 183.019 232.514Z" fill="white"/>
<path d="M137.258 251H133.728V232.572H127.458V229.584H143.513V232.572H137.258V251Z" fill="white"/>
<path d="M642.936 100H638.614L628.126 82.9053H627.994C628.033 83.4814 628.067 84.0918 628.097 84.7363C628.136 85.3809 628.165 86.0449 628.185 86.7285C628.214 87.4121 628.238 88.1055 628.258 88.8086V100H625.064V78.584H629.356L639.83 95.5615H639.933C639.913 95.0635 639.889 94.4922 639.859 93.8477C639.83 93.2031 639.801 92.5391 639.771 91.8555C639.752 91.1621 639.737 90.4932 639.728 89.8486V78.584H642.936V100Z" fill="white"/>
<path d="M584.571 88.3691H592.569V99.1211C591.446 99.4922 590.284 99.7803 589.083 99.9854C587.882 100.19 586.534 100.293 585.04 100.293C582.862 100.293 581.017 99.8633 579.503 99.0039C577.999 98.1348 576.856 96.8799 576.075 95.2393C575.294 93.5889 574.903 91.6016 574.903 89.2773C574.903 87.041 575.338 85.1025 576.207 83.4619C577.076 81.8115 578.341 80.5371 580.001 79.6387C581.661 78.7305 583.673 78.2764 586.036 78.2764C587.198 78.2764 588.321 78.3936 589.405 78.6279C590.499 78.8525 591.5 79.165 592.408 79.5654L591.178 82.4658C590.455 82.124 589.645 81.8359 588.746 81.6016C587.848 81.3672 586.915 81.25 585.948 81.25C584.415 81.25 583.092 81.582 581.979 82.2461C580.875 82.9102 580.025 83.8477 579.43 85.0586C578.834 86.2598 578.536 87.6807 578.536 89.3213C578.536 90.9131 578.775 92.3096 579.254 93.5107C579.732 94.7119 580.479 95.6494 581.495 96.3232C582.521 96.9873 583.844 97.3193 585.465 97.3193C586.275 97.3193 586.964 97.2754 587.53 97.1875C588.097 97.0996 588.619 97.002 589.098 96.8945V91.3721H584.571V88.3691Z" fill="white"/>
<path d="M534.228 100V78.584H537.743V100H534.228Z" fill="white"/>
<path d="M493.429 94.1699C493.429 95.4395 493.116 96.5332 492.491 97.4512C491.876 98.3691 490.987 99.0723 489.825 99.5605C488.673 100.049 487.296 100.293 485.694 100.293C484.913 100.293 484.166 100.249 483.453 100.161C482.74 100.073 482.066 99.9463 481.432 99.7803C480.807 99.6045 480.235 99.3945 479.718 99.1504V95.8398C480.587 96.2207 481.559 96.5674 482.633 96.8799C483.707 97.1826 484.801 97.334 485.914 97.334C486.822 97.334 487.574 97.2168 488.17 96.9824C488.775 96.7383 489.225 96.3965 489.518 95.957C489.811 95.5078 489.957 94.9854 489.957 94.3896C489.957 93.7549 489.786 93.2178 489.444 92.7783C489.103 92.3389 488.585 91.9385 487.892 91.5771C487.208 91.2061 486.349 90.8105 485.313 90.3906C484.61 90.1074 483.937 89.7852 483.292 89.4238C482.657 89.0625 482.091 88.6377 481.593 88.1494C481.095 87.6611 480.699 87.085 480.406 86.4209C480.123 85.7471 479.981 84.9561 479.981 84.0479C479.981 82.8369 480.27 81.8018 480.846 80.9424C481.432 80.083 482.252 79.4238 483.307 78.9648C484.371 78.5059 485.611 78.2764 487.027 78.2764C488.15 78.2764 489.205 78.3936 490.191 78.6279C491.188 78.8623 492.164 79.1943 493.121 79.624L492.008 82.4512C491.129 82.0898 490.274 81.8018 489.444 81.5869C488.624 81.3721 487.784 81.2646 486.925 81.2646C486.183 81.2646 485.553 81.377 485.035 81.6016C484.518 81.8262 484.122 82.1436 483.849 82.5537C483.585 82.9541 483.453 83.4326 483.453 83.9893C483.453 84.6143 483.604 85.1416 483.907 85.5713C484.22 85.9912 484.698 86.377 485.343 86.7285C485.997 87.0801 486.837 87.4707 487.862 87.9004C489.044 88.3887 490.045 88.9014 490.865 89.4385C491.695 89.9756 492.33 90.6201 492.77 91.3721C493.209 92.1143 493.429 93.0469 493.429 94.1699Z" fill="white"/>
<path d="M444.062 100H431.934V78.584H444.062V81.543H435.449V87.3584H443.521V90.3027H435.449V97.0264H444.062V100Z" fill="white"/>
<path d="M342.772 100H338.773L333.383 91.2256L327.963 100H324.198L331.317 88.8965L324.682 78.584H328.563L333.544 86.6992L338.495 78.584H342.26L335.595 88.999L342.772 100Z" fill="white"/>
<path d="M293.981 78.584V92.4414C293.981 93.9355 293.664 95.2734 293.029 96.4551C292.404 97.6367 291.457 98.5742 290.188 99.2676C288.918 99.9512 287.321 100.293 285.397 100.293C282.653 100.293 280.563 99.5752 279.128 98.1396C277.702 96.6943 276.989 94.7754 276.989 92.3828V78.584H280.505V92.0752C280.505 93.8623 280.925 95.1807 281.765 96.0303C282.604 96.8799 283.859 97.3047 285.529 97.3047C286.682 97.3047 287.619 97.1045 288.342 96.7041C289.074 96.2939 289.611 95.6982 289.953 94.917C290.305 94.126 290.48 93.1738 290.48 92.0605V78.584H293.981Z" fill="white"/>
<path d="M233.228 100V78.584H236.743V100H233.228Z" fill="white"/>
<path d="M194.981 78.584V92.4414C194.981 93.9355 194.664 95.2734 194.029 96.4551C193.404 97.6367 192.457 98.5742 191.188 99.2676C189.918 99.9512 188.321 100.293 186.397 100.293C183.653 100.293 181.563 99.5752 180.128 98.1396C178.702 96.6943 177.989 94.7754 177.989 92.3828V78.584H181.505V92.0752C181.505 93.8623 181.925 95.1807 182.765 96.0303C183.604 96.8799 184.859 97.3047 186.529 97.3047C187.682 97.3047 188.619 97.1045 189.342 96.7041C190.074 96.2939 190.611 95.6982 190.953 94.917C191.305 94.126 191.48 93.1738 191.48 92.0605V78.584H194.981Z" fill="white"/>
<path d="M682.258 398H678.728V379.572H672.458V376.584H688.513V379.572H682.258V398Z" fill="white"/>
<path d="M638.936 398H634.614L624.126 380.905H623.994C624.033 381.481 624.067 382.092 624.097 382.736C624.136 383.381 624.165 384.045 624.185 384.729C624.214 385.412 624.238 386.105 624.258 386.809V398H621.064V376.584H625.356L635.83 393.562H635.933C635.913 393.063 635.889 392.492 635.859 391.848C635.83 391.203 635.801 390.539 635.771 389.855C635.752 389.162 635.737 388.493 635.728 387.849V376.584H638.936V398Z" fill="white"/>
<path d="M589.062 398H576.934V376.584H589.062V379.543H580.449V385.358H588.521V388.303H580.449V395.026H589.062V398Z" fill="white"/>
<path d="M530.228 398L524.061 380.114H523.929C523.958 380.515 523.992 381.062 524.031 381.755C524.07 382.448 524.104 383.19 524.134 383.981C524.163 384.772 524.178 385.529 524.178 386.252V398H520.984V376.584H525.921L531.854 393.679H531.941L538.079 376.584H543.001V398H539.646V386.076C539.646 385.422 539.656 384.714 539.676 383.952C539.705 383.19 539.734 382.468 539.764 381.784C539.803 381.101 539.832 380.554 539.852 380.144H539.734L533.333 398H530.228Z" fill="white"/>
<path d="M483.31 376.584C486.073 376.584 488.09 377.15 489.359 378.283C490.629 379.416 491.264 381.003 491.264 383.044C491.264 383.972 491.117 384.855 490.824 385.695C490.541 386.525 490.072 387.263 489.418 387.907C488.764 388.542 487.899 389.045 486.825 389.416C485.761 389.787 484.447 389.973 482.885 389.973H480.6V398H477.084V376.584H483.31ZM483.075 379.499H480.6V387.043H482.519C483.622 387.043 484.56 386.916 485.331 386.662C486.103 386.398 486.688 385.983 487.089 385.417C487.489 384.851 487.689 384.104 487.689 383.176C487.689 381.936 487.313 381.013 486.562 380.407C485.819 379.802 484.657 379.499 483.075 379.499Z" fill="white"/>
<path d="M443.02 387.263C443.02 388.913 442.81 390.417 442.39 391.774C441.979 393.122 441.359 394.284 440.529 395.261C439.699 396.228 438.659 396.975 437.409 397.502C436.159 398.029 434.694 398.293 433.015 398.293C431.306 398.293 429.821 398.029 428.562 397.502C427.312 396.975 426.271 396.223 425.441 395.246C424.621 394.27 424.006 393.103 423.596 391.745C423.186 390.388 422.98 388.884 422.98 387.233C422.98 385.026 423.342 383.103 424.064 381.462C424.797 379.812 425.905 378.532 427.39 377.624C428.884 376.706 430.769 376.247 433.044 376.247C435.271 376.247 437.121 376.701 438.596 377.609C440.07 378.518 441.174 379.797 441.906 381.447C442.648 383.088 443.02 385.026 443.02 387.263ZM426.672 387.263C426.672 388.913 426.896 390.344 427.346 391.555C427.795 392.756 428.483 393.684 429.411 394.338C430.349 394.982 431.55 395.305 433.015 395.305C434.489 395.305 435.69 394.982 436.618 394.338C437.546 393.684 438.229 392.756 438.669 391.555C439.108 390.344 439.328 388.913 439.328 387.263C439.328 384.753 438.825 382.79 437.819 381.374C436.823 379.948 435.231 379.235 433.044 379.235C431.579 379.235 430.373 379.558 429.426 380.202C428.488 380.847 427.795 381.77 427.346 382.971C426.896 384.162 426.672 385.593 426.672 387.263Z" fill="white"/>
<path d="M338.062 398H325.934V376.584H338.062V379.543H329.449V385.358H337.521V388.303H329.449V395.026H338.062V398Z" fill="white"/>
<path d="M290.846 376.584L283.36 398H279.64L272.154 376.584H275.758L280.27 390.002C280.406 390.393 280.553 390.866 280.709 391.423C280.875 391.979 281.026 392.541 281.163 393.107C281.31 393.674 281.422 394.177 281.5 394.616C281.578 394.177 281.686 393.674 281.822 393.107C281.969 392.541 282.12 391.979 282.276 391.423C282.433 390.866 282.579 390.388 282.716 389.987L287.242 376.584H290.846Z" fill="white"/>
<path d="M239.062 398H226.934V376.584H239.062V379.543H230.449V385.358H238.521V388.303H230.449V395.026H239.062V398Z" fill="white"/>
<path d="M682.571 731.369H690.569V742.121C689.446 742.492 688.284 742.78 687.083 742.985C685.882 743.19 684.534 743.293 683.04 743.293C680.862 743.293 679.017 742.863 677.503 742.004C675.999 741.135 674.856 739.88 674.075 738.239C673.294 736.589 672.903 734.602 672.903 732.277C672.903 730.041 673.338 728.103 674.207 726.462C675.076 724.812 676.341 723.537 678.001 722.639C679.661 721.73 681.673 721.276 684.036 721.276C685.198 721.276 686.321 721.394 687.405 721.628C688.499 721.853 689.5 722.165 690.408 722.565L689.178 725.466C688.455 725.124 687.645 724.836 686.746 724.602C685.848 724.367 684.915 724.25 683.948 724.25C682.415 724.25 681.092 724.582 679.979 725.246C678.875 725.91 678.025 726.848 677.43 728.059C676.834 729.26 676.536 730.681 676.536 732.321C676.536 733.913 676.775 735.31 677.254 736.511C677.732 737.712 678.479 738.649 679.495 739.323C680.521 739.987 681.844 740.319 683.465 740.319C684.275 740.319 684.964 740.275 685.53 740.188C686.097 740.1 686.619 740.002 687.098 739.895V734.372H682.571V731.369Z" fill="white"/>
<path d="M738.936 743H734.614L724.126 725.905H723.994C724.033 726.481 724.067 727.092 724.097 727.736C724.136 728.381 724.165 729.045 724.185 729.729C724.214 730.412 724.238 731.105 724.258 731.809V743H721.064V721.584H725.356L735.83 738.562H735.933C735.913 738.063 735.889 737.492 735.859 736.848C735.83 736.203 735.801 735.539 735.771 734.855C735.752 734.162 735.737 733.493 735.728 732.849V721.584H738.936V743Z" fill="white"/>
<path d="M631.228 743V721.584H634.743V743H631.228Z" fill="white"/>
<path d="M590.429 737.17C590.429 738.439 590.116 739.533 589.491 740.451C588.876 741.369 587.987 742.072 586.825 742.561C585.673 743.049 584.296 743.293 582.694 743.293C581.913 743.293 581.166 743.249 580.453 743.161C579.74 743.073 579.066 742.946 578.432 742.78C577.807 742.604 577.235 742.395 576.718 742.15V738.84C577.587 739.221 578.559 739.567 579.633 739.88C580.707 740.183 581.801 740.334 582.914 740.334C583.822 740.334 584.574 740.217 585.17 739.982C585.775 739.738 586.225 739.396 586.518 738.957C586.811 738.508 586.957 737.985 586.957 737.39C586.957 736.755 586.786 736.218 586.444 735.778C586.103 735.339 585.585 734.938 584.892 734.577C584.208 734.206 583.349 733.811 582.313 733.391C581.61 733.107 580.937 732.785 580.292 732.424C579.657 732.062 579.091 731.638 578.593 731.149C578.095 730.661 577.699 730.085 577.406 729.421C577.123 728.747 576.981 727.956 576.981 727.048C576.981 725.837 577.27 724.802 577.846 723.942C578.432 723.083 579.252 722.424 580.307 721.965C581.371 721.506 582.611 721.276 584.027 721.276C585.15 721.276 586.205 721.394 587.191 721.628C588.188 721.862 589.164 722.194 590.121 722.624L589.008 725.451C588.129 725.09 587.274 724.802 586.444 724.587C585.624 724.372 584.784 724.265 583.925 724.265C583.183 724.265 582.553 724.377 582.035 724.602C581.518 724.826 581.122 725.144 580.849 725.554C580.585 725.954 580.453 726.433 580.453 726.989C580.453 727.614 580.604 728.142 580.907 728.571C581.22 728.991 581.698 729.377 582.343 729.729C582.997 730.08 583.837 730.471 584.862 730.9C586.044 731.389 587.045 731.901 587.865 732.438C588.695 732.976 589.33 733.62 589.77 734.372C590.209 735.114 590.429 736.047 590.429 737.17Z" fill="white"/>
<path d="M538.062 743H525.934V721.584H538.062V724.543H529.449V730.358H537.521V733.303H529.449V740.026H538.062V743Z" fill="white"/>
<path d="M492.699 732.087C492.699 734.499 492.25 736.516 491.352 738.137C490.453 739.748 489.149 740.964 487.44 741.784C485.731 742.595 483.671 743 481.259 743H475.312V721.584H481.903C484.12 721.584 486.034 721.984 487.646 722.785C489.257 723.576 490.502 724.753 491.381 726.315C492.26 727.868 492.699 729.792 492.699 732.087ZM489.037 732.189C489.037 730.432 488.759 728.986 488.202 727.854C487.655 726.721 486.845 725.881 485.771 725.334C484.706 724.777 483.393 724.499 481.83 724.499H478.827V740.056H481.317C483.905 740.056 485.839 739.396 487.118 738.078C488.397 736.76 489.037 734.797 489.037 732.189Z" fill="white"/>
<path d="M437.432 724.265C436.406 724.265 435.488 724.45 434.678 724.821C433.877 725.192 433.198 725.729 432.642 726.433C432.085 727.126 431.66 727.971 431.367 728.967C431.074 729.953 430.928 731.066 430.928 732.307C430.928 733.967 431.162 735.397 431.631 736.599C432.1 737.79 432.812 738.708 433.77 739.353C434.727 739.987 435.938 740.305 437.402 740.305C438.311 740.305 439.194 740.217 440.054 740.041C440.913 739.865 441.802 739.626 442.72 739.323V742.312C441.851 742.653 440.972 742.902 440.083 743.059C439.194 743.215 438.169 743.293 437.007 743.293C434.819 743.293 433.003 742.839 431.558 741.931C430.122 741.022 429.048 739.743 428.335 738.093C427.632 736.442 427.28 734.509 427.28 732.292C427.28 730.671 427.505 729.187 427.954 727.839C428.403 726.491 429.058 725.329 429.917 724.353C430.776 723.366 431.836 722.609 433.096 722.082C434.365 721.545 435.815 721.276 437.446 721.276C438.521 721.276 439.575 721.398 440.61 721.643C441.655 721.877 442.622 722.214 443.511 722.653L442.28 725.554C441.538 725.202 440.762 724.899 439.951 724.646C439.141 724.392 438.301 724.265 437.432 724.265Z" fill="white"/>
<path d="M343.923 743H340.422V733.332H330.549V743H327.033V721.584H330.549V730.344H340.422V721.584H343.923V743Z" fill="white"/>
<path d="M286.31 721.584C289.073 721.584 291.09 722.15 292.359 723.283C293.629 724.416 294.264 726.003 294.264 728.044C294.264 728.972 294.117 729.855 293.824 730.695C293.541 731.525 293.072 732.263 292.418 732.907C291.764 733.542 290.899 734.045 289.825 734.416C288.761 734.787 287.447 734.973 285.885 734.973H283.6V743H280.084V721.584H286.31ZM286.075 724.499H283.6V732.043H285.519C286.622 732.043 287.56 731.916 288.331 731.662C289.103 731.398 289.688 730.983 290.089 730.417C290.489 729.851 290.689 729.104 290.689 728.176C290.689 726.936 290.313 726.013 289.562 725.407C288.819 724.802 287.657 724.499 286.075 724.499Z" fill="white"/>
<path d="M240.167 743L238.072 737.053H229.884L227.789 743H224.083L232.052 721.496H235.948L243.902 743H240.167ZM237.164 734.035L235.128 728.176C235.05 727.922 234.938 727.565 234.791 727.106C234.645 726.638 234.498 726.164 234.352 725.686C234.205 725.197 234.083 724.787 233.985 724.455C233.888 724.855 233.766 725.305 233.619 725.803C233.482 726.291 233.346 726.75 233.209 727.18C233.082 727.609 232.984 727.941 232.916 728.176L230.865 734.035H237.164Z" fill="white"/>
<path d="M184.253 721.584C186.099 721.584 187.622 721.809 188.823 722.258C190.034 722.707 190.933 723.391 191.519 724.309C192.114 725.227 192.412 726.394 192.412 727.81C192.412 728.864 192.217 729.763 191.826 730.505C191.436 731.247 190.923 731.862 190.288 732.351C189.653 732.839 188.975 733.229 188.252 733.522L194.331 743H190.361L185.19 734.416H181.748V743H178.232V721.584H184.253ZM184.019 724.514H181.748V731.516H184.18C185.811 731.516 186.992 731.213 187.725 730.607C188.467 730.002 188.838 729.108 188.838 727.927C188.838 726.687 188.442 725.808 187.651 725.29C186.87 724.772 185.659 724.514 184.019 724.514Z" fill="white"/>
<path d="M136.571 732.369H144.569V743.121C143.446 743.492 142.284 743.78 141.083 743.985C139.882 744.19 138.534 744.293 137.04 744.293C134.862 744.293 133.017 743.863 131.503 743.004C129.999 742.135 128.856 740.88 128.075 739.239C127.294 737.589 126.903 735.602 126.903 733.277C126.903 731.041 127.338 729.103 128.207 727.462C129.076 725.812 130.341 724.537 132.001 723.639C133.661 722.73 135.673 722.276 138.036 722.276C139.198 722.276 140.321 722.394 141.405 722.628C142.499 722.853 143.5 723.165 144.408 723.565L143.178 726.466C142.455 726.124 141.645 725.836 140.746 725.602C139.848 725.367 138.915 725.25 137.948 725.25C136.415 725.25 135.092 725.582 133.979 726.246C132.875 726.91 132.025 727.848 131.43 729.059C130.834 730.26 130.536 731.681 130.536 733.321C130.536 734.913 130.775 736.31 131.254 737.511C131.732 738.712 132.479 739.649 133.495 740.323C134.521 740.987 135.844 741.319 137.465 741.319C138.275 741.319 138.964 741.275 139.53 741.188C140.097 741.1 140.619 741.002 141.098 740.895V735.372H136.571V732.369Z" fill="white"/>
<defs>
<linearGradient id="paint0_linear_370_119" x1="111.5" y1="0" x2="111.5" y2="947" gradientUnits="userSpaceOnUse">
<stop stop-color="white" stop-opacity="0"/>
<stop offset="0.0001" stop-color="white" stop-opacity="0"/>
<stop offset="0.395833" stop-color="white"/>
<stop offset="1" stop-color="white" stop-opacity="0"/>
</linearGradient>
<linearGradient id="paint1_linear_370_119" x1="161.5" y1="0" x2="161.5" y2="947" gradientUnits="userSpaceOnUse">
<stop stop-color="white" stop-opacity="0"/>
<stop offset="0.0001" stop-color="white" stop-opacity="0"/>
<stop offset="0.395833" stop-color="white"/>
<stop offset="1" stop-color="white" stop-opacity="0"/>
</linearGradient>
<linearGradient id="paint2_linear_370_119" x1="211" y1="0" x2="211" y2="947" gradientUnits="userSpaceOnUse">
<stop stop-color="white" stop-opacity="0"/>
<stop offset="0.0001" stop-color="white" stop-opacity="0"/>
<stop offset="0.395833" stop-color="white"/>
<stop offset="1" stop-color="white" stop-opacity="0"/>
</linearGradient>
<linearGradient id="paint3_linear_370_119" x1="260.5" y1="0" x2="260.5" y2="947" gradientUnits="userSpaceOnUse">
<stop stop-color="white" stop-opacity="0"/>
<stop offset="0.0001" stop-color="white" stop-opacity="0"/>
<stop offset="0.395833" stop-color="white"/>
<stop offset="1" stop-color="white" stop-opacity="0"/>
</linearGradient>
<linearGradient id="paint4_linear_370_119" x1="310" y1="0" x2="310" y2="947" gradientUnits="userSpaceOnUse">
<stop stop-color="white" stop-opacity="0"/>
<stop offset="0.0001" stop-color="white" stop-opacity="0"/>
<stop offset="0.395833" stop-color="white"/>
<stop offset="1" stop-color="white" stop-opacity="0"/>
</linearGradient>
<linearGradient id="paint5_linear_370_119" x1="359.5" y1="0" x2="359.5" y2="947" gradientUnits="userSpaceOnUse">
<stop stop-color="white" stop-opacity="0"/>
<stop offset="0.0001" stop-color="white" stop-opacity="0"/>
<stop offset="0.395833" stop-color="white"/>
<stop offset="1" stop-color="white" stop-opacity="0"/>
</linearGradient>
<linearGradient id="paint6_linear_370_119" x1="409" y1="0" x2="409" y2="947" gradientUnits="userSpaceOnUse">
<stop stop-color="white" stop-opacity="0"/>
<stop offset="0.0001" stop-color="white" stop-opacity="0"/>
<stop offset="0.395833" stop-color="white"/>
<stop offset="1" stop-color="white" stop-opacity="0"/>
</linearGradient>
<linearGradient id="paint7_linear_370_119" x1="458.5" y1="0" x2="458.5" y2="947" gradientUnits="userSpaceOnUse">
<stop stop-color="white" stop-opacity="0"/>
<stop offset="0.0001" stop-color="white" stop-opacity="0"/>
<stop offset="0.395833" stop-color="white"/>
<stop offset="1" stop-color="white" stop-opacity="0"/>
</linearGradient>
<linearGradient id="paint8_linear_370_119" x1="508" y1="0" x2="508" y2="947" gradientUnits="userSpaceOnUse">
<stop stop-color="white" stop-opacity="0"/>
<stop offset="0.0001" stop-color="white" stop-opacity="0"/>
<stop offset="0.395833" stop-color="white"/>
<stop offset="1" stop-color="white" stop-opacity="0"/>
</linearGradient>
<linearGradient id="paint9_linear_370_119" x1="557.5" y1="0" x2="557.5" y2="947" gradientUnits="userSpaceOnUse">
<stop stop-color="white" stop-opacity="0"/>
<stop offset="0.0001" stop-color="white" stop-opacity="0"/>
<stop offset="0.395833" stop-color="white"/>
<stop offset="1" stop-color="white" stop-opacity="0"/>
</linearGradient>
<linearGradient id="paint10_linear_370_119" x1="607" y1="0" x2="607" y2="947" gradientUnits="userSpaceOnUse">
<stop stop-color="white" stop-opacity="0"/>
<stop offset="0.0001" stop-color="white" stop-opacity="0"/>
<stop offset="0.395833" stop-color="white"/>
<stop offset="1" stop-color="white" stop-opacity="0"/>
</linearGradient>
<linearGradient id="paint11_linear_370_119" x1="656.5" y1="0" x2="656.5" y2="947" gradientUnits="userSpaceOnUse">
<stop stop-color="white" stop-opacity="0"/>
<stop offset="0.0001" stop-color="white" stop-opacity="0"/>
<stop offset="0.395833" stop-color="white"/>
<stop offset="1" stop-color="white" stop-opacity="0"/>
</linearGradient>
<linearGradient id="paint12_linear_370_119" x1="706" y1="0" x2="706" y2="947" gradientUnits="userSpaceOnUse">
<stop stop-color="white" stop-opacity="0"/>
<stop offset="0.0001" stop-color="white" stop-opacity="0"/>
<stop offset="0.395833" stop-color="white"/>
<stop offset="1" stop-color="white" stop-opacity="0"/>
</linearGradient>
<linearGradient id="paint13_linear_370_119" x1="755.5" y1="0" x2="755.5" y2="947" gradientUnits="userSpaceOnUse">
<stop stop-color="white" stop-opacity="0"/>
<stop offset="0.0001" stop-color="white" stop-opacity="0"/>
<stop offset="0.395833" stop-color="white"/>
<stop offset="1" stop-color="white" stop-opacity="0"/>
</linearGradient>
<linearGradient id="paint14_linear_370_119" x1="-2.18557e-08" y1="856" x2="877" y2="856" gradientUnits="userSpaceOnUse">
<stop stop-color="white" stop-opacity="0"/>
<stop offset="0.0001" stop-color="white" stop-opacity="0"/>
<stop offset="0.395833" stop-color="white"/>
<stop offset="1" stop-color="white" stop-opacity="0"/>
</linearGradient>
<linearGradient id="paint15_linear_370_119" x1="-2.18557e-08" y1="806" x2="877" y2="806" gradientUnits="userSpaceOnUse">
<stop stop-color="white" stop-opacity="0"/>
<stop offset="0.0001" stop-color="white" stop-opacity="0"/>
<stop offset="0.395833" stop-color="white"/>
<stop offset="1" stop-color="white" stop-opacity="0"/>
</linearGradient>
<linearGradient id="paint16_linear_370_119" x1="-2.18557e-08" y1="756.5" x2="877" y2="756.5" gradientUnits="userSpaceOnUse">
<stop stop-color="white" stop-opacity="0"/>
<stop offset="0.0001" stop-color="white" stop-opacity="0"/>
<stop offset="0.395833" stop-color="white"/>
<stop offset="1" stop-color="white" stop-opacity="0"/>
</linearGradient>
<linearGradient id="paint17_linear_370_119" x1="-2.18557e-08" y1="707" x2="877" y2="707" gradientUnits="userSpaceOnUse">
<stop stop-color="white" stop-opacity="0"/>
<stop offset="0.0001" stop-color="white" stop-opacity="0"/>
<stop offset="0.395833" stop-color="white"/>
<stop offset="1" stop-color="white" stop-opacity="0"/>
</linearGradient>
<linearGradient id="paint18_linear_370_119" x1="-2.18557e-08" y1="657.5" x2="877" y2="657.5" gradientUnits="userSpaceOnUse">
<stop stop-color="white" stop-opacity="0"/>
<stop offset="0.0001" stop-color="white" stop-opacity="0"/>
<stop offset="0.395833" stop-color="white"/>
<stop offset="1" stop-color="white" stop-opacity="0"/>
</linearGradient>
<linearGradient id="paint19_linear_370_119" x1="-2.18557e-08" y1="608" x2="877" y2="608" gradientUnits="userSpaceOnUse">
<stop stop-color="white" stop-opacity="0"/>
<stop offset="0.0001" stop-color="white" stop-opacity="0"/>
<stop offset="0.395833" stop-color="white"/>
<stop offset="1" stop-color="white" stop-opacity="0"/>
</linearGradient>
<linearGradient id="paint20_linear_370_119" x1="-2.18557e-08" y1="558.5" x2="877" y2="558.5" gradientUnits="userSpaceOnUse">
<stop stop-color="white" stop-opacity="0"/>
<stop offset="0.0001" stop-color="white" stop-opacity="0"/>
<stop offset="0.395833" stop-color="white"/>
<stop offset="1" stop-color="white" stop-opacity="0"/>
</linearGradient>
<linearGradient id="paint21_linear_370_119" x1="-2.18557e-08" y1="509" x2="877" y2="509" gradientUnits="userSpaceOnUse">
<stop stop-color="white" stop-opacity="0"/>
<stop offset="0.0001" stop-color="white" stop-opacity="0"/>
<stop offset="0.395833" stop-color="white"/>
<stop offset="1" stop-color="white" stop-opacity="0"/>
</linearGradient>
<linearGradient id="paint22_linear_370_119" x1="-2.18557e-08" y1="459.5" x2="877" y2="459.5" gradientUnits="userSpaceOnUse">
<stop stop-color="white" stop-opacity="0"/>
<stop offset="0.0001" stop-color="white" stop-opacity="0"/>
<stop offset="0.395833" stop-color="white"/>
<stop offset="1" stop-color="white" stop-opacity="0"/>
</linearGradient>
<linearGradient id="paint23_linear_370_119" x1="-2.18557e-08" y1="410" x2="877" y2="410" gradientUnits="userSpaceOnUse">
<stop stop-color="white" stop-opacity="0"/>
<stop offset="0.0001" stop-color="white" stop-opacity="0"/>
<stop offset="0.395833" stop-color="white"/>
<stop offset="1" stop-color="white" stop-opacity="0"/>
</linearGradient>
<linearGradient id="paint24_linear_370_119" x1="-2.18557e-08" y1="360.5" x2="877" y2="360.5" gradientUnits="userSpaceOnUse">
<stop stop-color="white" stop-opacity="0"/>
<stop offset="0.0001" stop-color="white" stop-opacity="0"/>
<stop offset="0.395833" stop-color="white"/>
<stop offset="1" stop-color="white" stop-opacity="0"/>
</linearGradient>
<linearGradient id="paint25_linear_370_119" x1="-2.18557e-08" y1="311" x2="877" y2="311" gradientUnits="userSpaceOnUse">
<stop stop-color="white" stop-opacity="0"/>
<stop offset="0.0001" stop-color="white" stop-opacity="0"/>
<stop offset="0.395833" stop-color="white"/>
<stop offset="1" stop-color="white" stop-opacity="0"/>
</linearGradient>
<linearGradient id="paint26_linear_370_119" x1="-2.18557e-08" y1="261.5" x2="877" y2="261.5" gradientUnits="userSpaceOnUse">
<stop stop-color="white" stop-opacity="0"/>
<stop offset="0.0001" stop-color="white" stop-opacity="0"/>
<stop offset="0.395833" stop-color="white"/>
<stop offset="1" stop-color="white" stop-opacity="0"/>
</linearGradient>
<linearGradient id="paint27_linear_370_119" x1="-2.18557e-08" y1="212" x2="877" y2="212" gradientUnits="userSpaceOnUse">
<stop stop-color="white" stop-opacity="0"/>
<stop offset="0.0001" stop-color="white" stop-opacity="0"/>
<stop offset="0.395833" stop-color="white"/>
<stop offset="1" stop-color="white" stop-opacity="0"/>
</linearGradient>
<linearGradient id="paint28_linear_370_119" x1="-2.18557e-08" y1="162.5" x2="877" y2="162.5" gradientUnits="userSpaceOnUse">
<stop stop-color="white" stop-opacity="0"/>
<stop offset="0.0001" stop-color="white" stop-opacity="0"/>
<stop offset="0.395833" stop-color="white"/>
<stop offset="1" stop-color="white" stop-opacity="0"/>
</linearGradient>
<linearGradient id="paint29_linear_370_119" x1="-2.18557e-08" y1="113" x2="877" y2="113" gradientUnits="userSpaceOnUse">
<stop stop-color="white" stop-opacity="0"/>
<stop offset="0.0001" stop-color="white" stop-opacity="0"/>
<stop offset="0.395833" stop-color="white"/>
<stop offset="1" stop-color="white" stop-opacity="0"/>
</linearGradient>
<linearGradient id="paint30_linear_370_119" x1="-2.18557e-08" y1="63.5" x2="877" y2="63.5" gradientUnits="userSpaceOnUse">
<stop stop-color="white" stop-opacity="0"/>
<stop offset="0.0001" stop-color="white" stop-opacity="0"/>
<stop offset="0.395833" stop-color="white"/>
<stop offset="1" stop-color="white" stop-opacity="0"/>
</linearGradient>
</defs>
</svg>
