<svg width="250" height="247" viewBox="0 0 250 247" fill="none" xmlns="http://www.w3.org/2000/svg">
<g clip-path="url(#clip0_285_150)">
<path d="M199.956 53.4891H132.587V56.5158H199.956V53.4891Z" fill="#2F61D6"/>
<path d="M119.627 53.4891H54.4148V56.5158H119.627V53.4891Z" fill="#2F61D6"/>
<path d="M207.668 135.356H204.653C204.653 94.1499 172.617 59.648 131.716 56.8032L131.927 53.7823C174.399 56.7387 207.668 92.5662 207.668 135.356Z" fill="#2F61D6"/>
<path d="M47.7774 135.356H44.7625C44.7625 92.6778 77.9384 56.8561 120.288 53.8L120.504 56.8209C79.7205 59.7654 47.7774 94.2615 47.7774 135.356Z" fill="#2F61D6"/>
<path d="M48.8818 62.0648C45.0021 62.0648 41.8411 58.8973 41.8411 54.9966C41.8411 51.0959 44.9962 47.9285 48.8818 47.9285C52.7673 47.9285 55.9224 51.0959 55.9224 54.9966C55.9224 58.8973 52.7673 62.0648 48.8818 62.0648ZM48.8818 50.9552C46.6615 50.9552 44.856 52.7677 44.856 54.9966C44.856 57.2256 46.6615 59.0381 48.8818 59.0381C51.1021 59.0381 52.9075 57.2256 52.9075 54.9966C52.9075 52.7677 51.1021 50.9552 48.8818 50.9552Z" fill="white"/>
<path d="M205.208 62.0648C201.329 62.0648 198.168 58.8973 198.168 54.9966C198.168 51.0959 201.323 47.9285 205.208 47.9285C209.094 47.9285 212.249 51.0959 212.249 54.9966C212.249 58.8973 209.094 62.0648 205.208 62.0648ZM205.208 50.9552C202.988 50.9552 201.183 52.7677 201.183 54.9966C201.183 57.2256 202.988 59.0381 205.208 59.0381C207.429 59.0381 209.234 57.2256 209.234 54.9966C209.234 52.7677 207.429 50.9552 205.208 50.9552Z" fill="white"/>
<path d="M146.82 209.387H105.692V193.151H146.82V209.387ZM108.701 206.36H143.805V196.172H108.701V206.36Z" fill="white"/>
<path d="M146.966 191.555H105.201L105.78 189.608C106.528 187.098 106.908 184.511 106.908 181.918C106.908 169.336 98.3711 158.573 86.1536 155.757L85.5167 155.611L84.5176 153.886L125.365 82.8527V146.014L124.454 146.407C123.916 146.636 123.443 146.959 123.046 147.352C121.304 149.106 121.304 151.956 123.046 153.71C124.787 155.458 127.632 155.464 129.379 153.71C131.126 151.956 131.126 149.106 129.379 147.358C128.982 146.965 128.515 146.642 127.977 146.413L127.066 146.02V82.8585L167.913 153.892L166.961 155.534L166.312 155.675C154.106 158.338 145.249 169.377 145.249 181.918C145.249 184.493 145.628 187.08 146.382 189.608L146.961 191.555H146.966ZM109.175 188.529H142.987C142.491 186.341 142.24 184.129 142.24 181.912C142.24 168.533 151.296 156.696 164.004 153.129L130.08 94.1441V144.09C130.606 144.407 131.085 144.782 131.518 145.211C134.439 148.144 134.439 152.912 131.518 155.845C128.596 158.778 123.846 158.778 120.919 155.845C118.003 152.912 118.003 148.144 120.919 145.205C121.351 144.777 121.83 144.401 122.356 144.084V94.1382L88.3856 153.206C101.141 156.866 109.917 168.451 109.917 181.912C109.917 184.135 109.665 186.353 109.175 188.529Z" fill="white"/>
<path d="M133.037 61.8477H119.394V48.1514H133.037V61.8477ZM122.403 58.821H130.022V51.1722H122.403V58.821Z" fill="white"/>
<path d="M249.591 186.974H174.516V152.836H249.591V186.974ZM177.525 183.948H246.576V155.857H177.525V183.948Z" fill="#2F61D6"/>
<path d="M249.591 166.145H174.516V152.836H249.591V166.145ZM177.525 163.119H246.576V155.857H177.525V163.119Z" fill="#2F61D6"/>
<path d="M183.058 159.488C183.058 160.344 182.368 161.036 181.515 161.036C180.662 161.036 179.973 160.344 179.973 159.488C179.973 158.631 180.662 157.939 181.515 157.939C182.368 157.939 183.058 158.631 183.058 159.488Z" fill="#2F61D6"/>
<path d="M187.949 159.488C187.949 160.344 187.259 161.036 186.406 161.036C185.553 161.036 184.864 160.344 184.864 159.488C184.864 158.631 185.553 157.939 186.406 157.939C187.259 157.939 187.949 158.631 187.949 159.488Z" fill="#2F61D6"/>
<path d="M193.581 174.17C193.581 177.443 190.94 180.094 187.68 180.094C184.42 180.094 181.779 177.443 181.779 174.17C181.779 170.897 184.42 168.245 187.68 168.245C190.94 168.245 193.581 170.897 193.581 174.17Z" fill="white"/>
<path d="M187.68 181.607C183.596 181.607 180.271 178.27 180.271 174.17C180.271 170.07 183.596 166.732 187.68 166.732C191.764 166.732 195.089 170.07 195.089 174.17C195.089 178.27 191.764 181.607 187.68 181.607ZM187.68 169.759C185.261 169.759 183.286 171.735 183.286 174.17C183.286 176.604 185.255 178.581 187.68 178.581C190.105 178.581 192.074 176.604 192.074 174.17C192.074 171.735 190.105 169.759 187.68 169.759Z" fill="#2F61D6"/>
<path d="M223.555 168.621H198.366V171.647H223.555V168.621Z" fill="#2F61D6"/>
<path d="M210.052 176.698H198.366V179.724H210.052V176.698Z" fill="#2F61D6"/>
<path d="M231.84 246.652H155.316V199.668H231.84V246.652ZM158.331 243.625H228.825V202.689H158.331V243.625Z" fill="#2F61D6"/>
<path d="M231.84 212.56H155.316V199.668H231.84V212.56ZM158.331 209.534H228.825V202.689H158.331V209.534Z" fill="#2F61D6"/>
<path d="M164.004 206.36C164.004 207.234 163.303 207.938 162.433 207.938C161.562 207.938 160.861 207.234 160.861 206.36C160.861 205.486 161.568 204.783 162.433 204.783C163.297 204.783 164.004 205.486 164.004 206.36Z" fill="#2F61D6"/>
<path d="M167.422 207.938C168.29 207.938 168.994 207.232 168.994 206.36C168.994 205.489 168.29 204.783 167.422 204.783C166.554 204.783 165.851 205.489 165.851 206.36C165.851 207.232 166.554 207.938 167.422 207.938Z" fill="#2F61D6"/>
<path d="M189.064 218.197H176.38C175.547 218.197 174.872 218.875 174.872 219.711C174.872 220.547 175.547 221.224 176.38 221.224H189.064C189.897 221.224 190.572 220.547 190.572 219.711C190.572 218.875 189.897 218.197 189.064 218.197Z" fill="#2F61D6"/>
<path d="M165.279 214.604L160.214 219.689L165.279 224.774L170.344 219.689L165.279 214.604Z" fill="#2F61D6"/>
<path d="M223.987 218.197H211.297C210.464 218.197 209.789 218.875 209.789 219.711C209.789 220.547 210.464 221.224 211.297 221.224H223.987C224.82 221.224 225.495 220.547 225.495 219.711C225.495 218.875 224.82 218.197 223.987 218.197Z" fill="#2F61D6"/>
<path d="M200.194 214.606L195.129 219.691L200.194 224.776L205.26 219.691L200.194 214.606Z" fill="#2F61D6"/>
<path d="M189.064 234.416H176.38C175.547 234.416 174.872 235.094 174.872 235.929C174.872 236.765 175.547 237.443 176.38 237.443H189.064C189.897 237.443 190.572 236.765 190.572 235.929C190.572 235.094 189.897 234.416 189.064 234.416Z" fill="#2F61D6"/>
<path d="M165.278 230.834L160.213 235.919L165.278 241.004L170.344 235.919L165.278 230.834Z" fill="#2F61D6"/>
<path d="M223.987 234.416H211.297C210.464 234.416 209.789 235.094 209.789 235.929C209.789 236.765 210.464 237.443 211.297 237.443H223.987C224.82 237.443 225.495 236.765 225.495 235.929C225.495 235.094 224.82 234.416 223.987 234.416Z" fill="#2F61D6"/>
<path d="M200.193 230.836L195.128 235.921L200.193 241.006L205.259 235.921L200.193 230.836Z" fill="#2F61D6"/>
<path d="M76.3023 223.952H20.561V155.957H76.3023V223.952ZM23.576 220.925H73.2932V158.977H23.5701V220.925H23.576Z" fill="#2F61D6"/>
<path d="M76.3023 172.445H20.561V155.957H76.3023V172.445ZM23.576 169.418H73.2932V158.977H23.5701V169.418H23.576Z" fill="#2F61D6"/>
<path d="M76.3023 172.445H20.561V155.957H76.3023V172.445ZM23.576 169.418H73.2932V158.977H23.5701V169.418H23.576Z" fill="black" fill-opacity="0.2"/>
<path d="M32.2703 164.204C32.2703 165.441 31.2712 166.45 30.0325 166.45C28.7938 166.45 27.7947 165.447 27.7947 164.204C27.7947 162.96 28.7938 161.957 30.0325 161.957C31.2712 161.957 32.2703 162.96 32.2703 164.204Z" fill="#2F61D6"/>
<path d="M39.3695 164.204C39.3695 165.441 38.3703 166.45 37.1316 166.45C35.8929 166.45 34.8938 165.447 34.8938 164.204C34.8938 162.96 35.8929 161.957 37.1316 161.957C38.3703 161.957 39.3695 162.96 39.3695 164.204Z" fill="#2F61D6"/>
<path d="M67.5557 200.465H29.9858V203.492H67.5557V200.465Z" fill="#2F61D6"/>
<path d="M67.5557 206.325H29.9858V209.352H67.5557V206.325Z" fill="#2F61D6"/>
<path d="M42.5072 212.185H29.9858V215.212H42.5072V212.185Z" fill="#2F61D6"/>
<path d="M69.0571 197.861H27.7537V175.337H69.0571V197.861ZM30.7628 194.834H66.0422V178.364H30.7628V194.834Z" fill="#2F61D6"/>
<path d="M62.5658 182.962C62.5658 184.393 61.4089 185.555 59.9832 185.555C58.5575 185.555 57.4006 184.393 57.4006 182.962C57.4006 181.531 58.5575 180.37 59.9832 180.37C61.4089 180.37 62.5658 181.531 62.5658 182.962Z" fill="#2F61D6"/>
<path d="M69.0805 197.861H27.7771V187.931L28.9223 187.649C37.412 185.555 45.3292 187.215 52.3231 188.675C57.7044 189.802 62.7877 190.863 67.3043 190.054L67.5497 191.421H69.0805V197.861ZM30.7862 194.834H66.0656V193.268C61.5081 193.696 56.7287 192.693 51.7038 191.638C45.0429 190.242 38.1716 188.805 30.7862 190.324V194.84V194.834Z" fill="#2F61D6"/>
<path d="M93.3053 182.962C93.3053 184.704 91.8971 186.118 90.1618 186.118C88.4265 186.118 87.0183 184.704 87.0183 182.962C87.0183 181.22 88.4265 179.807 90.1618 179.807C91.8971 179.807 93.3053 181.22 93.3053 182.962Z" fill="#2F61D6"/>
<path d="M183.116 137.679C183.116 139.421 181.708 140.835 179.973 140.835C178.237 140.835 176.829 139.421 176.829 137.679C176.829 135.937 178.237 134.523 179.973 134.523C181.708 134.523 183.116 135.937 183.116 137.679Z" fill="#2F61D6"/>
<path d="M30.9439 143.991C30.9439 145.733 29.5358 147.146 27.8005 147.146C26.0651 147.146 24.657 145.733 24.657 143.991C24.657 142.249 26.0651 140.835 27.8005 140.835C29.5358 140.835 30.9439 142.249 30.9439 143.991Z" fill="white"/>
<path d="M134.673 228.75C136.409 228.75 137.816 227.337 137.816 225.594C137.816 223.851 136.409 222.438 134.673 222.438C132.937 222.438 131.53 223.851 131.53 225.594C131.53 227.337 132.937 228.75 134.673 228.75Z" fill="white"/>
<path d="M220.785 101.494C220.785 103.236 219.377 104.65 217.642 104.65C215.907 104.65 214.499 103.236 214.499 101.494C214.499 99.7518 215.907 98.3381 217.642 98.3381C219.377 98.3381 220.785 99.7518 220.785 101.494Z" fill="white"/>
<path d="M39.3871 77.3507C39.3871 79.0928 37.9789 80.5064 36.2436 80.5064C34.5082 80.5064 33.1001 79.0928 33.1001 77.3507C33.1001 75.6086 34.5082 74.1949 36.2436 74.1949C37.9789 74.1949 39.3871 75.6086 39.3871 77.3507Z" fill="white"/>
<path d="M159.973 33.4696C159.973 35.2117 158.565 36.6253 156.829 36.6253C155.094 36.6253 153.686 35.2117 153.686 33.4696C153.686 31.7275 155.094 30.3138 156.829 30.3138C158.565 30.3138 159.973 31.7275 159.973 33.4696Z" fill="white"/>
<path d="M88.1402 98.5199H69.8987V101.547H88.1402V98.5199Z" fill="white"/>
<path d="M98.1375 92.5663H79.896V95.593H98.1375V92.5663Z" fill="white"/>
<path d="M18.2415 115.525H0V118.551H18.2415V115.525Z" fill="white"/>
<path d="M28.2388 109.571H9.99731V112.598H28.2388V109.571Z" fill="white"/>
<path d="M240.003 137.591H221.761V140.618H240.003V137.591Z" fill="white"/>
<path d="M250 131.638H231.759V134.664H250V131.638Z" fill="white"/>
<path d="M128.316 5.95361H110.074V8.9803H128.316V5.95361Z" fill="white"/>
<path d="M138.313 0H120.072V3.02669H138.313V0Z" fill="white"/>
<path d="M74.7542 126.294H66.1125V134.969H74.7542V126.294Z" fill="white"/>
<path d="M76.2616 136.483H64.6108V124.786H76.2616V136.483ZM67.6199 133.456H73.2466V127.807H67.6199V133.456Z" fill="white"/>
<path d="M168.807 88.6714H160.165V97.3467H168.807V88.6714Z" fill="white"/>
<path d="M170.309 98.8601H158.652V87.1639H170.309V98.8601ZM161.667 95.8334H167.294V90.1848H161.667V95.8334Z" fill="white"/>
<path d="M91.3304 29.3459H82.6887V38.0213H91.3304V29.3459Z" fill="white"/>
<path d="M92.8377 39.5347H81.187V27.8385H92.8377V39.5347ZM84.1961 36.508H89.8228V30.8593H84.1961V36.508Z" fill="white"/>
<path d="M99.1948 220.542L93.0842 226.677L99.1948 232.811L105.305 226.677L99.1948 220.542Z" fill="white"/>
<path d="M99.1948 234.944L90.9563 226.673L99.1948 218.403L107.433 226.673L99.1948 234.944ZM95.2158 226.673L99.1948 230.668L103.174 226.673L99.1948 222.679L95.2158 226.673Z" fill="white"/>
<path d="M220.221 72.6535L214.111 78.7878L220.221 84.9222L226.332 78.7879L220.221 72.6535Z" fill="white"/>
<path d="M220.219 87.0643L211.98 78.7937L220.219 70.5231L228.457 78.7937L220.219 87.0643ZM216.24 78.7937L220.219 82.7882L224.198 78.7937L220.219 74.7991L216.24 78.7937Z" fill="white"/>
<path d="M36.1335 92.8489L30.0229 98.9833L36.1335 105.118L42.2441 98.9833L36.1335 92.8489Z" fill="white"/>
<path d="M36.1325 107.248L27.894 98.9775L36.1325 90.7069L44.371 98.9775L36.1325 107.248ZM32.1535 98.9775L36.1325 102.972L40.1115 98.9775L36.1325 94.983L32.1535 98.9775Z" fill="white"/>
</g>
<defs>
<clipPath id="clip0_285_150">
<rect width="250" height="246.652" fill="white"/>
</clipPath>
</defs>
</svg>
