<svg width="253" height="213" viewBox="0 0 253 213" fill="none" xmlns="http://www.w3.org/2000/svg">
<g clip-path="url(#clip0_201_35)">
<path d="M148.185 197.29H43.851V185.54H148.18V197.29H148.185ZM46.7197 194.425H145.322V188.405H46.7144V194.425H46.7197Z" fill="url(#paint0_linear_201_35)"/>
<path d="M117.403 188.405H71.6707V165.986H74.5341V185.54H114.539V165.986H117.403V188.405Z" fill="url(#paint1_linear_201_35)"/>
<path d="M189.178 164.553H2.86348V44.5297H124.232V41.6639H0V167.419H192.041V150.062H189.178V164.553Z" fill="url(#paint2_linear_201_35)"/>
<path d="M147.966 147.704H1.43176V150.57H147.966V147.704Z" fill="url(#paint3_linear_201_35)"/>
<path d="M126.166 140.628H10.0745V50.6953H126.166V140.628ZM12.0078 137.762H124.232V53.5611H12.0078V137.762Z" fill="url(#paint4_linear_201_35)"/>
<path d="M223.346 150.569H123.302V21.1117H223.346V150.569ZM126.166 147.704H220.483V23.9775H126.166V147.704Z" fill="url(#paint5_linear_201_35)"/>
<path d="M206.996 96.5115H133.136V79.9861H206.996V96.5115ZM136 93.6457H204.133V82.8519H136V93.6457Z" fill="url(#paint6_linear_201_35)"/>
<path d="M206.996 117.508H133.136V100.983H206.996V117.508ZM136 114.642H204.133V103.849H136V114.642Z" fill="url(#paint7_linear_201_35)"/>
<path d="M190.641 34.0916H149.209C148.419 34.0916 147.778 34.7331 147.778 35.5245C147.778 36.3158 148.419 36.9573 149.209 36.9573H190.641C191.432 36.9573 192.073 36.3158 192.073 35.5245C192.073 34.7331 191.432 34.0916 190.641 34.0916Z" fill="#F6A11D"/>
<path d="M222.949 40.299H203.992V21.3262H222.949V40.299ZM206.855 37.4332H220.086V24.192H206.855V37.4332Z" fill="url(#paint8_linear_201_35)"/>
<path d="M170.523 73.1667C161.975 73.1667 155.02 66.2062 155.02 57.6506C155.02 49.0951 161.975 42.1345 170.523 42.1345C179.072 42.1345 186.022 49.0951 186.022 57.6506C186.022 66.2062 179.067 73.1667 170.523 73.1667ZM170.523 45.0003C163.553 45.0003 157.883 50.6744 157.883 57.6506C157.883 64.6269 163.553 70.3009 170.523 70.3009C177.494 70.3009 183.158 64.6269 183.158 57.6506C183.158 50.6744 177.489 45.0003 170.523 45.0003Z" fill="#F6A11D"/>
<path d="M92.5928 60.1923H21.7217C20.9309 60.1923 20.2899 60.8338 20.2899 61.6252C20.2899 62.4165 20.9309 63.0581 21.7217 63.0581H92.5928C93.3835 63.0581 94.0245 62.4165 94.0245 61.6252C94.0245 60.8338 93.3835 60.1923 92.5928 60.1923Z" fill="#F6A11D"/>
<path d="M48.5642 79.7194H21.7217C20.9309 79.7194 20.2899 80.3609 20.2899 81.1523C20.2899 81.9436 20.9309 82.5852 21.7217 82.5852H48.5642C49.3549 82.5852 49.9959 81.9436 49.9959 81.1523C49.9959 80.3609 49.3549 79.7194 48.5642 79.7194Z" fill="#F6A11D"/>
<path d="M33.7086 69.9558H21.7217C20.9309 69.9558 20.2899 70.5973 20.2899 71.3887C20.2899 72.1801 20.9309 72.8216 21.7217 72.8216H33.7086C34.4993 72.8216 35.1403 72.1801 35.1403 71.3887C35.1403 70.5973 34.4993 69.9558 33.7086 69.9558Z" fill="#F6A11D"/>
<path d="M62.5419 89.483H21.7217C20.9309 89.483 20.2899 90.1246 20.2899 90.9159C20.2899 91.7073 20.9309 92.3488 21.7217 92.3488H62.5419C63.3327 92.3488 63.9737 91.7073 63.9737 90.9159C63.9737 90.1246 63.3327 89.483 62.5419 89.483Z" fill="url(#paint9_linear_201_35)"/>
<path d="M92.5928 109.01H21.7217C20.9309 109.01 20.2899 109.652 20.2899 110.443C20.2899 111.234 20.9309 111.876 21.7217 111.876H92.5928C93.3835 111.876 94.0245 111.234 94.0245 110.443C94.0245 109.652 93.3835 109.01 92.5928 109.01Z" fill="url(#paint10_linear_201_35)"/>
<path d="M51.8823 99.2466H32.9039C32.1132 99.2466 31.4722 99.8881 31.4722 100.679C31.4722 101.471 32.1132 102.112 32.9039 102.112H51.8823C52.673 102.112 53.314 101.471 53.314 100.679C53.314 99.8881 52.673 99.2466 51.8823 99.2466Z" fill="#F6A11D"/>
<path d="M120.042 118.774H32.1567C31.366 118.774 30.725 119.415 30.725 120.207C30.725 120.998 31.366 121.64 32.1567 121.64H120.042C120.832 121.64 121.473 120.998 121.473 120.207C121.473 119.415 120.832 118.774 120.042 118.774Z" fill="url(#paint11_linear_201_35)"/>
<path d="M39.007 128.537H21.7217C20.9309 128.537 20.2899 129.179 20.2899 129.97C20.2899 130.762 20.9309 131.403 21.7217 131.403H39.007C39.7978 131.403 40.4388 130.762 40.4388 129.97C40.4388 129.179 39.7978 128.537 39.007 128.537Z" fill="#F6A11D"/>
<path d="M116.431 89.483H75.6106C74.8198 89.483 74.1788 90.1246 74.1788 90.9159C74.1788 91.7073 74.8198 92.3488 75.6106 92.3488H116.431C117.222 92.3488 117.863 91.7073 117.863 90.9159C117.863 90.1246 117.222 89.483 116.431 89.483Z" fill="#F6A11D"/>
<path d="M64.5486 128.537H47.2632C46.4724 128.537 45.8314 129.179 45.8314 129.97C45.8314 130.762 46.4724 131.403 47.2632 131.403H64.5486C65.3393 131.403 65.9803 130.762 65.9803 129.97C65.9803 129.179 65.3393 128.537 64.5486 128.537Z" fill="#F6A11D"/>
<path d="M68.3055 99.2466H58.8529C58.0622 99.2466 57.4211 99.8881 57.4211 100.679C57.4211 101.471 58.0622 102.112 58.8529 102.112H68.3055C69.0962 102.112 69.7372 101.471 69.7372 100.679C69.7372 99.8881 69.0962 99.2466 68.3055 99.2466Z" fill="#F6A11D"/>
<path d="M94.0559 162.054C91.067 162.054 88.6372 159.622 88.6372 156.631C88.6372 153.639 91.067 151.208 94.0559 151.208C97.0448 151.208 99.4693 153.639 99.4693 156.631C99.4693 159.622 97.0448 162.054 94.0559 162.054ZM94.0559 154.079C92.6503 154.079 91.5007 155.224 91.5007 156.636C91.5007 158.048 92.645 159.193 94.0559 159.193C95.4667 159.193 96.6058 158.048 96.6058 156.636C96.6058 155.224 95.4615 154.079 94.0559 154.079Z" fill="#F6A11D"/>
<path d="M54.4688 69.9558H42.4819C41.6912 69.9558 41.0502 70.5973 41.0502 71.3887C41.0502 72.1801 41.6912 72.8216 42.4819 72.8216H54.4688C55.2595 72.8216 55.9006 72.1801 55.9006 71.3887C55.9006 70.5973 55.2595 69.9558 54.4688 69.9558Z" fill="#F6A11D"/>
<path d="M186.445 129.662H155.328C154.537 129.662 153.896 130.303 153.896 131.095C153.896 131.886 154.537 132.528 155.328 132.528H186.445C187.236 132.528 187.877 131.886 187.877 131.095C187.877 130.303 187.236 129.662 186.445 129.662Z" fill="#F6A11D"/>
<path d="M64.9613 21.4569L56.6217 13.1105L64.9613 4.76416L73.301 13.1105L64.9613 21.4569ZM60.6713 13.1105L64.9613 17.404L69.2513 13.1105L64.9613 8.81707L60.6713 13.1105Z" fill="url(#paint12_linear_201_35)"/>
<path d="M177.429 184.566L171.115 190.886L177.429 197.205L183.744 190.886L177.429 184.566Z" fill="#F6A11D"/>
<path d="M177.426 199.231L169.086 190.884L177.426 182.538L185.766 190.884L177.426 199.231ZM173.136 190.884L177.426 195.178L181.716 190.884L177.426 186.591L173.136 190.884Z" fill="#F6A11D"/>
<path d="M22.889 181.954L16.5745 188.274L22.889 194.593L29.2035 188.274L22.889 181.954Z" fill="#F6A11D"/>
<path d="M22.8818 196.621L14.5474 188.275L22.8818 179.928L31.2214 188.275L22.8818 196.621ZM18.597 188.275L22.8818 192.568L27.1718 188.275L22.8818 183.981L18.597 188.275Z" fill="#F6A11D"/>
<path d="M80.5955 79.2749H68.8019V67.4718H80.5955V79.2749ZM71.6654 76.4091H77.732V70.3376H71.6654V76.4091Z" fill="url(#paint13_linear_201_35)"/>
<path d="M165.622 3.14819H156.692V12.0855H165.622V3.14819Z" fill="#F6A11D"/>
<path d="M167.059 13.5185H155.265V1.71533H167.059V13.5185ZM158.129 10.6527H164.196V4.58113H158.129V10.6527Z" fill="#F6A11D"/>
<path d="M24.5852 30.1066H5.73743V32.9724H24.5852V30.1066Z" fill="#F6A11D"/>
<path d="M34.9209 23.9723H16.0679V26.8381H34.9209V23.9723Z" fill="#F6A11D"/>
<path d="M110.181 210.134H91.3284V213H110.181V210.134Z" fill="#F6A11D"/>
<path d="M120.512 204H101.659V206.866H120.512V204Z" fill="#F6A11D"/>
<path d="M218.732 174.62H199.879V177.486H218.732V174.62Z" fill="#F6A11D"/>
<path d="M229.063 168.486H210.21V171.352H229.063V168.486Z" fill="#F6A11D"/>
<path d="M99.4851 27.8735H80.6321V30.7393H99.4851V27.8735Z" fill="#F6A11D"/>
<path d="M109.816 21.7393H90.9625V24.6051H109.816V21.7393Z" fill="#F6A11D"/>
<path d="M91.6105 3.25279C91.6105 5.04653 90.1579 6.50557 88.3604 6.50557C86.5629 6.50557 85.1102 5.05175 85.1102 3.25279C85.1102 1.45382 86.5629 0 88.3604 0C90.1579 0 91.6105 1.45382 91.6105 3.25279Z" fill="#F6A11D"/>
<path d="M26.1319 99.9996C26.1319 101.793 24.6793 103.252 22.8817 103.252C21.0842 103.252 19.6316 101.799 19.6316 99.9996C19.6316 98.2006 21.0842 96.7468 22.8817 96.7468C24.6793 96.7468 26.1319 98.2006 26.1319 99.9996Z" fill="#F6A11D"/>
<path d="M253 149.785H241.938V151.354H253V149.785Z" fill="#010101"/>
</g>
<defs>
<linearGradient id="paint0_linear_201_35" x1="43.851" y1="191.418" x2="148.185" y2="191.418" gradientUnits="userSpaceOnUse">
<stop stop-color="#DD1F26"/>
<stop offset="1" stop-color="#662874"/>
</linearGradient>
<linearGradient id="paint1_linear_201_35" x1="71.6707" y1="177.198" x2="117.403" y2="177.198" gradientUnits="userSpaceOnUse">
<stop stop-color="#DD1F26"/>
<stop offset="1" stop-color="#662874"/>
</linearGradient>
<linearGradient id="paint2_linear_201_35" x1="0" y1="104.539" x2="192.041" y2="104.539" gradientUnits="userSpaceOnUse">
<stop stop-color="#DD1F26"/>
<stop offset="1" stop-color="#662874"/>
</linearGradient>
<linearGradient id="paint3_linear_201_35" x1="1.43176" y1="149.137" x2="147.966" y2="149.137" gradientUnits="userSpaceOnUse">
<stop stop-color="#DD1F26"/>
<stop offset="1" stop-color="#662874"/>
</linearGradient>
<linearGradient id="paint4_linear_201_35" x1="10.0745" y1="95.6643" x2="126.166" y2="95.6643" gradientUnits="userSpaceOnUse">
<stop stop-color="#DD1F26"/>
<stop offset="1" stop-color="#662874"/>
</linearGradient>
<linearGradient id="paint5_linear_201_35" x1="123.302" y1="85.8432" x2="223.346" y2="85.8432" gradientUnits="userSpaceOnUse">
<stop stop-color="#DD1F26"/>
<stop offset="1" stop-color="#662874"/>
</linearGradient>
<linearGradient id="paint6_linear_201_35" x1="133.131" y1="88.2488" x2="206.996" y2="88.2488" gradientUnits="userSpaceOnUse">
<stop stop-color="#DD1F26"/>
<stop offset="1" stop-color="#662874"/>
</linearGradient>
<linearGradient id="paint7_linear_201_35" x1="133.131" y1="109.245" x2="206.996" y2="109.245" gradientUnits="userSpaceOnUse">
<stop stop-color="#DD1F26"/>
<stop offset="1" stop-color="#662874"/>
</linearGradient>
<linearGradient id="paint8_linear_201_35" x1="203.986" y1="30.8126" x2="222.949" y2="30.8126" gradientUnits="userSpaceOnUse">
<stop stop-color="#DD1F26"/>
<stop offset="1" stop-color="#662874"/>
</linearGradient>
<linearGradient id="paint9_linear_201_35" x1="20.2899" y1="90.9159" x2="63.9737" y2="90.9159" gradientUnits="userSpaceOnUse">
<stop stop-color="#DD1F26"/>
<stop offset="1" stop-color="#662874"/>
</linearGradient>
<linearGradient id="paint10_linear_201_35" x1="20.2899" y1="110.443" x2="94.0245" y2="110.443" gradientUnits="userSpaceOnUse">
<stop stop-color="#DD1F26"/>
<stop offset="1" stop-color="#662874"/>
</linearGradient>
<linearGradient id="paint11_linear_201_35" x1="30.725" y1="120.207" x2="121.473" y2="120.207" gradientUnits="userSpaceOnUse">
<stop stop-color="#DD1F26"/>
<stop offset="1" stop-color="#662874"/>
</linearGradient>
<linearGradient id="paint12_linear_201_35" x1="56.6217" y1="13.1105" x2="73.301" y2="13.1105" gradientUnits="userSpaceOnUse">
<stop stop-color="#DD1F26"/>
<stop offset="1" stop-color="#662874"/>
</linearGradient>
<linearGradient id="paint13_linear_201_35" x1="68.8019" y1="73.376" x2="80.5955" y2="73.376" gradientUnits="userSpaceOnUse">
<stop stop-color="#DD1F26"/>
<stop offset="1" stop-color="#662874"/>
</linearGradient>
<clipPath id="clip0_201_35">
<rect width="253" height="213" fill="white"/>
</clipPath>
</defs>
</svg>
