<svg width="253" height="213" viewBox="0 0 253 213" fill="none" xmlns="http://www.w3.org/2000/svg">
<g clip-path="url(#clip0_285_236)">
<path d="M148.185 197.29H43.8511V185.54H148.18V197.29H148.185ZM46.7198 194.425H145.322V188.405H46.7146V194.425H46.7198Z" fill="white"/>
<path d="M117.403 188.405H71.6707V165.986H74.5341V185.54H114.539V165.986H117.403V188.405Z" fill="white"/>
<path d="M189.178 164.553H2.86348V44.5297H124.232V41.6639H0V167.419H192.041V150.062H189.178V164.553Z" fill="white"/>
<path d="M147.966 147.704H1.43164V150.57H147.966V147.704Z" fill="white"/>
<path d="M126.166 140.628H10.0745V50.6953H126.166V140.628ZM12.0078 137.762H124.232V53.5611H12.0078V137.762Z" fill="#2F61D6"/>
<path d="M223.346 150.569H123.302V21.1117H223.346V150.569ZM126.165 147.704H220.483V23.9775H126.165V147.704Z" fill="white"/>
<path d="M206.996 96.5115H133.136V79.9861H206.996V96.5115ZM136 93.6457H204.133V82.8519H136V93.6457Z" fill="#2F61D6"/>
<path d="M206.996 117.508H133.136V100.983H206.996V117.508ZM136 114.642H204.133V103.849H136V114.642Z" fill="#2F61D6"/>
<path d="M190.641 34.0916H149.209C148.419 34.0916 147.778 34.7331 147.778 35.5245C147.778 36.3158 148.419 36.9573 149.209 36.9573H190.641C191.432 36.9573 192.073 36.3158 192.073 35.5245C192.073 34.7331 191.432 34.0916 190.641 34.0916Z" fill="#2F61D6"/>
<path d="M222.949 40.299H203.992V21.3262H222.949V40.299ZM206.855 37.4332H220.086V24.192H206.855V37.4332Z" fill="#2F61D6"/>
<path d="M170.523 73.1667C161.975 73.1667 155.02 66.2062 155.02 57.6506C155.02 49.0951 161.975 42.1345 170.523 42.1345C179.072 42.1345 186.022 49.0951 186.022 57.6506C186.022 66.2062 179.067 73.1667 170.523 73.1667ZM170.523 45.0003C163.553 45.0003 157.883 50.6744 157.883 57.6506C157.883 64.6269 163.553 70.3009 170.523 70.3009C177.494 70.3009 183.158 64.6269 183.158 57.6506C183.158 50.6744 177.489 45.0003 170.523 45.0003Z" fill="#2F61D6"/>
<path d="M92.5929 60.1923H21.7218C20.931 60.1923 20.29 60.8338 20.29 61.6252C20.29 62.4165 20.931 63.0581 21.7218 63.0581H92.5929C93.3836 63.0581 94.0247 62.4165 94.0247 61.6252C94.0247 60.8338 93.3836 60.1923 92.5929 60.1923Z" fill="#2F61D6"/>
<path d="M48.5643 79.7194H21.7218C20.931 79.7194 20.29 80.3609 20.29 81.1523C20.29 81.9436 20.931 82.5852 21.7218 82.5852H48.5643C49.355 82.5852 49.996 81.9436 49.996 81.1523C49.996 80.3609 49.355 79.7194 48.5643 79.7194Z" fill="#2F61D6"/>
<path d="M33.7087 69.9558H21.7218C20.931 69.9558 20.29 70.5973 20.29 71.3887C20.29 72.1801 20.931 72.8216 21.7218 72.8216H33.7087C34.4994 72.8216 35.1404 72.1801 35.1404 71.3887C35.1404 70.5973 34.4994 69.9558 33.7087 69.9558Z" fill="#2F61D6"/>
<path d="M62.5421 89.483H21.7218C20.931 89.483 20.29 90.1246 20.29 90.9159C20.29 91.7073 20.931 92.3488 21.7218 92.3488H62.5421C63.3328 92.3488 63.9738 91.7073 63.9738 90.9159C63.9738 90.1246 63.3328 89.483 62.5421 89.483Z" fill="#2F61D6"/>
<path d="M92.5929 109.01H21.7218C20.931 109.01 20.29 109.652 20.29 110.443C20.29 111.234 20.931 111.876 21.7218 111.876H92.5929C93.3836 111.876 94.0247 111.234 94.0247 110.443C94.0247 109.652 93.3836 109.01 92.5929 109.01Z" fill="#2F61D6"/>
<path d="M51.8823 99.2466H32.9039C32.1132 99.2466 31.4722 99.8881 31.4722 100.679C31.4722 101.471 32.1132 102.112 32.9039 102.112H51.8823C52.673 102.112 53.314 101.471 53.314 100.679C53.314 99.8881 52.673 99.2466 51.8823 99.2466Z" fill="#2F61D6"/>
<path d="M120.317 119H32.4317C31.641 119 31 119.642 31 120.433C31 121.224 31.641 121.866 32.4317 121.866H120.317C121.107 121.866 121.748 121.224 121.748 120.433C121.748 119.642 121.107 119 120.317 119Z" fill="#2F61D6"/>
<path d="M39.0072 128.537H21.7218C20.931 128.537 20.29 129.179 20.29 129.97C20.29 130.762 20.931 131.403 21.7218 131.403H39.0072C39.7979 131.403 40.4389 130.762 40.4389 129.97C40.4389 129.179 39.7979 128.537 39.0072 128.537Z" fill="#2F61D6"/>
<path d="M116.431 89.483H75.6104C74.8197 89.483 74.1787 90.1246 74.1787 90.9159C74.1787 91.7073 74.8197 92.3488 75.6104 92.3488H116.431C117.221 92.3488 117.862 91.7073 117.862 90.9159C117.862 90.1246 117.221 89.483 116.431 89.483Z" fill="#2F61D6"/>
<path d="M64.5484 128.537H47.263C46.4723 128.537 45.8313 129.179 45.8313 129.97C45.8313 130.762 46.4723 131.403 47.263 131.403H64.5484C65.3392 131.403 65.9802 130.762 65.9802 129.97C65.9802 129.179 65.3392 128.537 64.5484 128.537Z" fill="#2F61D6"/>
<path d="M68.3055 99.2466H58.8529C58.0622 99.2466 57.4211 99.8881 57.4211 100.679C57.4211 101.471 58.0622 102.112 58.8529 102.112H68.3055C69.0962 102.112 69.7372 101.471 69.7372 100.679C69.7372 99.8881 69.0962 99.2466 68.3055 99.2466Z" fill="#2F61D6"/>
<path d="M94.0559 162.054C91.067 162.054 88.6372 159.622 88.6372 156.631C88.6372 153.639 91.067 151.208 94.0559 151.208C97.0448 151.208 99.4693 153.639 99.4693 156.631C99.4693 159.622 97.0448 162.054 94.0559 162.054ZM94.0559 154.079C92.6503 154.079 91.5007 155.224 91.5007 156.636C91.5007 158.048 92.645 159.193 94.0559 159.193C95.4667 159.193 96.6058 158.048 96.6058 156.636C96.6058 155.224 95.4615 154.079 94.0559 154.079Z" fill="#2F61D6"/>
<path d="M54.4689 69.9558H42.482C41.6913 69.9558 41.0503 70.5973 41.0503 71.3887C41.0503 72.1801 41.6913 72.8216 42.482 72.8216H54.4689C55.2597 72.8216 55.9007 72.1801 55.9007 71.3887C55.9007 70.5973 55.2597 69.9558 54.4689 69.9558Z" fill="#2F61D6"/>
<path d="M186.445 129.662H155.328C154.538 129.662 153.896 130.303 153.896 131.095C153.896 131.886 154.538 132.528 155.328 132.528H186.445C187.236 132.528 187.877 131.886 187.877 131.095C187.877 130.303 187.236 129.662 186.445 129.662Z" fill="#2F61D6"/>
<path d="M64.9612 21.4569L56.6216 13.1105L64.9612 4.76416L73.3008 13.1105L64.9612 21.4569ZM60.6712 13.1105L64.9612 17.404L69.2512 13.1105L64.9612 8.81707L60.6712 13.1105Z" fill="url(#paint0_linear_285_236)"/>
<path d="M177.429 184.566L171.115 190.886L177.429 197.205L183.744 190.886L177.429 184.566Z" fill="#FDFBF8"/>
<path d="M177.426 199.231L169.086 190.884L177.426 182.538L185.766 190.884L177.426 199.231ZM173.136 190.884L177.426 195.178L181.716 190.884L177.426 186.591L173.136 190.884Z" fill="#2F61D6"/>
<path d="M22.889 181.954L16.5745 188.274L22.889 194.593L29.2035 188.274L22.889 181.954Z" fill="#2F61D6"/>
<path d="M22.8818 196.621L14.5474 188.275L22.8818 179.928L31.2214 188.275L22.8818 196.621ZM18.597 188.275L22.8818 192.568L27.1718 188.275L22.8818 183.981L18.597 188.275Z" fill="#FDFBF8"/>
<path d="M80.5956 79.2749H68.802V67.4718H80.5956V79.2749ZM71.6655 76.4091H77.7321V70.3376H71.6655V76.4091Z" fill="#2F61D6"/>
<path d="M165.622 3.14819H156.692V12.0855H165.622V3.14819Z" fill="#FDFBF8"/>
<path d="M167.059 13.5185H155.265V1.71533H167.059V13.5185ZM158.129 10.6527H164.195V4.58113H158.129V10.6527Z" fill="#FDFBF8"/>
<path d="M24.5851 30.1066H5.7373V32.9724H24.5851V30.1066Z" fill="#2F61D6"/>
<path d="M34.9209 23.9723H16.0679V26.8381H34.9209V23.9723Z" fill="#2F61D6"/>
<path d="M110.181 210.134H91.3284V213H110.181V210.134Z" fill="#FDFBF8"/>
<path d="M120.512 204H101.659V206.866H120.512V204Z" fill="#FDFBF8"/>
<path d="M218.732 174.62H199.879V177.486H218.732V174.62Z" fill="#FDFBF8"/>
<path d="M229.063 168.486H210.21V171.352H229.063V168.486Z" fill="#FDFBF8"/>
<path d="M99.4851 27.8735H80.6321V30.7393H99.4851V27.8735Z" fill="#FDFBF8"/>
<path d="M109.816 21.7393H90.9626V24.6051H109.816V21.7393Z" fill="#FDFBF8"/>
<path d="M91.6104 3.25279C91.6104 5.04653 90.1578 6.50557 88.3603 6.50557C86.5627 6.50557 85.1101 5.05175 85.1101 3.25279C85.1101 1.45382 86.5627 0 88.3603 0C90.1578 0 91.6104 1.45382 91.6104 3.25279Z" fill="#2F61D6"/>
<path d="M26.1319 99.9996C26.1319 101.793 24.6793 103.252 22.8817 103.252C21.0842 103.252 19.6316 101.799 19.6316 99.9996C19.6316 98.2006 21.0842 96.7468 22.8817 96.7468C24.6793 96.7468 26.1319 98.2006 26.1319 99.9996Z" fill="#2F61D6"/>
<path d="M253 149.785H241.938V151.354H253V149.785Z" fill="white"/>
</g>
<defs>
<linearGradient id="paint0_linear_285_236" x1="56.6216" y1="13.1105" x2="73.3008" y2="13.1105" gradientUnits="userSpaceOnUse">
<stop stop-color="white"/>
<stop offset="1" stop-color="white"/>
</linearGradient>
<clipPath id="clip0_285_236">
<rect width="253" height="213" fill="white"/>
</clipPath>
</defs>
</svg>
