<svg width="27" height="28" viewBox="0 0 27 28" fill="none" xmlns="http://www.w3.org/2000/svg">
<path fill-rule="evenodd" clip-rule="evenodd" d="M13.5 0.642578C9.9692 0.642578 9.5272 0.657824 8.14053 0.723292C6.75647 0.788759 5.81093 1.01655 4.98413 1.34927C4.11747 1.68647 3.3314 2.2156 2.6814 2.90076C2.02033 3.5726 1.50868 4.38544 1.18207 5.28271C0.862267 6.13827 0.641267 7.1176 0.578 8.54982C0.5156 9.98383 0.5 10.4403 0.5 14.0948C0.5 17.7494 0.514733 18.2058 0.578 19.6408C0.641267 21.073 0.8614 22.0514 1.18293 22.907C1.5088 23.8038 2.02013 24.6172 2.68227 25.2898C3.33153 25.9739 4.11704 26.5033 4.98413 26.8413C5.81093 27.1731 6.75647 27.4009 8.14053 27.4664C9.5272 27.5318 9.9692 27.5471 13.5 27.5471C17.0308 27.5471 17.4728 27.5318 18.8595 27.4664C20.2435 27.4009 21.1891 27.1731 22.0159 26.8404C22.8825 26.5032 23.6686 25.9741 24.3186 25.2889C24.9797 24.6171 25.4913 23.8042 25.8179 22.907C26.1386 22.0514 26.3587 21.073 26.422 19.6408C26.4853 18.2058 26.5 17.7485 26.5 14.0948C26.5 10.4412 26.4853 9.98383 26.422 8.54892C26.3587 7.1167 26.1386 6.13827 25.8171 5.28271C25.4907 4.38505 24.979 3.57187 24.3177 2.89987C23.6685 2.21579 22.883 1.68635 22.0159 1.34837C21.1891 1.01745 20.2427 0.788759 18.8586 0.723292C17.4728 0.658721 17.0317 0.642578 13.5 0.642578ZM13.5 3.06667C16.971 3.06667 17.3827 3.08013 18.7537 3.1447C20.0208 3.20478 20.7089 3.42271 21.1674 3.60835C21.7741 3.85139 22.2074 4.14375 22.6624 4.61368C23.1174 5.08451 23.3991 5.53292 23.6339 6.16069C23.8125 6.63511 24.0239 7.34718 24.082 8.65833C24.1444 10.0771 24.1574 10.5031 24.1574 14.0948C24.1574 17.6866 24.1444 18.1126 24.082 19.5313C24.0239 20.8425 23.8133 21.5546 23.6339 22.029C23.4259 22.6133 23.0939 23.1419 22.6624 23.576C22.243 24.0226 21.7321 24.3661 21.1674 24.5813C20.7089 24.7661 20.0208 24.9849 18.7537 25.045C17.3827 25.1095 16.9719 25.123 13.5 25.123C10.0281 25.123 9.61733 25.1095 8.24627 25.045C6.9792 24.9849 6.29107 24.767 5.8326 24.5813C5.26793 24.366 4.75707 24.0225 4.3376 23.576C3.90615 23.1419 3.57418 22.6133 3.36607 22.029C3.18753 21.5546 2.97607 20.8425 2.918 19.5313C2.8556 18.1126 2.8426 17.6866 2.8426 14.0948C2.8426 10.5031 2.8556 10.0771 2.918 8.65833C2.97607 7.34718 3.18667 6.63511 3.36607 6.16069C3.60093 5.53292 3.88347 5.08451 4.3376 4.61368C4.75702 4.16711 5.26789 3.82357 5.8326 3.60835C6.29107 3.42361 6.9792 3.20478 8.24627 3.1447C9.61733 3.08013 10.029 3.06667 13.5 3.06667Z" fill="white"/>
<path fill-rule="evenodd" clip-rule="evenodd" d="M13.5001 18.5834C12.9305 18.5834 12.3664 18.4673 11.8402 18.2418C11.3139 18.0162 10.8357 17.6856 10.4329 17.2688C10.0301 16.852 9.71062 16.3572 9.49263 15.8126C9.27465 15.268 9.16245 14.6843 9.16245 14.0949C9.16245 13.5054 9.27465 12.9217 9.49263 12.3772C9.71062 11.8326 10.0301 11.3378 10.4329 10.921C10.8357 10.5042 11.3139 10.1735 11.8402 9.94798C12.3664 9.7224 12.9305 9.6063 13.5001 9.6063C14.6505 9.6063 15.7538 10.0792 16.5673 10.921C17.3808 11.7627 17.8378 12.9044 17.8378 14.0949C17.8378 15.2853 17.3808 16.427 16.5673 17.2688C15.7538 18.1105 14.6505 18.5834 13.5001 18.5834ZM13.5001 7.18041C11.7279 7.18041 10.0283 7.9089 8.77523 9.20561C7.52211 10.5023 6.81812 12.261 6.81812 14.0949C6.81812 15.9287 7.52211 17.6874 8.77523 18.9841C10.0283 20.2808 11.7279 21.0093 13.5001 21.0093C15.2723 21.0093 16.9719 20.2808 18.225 18.9841C19.4781 17.6874 20.1821 15.9287 20.1821 14.0949C20.1821 12.261 19.4781 10.5023 18.225 9.20561C16.9719 7.9089 15.2723 7.18041 13.5001 7.18041ZM22.126 7.05486C22.126 7.48834 21.9596 7.90407 21.6634 8.21059C21.3672 8.51711 20.9655 8.68931 20.5465 8.68931C20.1276 8.68931 19.7259 8.51711 19.4297 8.21059C19.1335 7.90407 18.967 7.48834 18.967 7.05486C18.967 6.62138 19.1335 6.20565 19.4297 5.89913C19.7259 5.59261 20.1276 5.42041 20.5465 5.42041C20.9655 5.42041 21.3672 5.59261 21.6634 5.89913C21.9596 6.20565 22.126 6.62138 22.126 7.05486Z" fill="white"/>
</svg>
