<svg width="27" height="28" viewBox="0 0 27 28" fill="none" xmlns="http://www.w3.org/2000/svg">
<path d="M26.5 2.62085V25.5688C26.5 26.0935 26.2986 26.5967 25.9401 26.9677C25.5815 27.3387 25.0953 27.5471 24.5882 27.5471H2.41176C1.90473 27.5471 1.41847 27.3387 1.05994 26.9677C0.701418 26.5967 0.5 26.0935 0.5 25.5688V2.62085C0.5 2.09618 0.701418 1.593 1.05994 1.222C1.41847 0.851003 1.90473 0.642578 2.41176 0.642578H24.5882C25.0953 0.642578 25.5815 0.851003 25.9401 1.222C26.2986 1.593 26.5 2.09618 26.5 2.62085ZM8.14706 10.9296H4.32353V23.5905H8.14706V10.9296ZM8.49118 6.5774C8.49319 6.27812 8.43822 5.98136 8.3294 5.70406C8.22058 5.42676 8.06004 5.17436 7.85695 4.96127C7.65386 4.74818 7.4122 4.57857 7.14577 4.46212C6.87933 4.34567 6.59334 4.28467 6.30412 4.2826H6.23529C5.64714 4.2826 5.08307 4.52437 4.66718 4.95473C4.25129 5.38509 4.01765 5.96878 4.01765 6.5774C4.01765 7.18602 4.25129 7.76971 4.66718 8.20006C5.08307 8.63042 5.64714 8.87219 6.23529 8.87219C6.52453 8.87956 6.81234 8.82787 7.08227 8.7201C7.3522 8.61232 7.59896 8.45056 7.80846 8.24407C8.01795 8.03757 8.18608 7.79039 8.30322 7.51663C8.42036 7.24288 8.48423 6.94792 8.49118 6.64862V6.5774ZM22.6765 15.899C22.6765 12.0928 20.3365 10.6131 18.0118 10.6131C17.2506 10.5736 16.4928 10.7414 15.8138 11.0996C15.1349 11.4578 14.5586 11.994 14.1424 12.6547H14.0353V10.9296H10.4412V23.5905H14.2647V16.8565C14.2094 16.1668 14.4194 15.4824 14.8489 14.952C15.2785 14.4216 15.8929 14.088 16.5588 14.0236H16.7041C17.92 14.0236 18.8224 14.8149 18.8224 16.809V23.5905H22.6459L22.6765 15.899Z" fill="white"/>
</svg>
