<svg width="36" height="44" viewBox="0 0 36 44" fill="none" xmlns="http://www.w3.org/2000/svg">
<path fill-rule="evenodd" clip-rule="evenodd" d="M17.8708 4.76134C14.3054 4.76134 10.8859 6.17771 8.36478 8.69879C5.84374 11.2198 4.4276 14.6391 4.4276 18.2046C4.4276 25.2676 7.91835 30.5684 11.544 34.1782C13.3528 35.9791 15.1667 37.3282 16.5274 38.2254C17.0554 38.5735 17.5124 38.8518 17.8708 39.0605C18.2293 38.8518 18.6863 38.5735 19.2142 38.2254C20.575 37.3282 22.3889 35.9791 24.1977 34.1782C27.8233 30.5684 31.3141 25.2676 31.3141 18.2046C31.3141 14.6393 29.8976 11.2199 27.3764 8.69879C24.8553 6.17767 21.4362 4.76134 17.8708 4.76134ZM17.8708 41.2501C17.0241 42.9738 17.0233 42.9735 17.0225 42.9731L17.0206 42.9721L17.0158 42.9697L17.0019 42.9628L16.9576 42.9405C16.9209 42.9219 16.87 42.8958 16.8058 42.862C16.6773 42.7946 16.4956 42.6969 16.2681 42.5688C15.8135 42.3127 15.1747 41.9342 14.4131 41.432C12.8931 40.4298 10.8661 38.9233 8.83399 36.9001C4.77777 32.8616 0.58667 26.6397 0.58667 18.2046C0.58667 13.6206 2.40737 9.22431 5.64884 5.98284C8.89027 2.74141 13.2868 0.92041 17.8708 0.92041C22.4549 0.92041 26.851 2.74146 30.0924 5.98284C33.3337 9.2242 35.155 13.6205 35.155 18.2046C35.155 26.6397 30.9639 32.8616 26.9077 36.9001C24.8756 38.9233 22.8485 40.4298 21.3286 41.432C20.567 41.9342 19.9282 42.3127 19.4735 42.5688C19.2461 42.6969 19.0643 42.7946 18.9359 42.862C18.8717 42.8958 18.8207 42.9219 18.7841 42.9405L18.7398 42.9628L18.7259 42.9697L18.7211 42.9721L18.7192 42.9731C18.7183 42.9735 18.7176 42.9738 17.8708 41.2501ZM17.8708 41.2501L18.7176 42.9738C18.1836 43.2362 17.5581 43.2362 17.0241 42.9738L17.8708 41.2501Z" fill="#ffffff"/>
<path fill-rule="evenodd" clip-rule="evenodd" d="M17.8708 14.3639C15.7495 14.3639 14.0299 16.0835 14.0299 18.2048C14.0299 20.3261 15.7495 22.0457 17.8708 22.0457C19.9921 22.0457 21.7117 20.3261 21.7117 18.2048C21.7117 16.0835 19.9921 14.3639 17.8708 14.3639ZM10.189 18.2048C10.189 13.9622 13.6282 10.5229 17.8708 10.5229C22.1134 10.5229 25.5527 13.9622 25.5527 18.2048C25.5527 22.4474 22.1134 25.8866 17.8708 25.8866C13.6282 25.8866 10.189 22.4474 10.189 18.2048Z" fill="#ffffff"/>
</svg>
