<svg width="49" height="35" viewBox="0 0 49 35" fill="none" xmlns="http://www.w3.org/2000/svg">
<path fill-rule="evenodd" clip-rule="evenodd" d="M12.4791 0.046875H42.3949L42.4119 0.0471727C44.0674 0.0763295 45.6444 0.760142 46.797 1.94916C47.9462 3.13461 48.5808 4.726 48.5623 6.37697V28.3043C48.5808 29.9553 47.9462 31.5467 46.797 32.7321C45.6444 33.9212 44.0674 34.605 42.4119 34.6341L42.3949 34.6344H25.5168V30.7935H42.3587C42.9935 30.7785 43.5972 30.5146 44.0393 30.0587C44.4849 29.599 44.7302 28.9817 44.7216 28.3419L44.7212 28.3161L44.7214 6.33936C44.73 5.6996 44.4849 5.0823 44.0393 4.62263C43.5972 4.16665 42.9934 3.90277 42.3587 3.8878H12.5154C11.8806 3.90277 11.2768 4.16665 10.8348 4.62263C10.3895 5.08192 10.1443 5.69907 10.1529 6.33937L10.1533 6.36516L10.1531 19.2707H6.31216V6.37688C6.2937 4.72648 6.92744 3.13497 8.077 1.94916C9.22968 0.760142 10.8066 0.0763295 12.4622 0.0471727L12.4791 0.046875Z" fill="#ffffff"/>
<path fill-rule="evenodd" clip-rule="evenodd" d="M6.31226 30.793H21.676V34.6339H6.31226V30.793Z" fill="#ffffff"/>
<path fill-rule="evenodd" clip-rule="evenodd" d="M0.550781 23.1113H15.9145V26.9523H0.550781V23.1113Z" fill="#ffffff"/>
<path fill-rule="evenodd" clip-rule="evenodd" d="M26.7237 19.1138L7.51904 11.4319L8.94553 7.86572L27.4369 15.2623L45.9283 7.86572L47.3548 11.4319L28.1502 19.1138C27.6923 19.2969 27.1815 19.2969 26.7237 19.1138Z" fill="#ffffff"/>
</svg>
