<svg width="250" height="243" viewBox="0 0 250 243" fill="none" xmlns="http://www.w3.org/2000/svg">
<g clip-path="url(#clip0_201_303)">
<path d="M78.5394 63.9478C78.1471 65.4477 77.822 67.0091 77.5642 68.6266C62.6443 79.8591 53.0938 96.9962 53.0938 116.154C53.0938 137.953 61.4505 151.284 70.4405 162.226L67.7559 162.242L67.7671 164.095C58.48 152.773 49.8431 138.943 49.8431 116.154C49.8431 94.7072 61.1647 75.6784 78.5394 63.9478Z" fill="url(#paint0_linear_201_303)"/>
<path d="M201.508 157.731C200.14 160.065 197.702 161.459 194.995 161.459H188.662L188.55 170.184L188.381 188.345C188.381 198.403 180.787 205.997 170.715 205.997L159.483 206.048V222.021C159.483 228.748 154.007 234.216 147.276 234.216H102.404C95.6675 234.216 90.1917 228.748 90.1917 222.021V210.939L93.4312 207.671L93.4424 222.021C93.4424 226.957 97.4611 230.97 102.404 230.97H147.276C152.214 230.97 156.238 226.957 156.238 222.021V202.824L170.71 202.751C179.072 202.751 185.136 196.684 185.136 188.329L185.411 158.213H194.995C196.536 158.213 197.926 157.418 198.705 156.092C199.484 154.765 199.507 153.165 198.75 151.821L185.411 127.963V110.703C185.248 100.444 179.005 77.2343 157.04 64.2052C156.642 62.6325 156.176 61.1214 155.644 59.6775C181.336 72.9864 188.482 99.2573 188.656 110.406V127.123L201.592 150.238C202.909 152.599 202.881 155.398 201.508 157.731Z" fill="url(#paint1_linear_201_303)"/>
<path d="M120.138 0H116.887V14.4171H120.138V0Z" fill="#F6A11D"/>
<path d="M65.1328 67.8822H51.474V71.1283H65.1328V67.8822Z" fill="#F6A11D"/>
<path d="M187.087 67.8822H173.428V71.1283H187.087V67.8822Z" fill="#F6A11D"/>
<path d="M68.3676 21.8999L66.069 24.1952L76.282 34.3936L78.5807 32.0982L68.3676 21.8999Z" fill="#F6A11D"/>
<path d="M170.193 21.9118L159.984 32.1062L162.282 34.4015L172.492 24.2071L170.193 21.9118Z" fill="#F6A11D"/>
<path d="M132.592 136.055H102.931L102.842 134.528C102.276 124.974 97.9262 115.891 90.5896 108.945C81.2409 100.097 76.2583 87.6329 76.9196 74.7549C78.3825 46.2398 99.1144 33.2499 117.761 33.2499C136.408 33.2499 157.14 46.2398 158.603 74.7549C159.265 87.6329 154.282 100.097 144.933 108.945C137.597 115.891 133.247 124.974 132.681 134.528L132.592 136.055ZM105.969 132.809H129.559C130.523 122.993 135.153 113.736 142.703 106.583C151.362 98.3897 155.975 86.8438 155.364 74.9116C154.417 56.409 142.243 36.4904 117.767 36.4904C93.2911 36.4904 81.1232 56.409 80.1704 74.9116C79.5538 86.8438 84.1722 98.3897 92.8315 106.583C100.381 113.73 105.011 122.993 105.975 132.809H105.969Z" fill="url(#paint2_linear_201_303)"/>
<path d="M128.293 155.862C126.897 160.306 122.738 163.535 117.823 163.535C112.908 163.535 108.469 160.082 107.225 155.403L128.293 155.862Z" fill="url(#paint3_linear_201_303)"/>
<path d="M117.829 165.153C112.123 165.153 107.118 161.313 105.655 155.812L108.799 154.984C109.881 159.064 113.597 161.912 117.829 161.912C122.06 161.912 125.518 159.287 126.746 155.381L129.845 156.349C128.192 161.621 123.361 165.158 117.829 165.158V165.153Z" fill="url(#paint4_linear_201_303)"/>
<path d="M106.221 109.326L103.621 107.428L116.086 84.6723H101.715L100.454 82.025L127.547 48.7975L130.305 50.4541L120.81 72.8633L137.238 72.7625L138.426 75.5049L106.221 109.326ZM105.134 81.4318H118.826L120.25 83.8328L112.443 98.0819L133.432 76.0366L118.356 76.1317L116.848 73.8763L122.862 59.683L105.123 81.4374L105.134 81.4318Z" fill="#F6A11D"/>
<path d="M34.3964 182.385L34.3796 179.021C33.9312 178.87 33.4996 178.697 33.0793 178.49L30.7084 180.874L25.3111 175.546L27.6763 173.156C27.4689 172.736 27.2839 172.305 27.127 171.858L23.7642 171.874L23.7193 164.291L27.0822 164.274C27.2335 163.826 27.4128 163.395 27.6146 162.97L25.2214 160.608L30.5627 155.219L32.9559 157.58C33.3763 157.373 33.8135 157.189 34.2562 157.038L34.2394 153.68L41.8339 153.64L41.8507 156.998C42.2991 157.15 42.7306 157.329 43.1566 157.53L45.5218 155.14L50.9192 160.474L48.554 162.864C48.7613 163.283 48.9463 163.72 49.1032 164.162L52.4661 164.145L52.5053 171.729L49.1425 171.746C48.9911 172.188 48.8118 172.624 48.61 173.044L51.0033 175.406L45.6619 180.796L43.2687 178.434C42.8483 178.641 42.4112 178.825 41.9684 178.977L41.9852 182.335L34.3908 182.379L34.3964 182.385ZM35.394 179.318C35.394 179.318 35.4108 179.318 35.422 179.324C35.4164 179.324 35.4052 179.324 35.394 179.318ZM32.827 174.93H33.2586L33.7742 175.182C34.5365 175.641 35.3268 175.966 36.1619 176.161C37.0082 176.357 37.6079 177.107 37.6191 177.986V179.117L38.7176 179.111V177.992C38.712 177.113 39.3005 176.357 40.1412 176.139C40.982 175.926 41.7722 175.596 42.5008 175.148C43.2407 174.684 44.1991 174.796 44.8268 175.412L45.6283 176.206L46.3961 175.428L45.6003 174.639C44.9837 174.035 44.8548 173.078 45.2976 172.328C45.746 171.583 46.0711 170.789 46.2728 169.955C46.4802 169.098 47.2425 168.5 48.1224 168.5H49.2378L49.2321 167.403H48.1112C47.22 167.408 46.4634 166.815 46.256 165.959C46.0543 165.142 45.718 164.358 45.2696 163.625C44.8156 162.892 44.9165 161.935 45.5218 161.308L46.3289 160.496L45.5498 159.724L44.7596 160.524C44.1655 161.14 43.207 161.274 42.4504 160.832C41.6994 160.379 40.9091 160.054 40.074 159.858C39.2277 159.662 38.6224 158.912 38.6111 158.034V156.903H37.5126V158.023C37.5294 158.89 36.9409 159.657 36.089 159.875C35.2539 160.082 34.4636 160.412 33.735 160.866C32.9672 161.33 32.0031 161.213 31.381 160.586L30.5963 159.814L29.8285 160.591L30.6244 161.381C31.2577 162.024 31.3698 162.981 30.9046 163.726C30.4786 164.436 30.1536 165.231 29.9518 166.065C29.7556 166.916 28.9934 167.52 28.1022 167.52H26.9925V168.617H28.1134C29.0046 168.612 29.7612 169.205 29.9742 170.061C30.1816 170.878 30.5123 171.667 30.9607 172.395C31.4146 173.134 31.3138 174.085 30.7084 174.712L29.9014 175.523L30.6804 176.29L31.9471 175.014L32.8214 174.93H32.827ZM44.2103 177.919C44.2103 177.919 44.2103 177.919 44.2047 177.919C44.2047 177.919 44.2047 177.919 44.2103 177.919ZM47.8926 172.339H47.8982C47.8982 172.339 47.8982 172.339 47.8926 172.339ZM26.8243 170.839C26.8243 170.839 26.8243 170.85 26.8243 170.856C26.8243 170.85 26.8243 170.845 26.8243 170.839ZM26.7963 165.298C26.7963 165.298 26.7963 165.309 26.7907 165.321C26.7907 165.309 26.7907 165.304 26.7963 165.298ZM49.4059 165.17C49.4059 165.17 49.4059 165.181 49.4059 165.186C49.4059 165.186 49.4059 165.175 49.4059 165.17ZM28.1303 162.035C28.1303 162.035 28.119 162.052 28.1134 162.063C28.119 162.052 28.1246 162.047 28.1303 162.035ZM48.0327 161.929C48.0327 161.929 48.0327 161.929 48.0327 161.935C48.0327 161.935 48.0327 161.935 48.0327 161.929ZM33.6509 158.274L33.679 158.302C33.679 158.302 33.6621 158.286 33.6509 158.274ZM42.456 158.241C42.456 158.241 42.4392 158.258 42.4336 158.263L42.456 158.241ZM40.8082 156.702C40.8082 156.702 40.825 156.702 40.8306 156.707C40.825 156.707 40.8138 156.707 40.8082 156.702Z" fill="url(#paint5_linear_201_303)"/>
<path d="M92.7531 199.472C92.8371 199.321 92.9156 199.169 92.9941 199.018C93.661 197.725 94.1935 196.371 94.5914 194.972L100.852 194.933L100.79 183.062L94.5298 183.101C94.0702 181.534 93.4368 180.034 92.6354 178.618L97.0407 174.169L88.5887 165.824L84.189 170.268C82.7598 169.49 81.2465 168.869 79.6772 168.432L79.6491 162.175L70.4405 162.226L67.7559 162.242L67.7671 164.095L67.7895 168.494C66.2314 168.947 64.7293 169.585 63.3057 170.38L58.8555 165.981L50.4932 174.421L54.949 178.82C54.1643 180.241 53.5478 181.753 53.105 183.32L46.8445 183.359L46.9118 195.224L53.1723 195.19C53.6263 196.752 54.2596 198.252 55.0611 199.668L50.6558 204.117L59.1021 212.462L63.5075 208.018C64.9367 208.801 66.4443 209.417 68.0137 209.853L68.0529 216.105L79.935 216.043L79.907 209.792C81.4707 209.339 82.9728 208.706 84.3908 207.906L88.8409 212.305L90.1917 210.939L93.4312 207.671L97.2032 203.865L93.1286 199.841L92.7531 199.472ZM90.1917 206.328L88.8185 207.716L86.089 205.018C85.3716 204.313 84.2675 204.19 83.4211 204.716C81.835 205.69 80.1087 206.412 78.2816 206.87C77.312 207.117 76.6394 207.99 76.6506 208.986L76.673 212.814L71.2812 212.842L71.2588 209.014C71.2532 208.012 70.5694 207.15 69.5886 206.91C67.7671 206.479 66.0408 205.774 64.4547 204.816L63.7821 204.509H63.3281C62.7396 204.509 62.1735 204.744 61.7812 205.152L59.0797 207.878L55.2461 204.095L57.9475 201.369C58.6593 200.658 58.7883 199.556 58.2558 198.699C57.275 197.11 56.552 195.392 56.098 193.584C55.8514 192.616 54.9882 191.944 53.9794 191.944L50.1401 191.961L50.1121 186.582L53.9626 186.566C54.9602 186.549 55.8233 185.86 56.0531 184.892C56.4847 183.073 57.1909 181.35 58.1549 179.76C58.6706 178.904 58.536 177.807 57.8186 177.096L55.0891 174.398L58.8779 170.57L61.6074 173.274C62.3249 173.979 63.4178 174.102 64.2809 173.576C65.8727 172.596 67.5933 171.869 69.3924 171.421C70.3733 171.18 71.0515 170.313 71.0459 169.305V167.973L71.0234 165.466L73.1532 165.455L76.4152 165.444L76.432 169.233C77.0822 169.977 77.7211 170.71 78.3488 171.438C80.0751 171.874 81.7285 172.557 83.2474 173.469C84.1105 173.996 85.2091 173.856 85.9153 173.139L88.6168 170.414L92.4448 174.197L89.7433 176.928C89.0371 177.645 88.9138 178.741 89.4463 179.598C90.4215 181.176 91.1445 182.894 91.5929 184.702C91.8339 185.67 92.7026 186.347 93.7171 186.347L97.5563 186.331L97.5844 191.709L93.7339 191.726C92.7419 191.743 91.8787 192.425 91.6433 193.399C91.6321 193.444 91.6209 193.489 91.6097 193.534C91.1725 195.28 90.4887 196.948 89.564 198.487C89.7713 199.438 89.9339 200.395 90.0348 201.352L92.6073 203.887L90.1917 206.328Z" fill="url(#paint6_linear_201_303)"/>
<path d="M137.927 157.2H97.5956V132.809H137.927V157.2ZM100.846 153.954H134.682V136.056H100.846V153.954Z" fill="url(#paint7_linear_201_303)"/>
<path d="M38.1179 132.39C40.1207 132.39 41.7442 130.768 41.7442 128.769C41.7442 126.769 40.1207 125.148 38.1179 125.148C36.1152 125.148 34.4917 126.769 34.4917 128.769C34.4917 130.768 36.1152 132.39 38.1179 132.39Z" fill="url(#paint8_linear_201_303)"/>
<path d="M55.1003 52.5977C55.1003 54.5958 53.4749 56.2188 51.474 56.2188C49.4732 56.2188 47.8478 54.5958 47.8478 52.5977C47.8478 50.5997 49.4732 48.9767 51.474 48.9767C53.4749 48.9767 55.1003 50.5997 55.1003 52.5977Z" fill="#F6A11D"/>
<path d="M209.573 69.5053C209.573 71.509 207.948 73.1264 205.947 73.1264C203.946 73.1264 202.32 71.5034 202.32 69.5053C202.32 67.5073 203.946 65.8843 205.947 65.8843C207.948 65.8843 209.573 67.5073 209.573 69.5053Z" fill="url(#paint9_linear_201_303)"/>
<path d="M46.4634 220.392C46.4634 222.396 44.838 224.013 42.8371 224.013C40.8362 224.013 39.2108 222.39 39.2108 220.392C39.2108 218.394 40.8362 216.771 42.8371 216.771C44.838 216.771 46.4634 218.394 46.4634 220.392Z" fill="#F6A11D"/>
<path d="M200.936 204.884C200.936 206.887 199.311 208.505 197.31 208.505C195.309 208.505 193.683 206.882 193.683 204.884C193.683 202.886 195.309 201.263 197.31 201.263C199.311 201.263 200.936 202.886 200.936 204.884Z" fill="#F6A11D"/>
<path d="M177.239 227.539H167.263V237.501H177.239V227.539Z" fill="url(#paint10_linear_201_303)"/>
<path d="M178.859 239.119H165.637V225.916H178.859V239.119ZM168.888 235.873H175.614V229.157H168.888V235.873Z" fill="url(#paint11_linear_201_303)"/>
<path d="M81.1512 231.278H71.1748V241.24H81.1512V231.278Z" fill="#F6A11D"/>
<path d="M82.771 242.857H69.5494V229.655H82.771V242.857ZM72.8001 239.611H79.5258V232.895H72.8001V239.611Z" fill="#F6A11D"/>
<path d="M26.2415 103.55H16.265V113.512H26.2415V103.55Z" fill="url(#paint12_linear_201_303)"/>
<path d="M27.8668 115.135H14.6396V101.927H27.8668V115.135ZM17.8904 111.889H24.6161V105.173H17.8904V111.889Z" fill="url(#paint13_linear_201_303)"/>
<path d="M197.579 56.5657H184.357V43.3632H197.579V56.5657ZM187.608 53.3197H194.334V46.6036H187.608V53.3197Z" fill="#F6A11D"/>
<path d="M224.664 146.972L217.61 154.016L224.664 161.061L231.718 154.016L224.664 146.972Z" fill="#F6A11D"/>
<path d="M224.661 163.351L215.312 154.015L224.661 144.68L234.01 154.015L224.661 163.351ZM219.908 154.015L224.661 158.767L229.414 154.015L224.661 149.264L219.908 154.015Z" fill="#F6A11D"/>
<path d="M212.403 119.4L203.055 110.059L212.403 100.724L221.752 110.059L212.403 119.4ZM207.645 110.059L212.403 114.81L217.156 110.059L212.403 105.307L207.645 110.059Z" fill="#F6A11D"/>
<path d="M21.0571 83.3236H0V86.5697H21.0571V83.3236Z" fill="url(#paint14_linear_201_303)"/>
<path d="M32.5972 76.49H11.5402V79.7361H32.5972V76.49Z" fill="url(#paint15_linear_201_303)"/>
<path d="M238.46 177.785H217.403V181.031H238.46V177.785Z" fill="url(#paint16_linear_201_303)"/>
<path d="M250 170.951H228.943V174.197H250V170.951Z" fill="url(#paint17_linear_201_303)"/>
<path d="M79.5651 9.35205H58.508V12.5981H79.5651V9.35205Z" fill="#F6A11D"/>
<path d="M91.0997 2.51855H70.0426V5.76463H91.0997V2.51855Z" fill="#F6A11D"/>
</g>
<defs>
<linearGradient id="paint0_linear_201_303" x1="49.8431" y1="114.021" x2="78.5394" y2="114.021" gradientUnits="userSpaceOnUse">
<stop stop-color="#DD1F26"/>
<stop offset="1" stop-color="#662874"/>
</linearGradient>
<linearGradient id="paint1_linear_201_303" x1="90.1917" y1="146.947" x2="202.561" y2="146.947" gradientUnits="userSpaceOnUse">
<stop stop-color="#DD1F26"/>
<stop offset="1" stop-color="#662874"/>
</linearGradient>
<linearGradient id="paint2_linear_201_303" x1="76.8636" y1="84.6555" x2="158.659" y2="84.6555" gradientUnits="userSpaceOnUse">
<stop stop-color="#DD1F26"/>
<stop offset="1" stop-color="#662874"/>
</linearGradient>
<linearGradient id="paint3_linear_201_303" x1="107.23" y1="159.467" x2="128.293" y2="159.467" gradientUnits="userSpaceOnUse">
<stop stop-color="#DD1F26"/>
<stop offset="1" stop-color="#662874"/>
</linearGradient>
<linearGradient id="paint4_linear_201_303" x1="105.655" y1="160.071" x2="129.845" y2="160.071" gradientUnits="userSpaceOnUse">
<stop stop-color="#DD1F26"/>
<stop offset="1" stop-color="#662874"/>
</linearGradient>
<linearGradient id="paint5_linear_201_303" x1="23.7249" y1="168.013" x2="52.5053" y2="168.013" gradientUnits="userSpaceOnUse">
<stop stop-color="#DD1F26"/>
<stop offset="1" stop-color="#662874"/>
</linearGradient>
<linearGradient id="paint6_linear_201_303" x1="46.8445" y1="189.14" x2="100.852" y2="189.14" gradientUnits="userSpaceOnUse">
<stop stop-color="#DD1F26"/>
<stop offset="1" stop-color="#662874"/>
</linearGradient>
<linearGradient id="paint7_linear_201_303" x1="97.5956" y1="145.005" x2="137.927" y2="145.005" gradientUnits="userSpaceOnUse">
<stop stop-color="#DD1F26"/>
<stop offset="1" stop-color="#662874"/>
</linearGradient>
<linearGradient id="paint8_linear_201_303" x1="34.4917" y1="128.769" x2="41.7442" y2="128.769" gradientUnits="userSpaceOnUse">
<stop stop-color="#DD1F26"/>
<stop offset="1" stop-color="#662874"/>
</linearGradient>
<linearGradient id="paint9_linear_201_303" x1="202.315" y1="69.5053" x2="209.573" y2="69.5053" gradientUnits="userSpaceOnUse">
<stop stop-color="#DD1F26"/>
<stop offset="1" stop-color="#662874"/>
</linearGradient>
<linearGradient id="paint10_linear_201_303" x1="167.263" y1="232.52" x2="177.234" y2="232.52" gradientUnits="userSpaceOnUse">
<stop stop-color="#DD1F26"/>
<stop offset="1" stop-color="#662874"/>
</linearGradient>
<linearGradient id="paint11_linear_201_303" x1="165.637" y1="232.52" x2="178.859" y2="232.52" gradientUnits="userSpaceOnUse">
<stop stop-color="#DD1F26"/>
<stop offset="1" stop-color="#662874"/>
</linearGradient>
<linearGradient id="paint12_linear_201_303" x1="16.265" y1="108.531" x2="26.2415" y2="108.531" gradientUnits="userSpaceOnUse">
<stop stop-color="#DD1F26"/>
<stop offset="1" stop-color="#662874"/>
</linearGradient>
<linearGradient id="paint13_linear_201_303" x1="14.6396" y1="108.531" x2="27.8668" y2="108.531" gradientUnits="userSpaceOnUse">
<stop stop-color="#DD1F26"/>
<stop offset="1" stop-color="#662874"/>
</linearGradient>
<linearGradient id="paint14_linear_201_303" x1="0" y1="84.9466" x2="21.0571" y2="84.9466" gradientUnits="userSpaceOnUse">
<stop stop-color="#DD1F26"/>
<stop offset="1" stop-color="#662874"/>
</linearGradient>
<linearGradient id="paint15_linear_201_303" x1="11.5402" y1="78.113" x2="32.5972" y2="78.113" gradientUnits="userSpaceOnUse">
<stop stop-color="#DD1F26"/>
<stop offset="1" stop-color="#662874"/>
</linearGradient>
<linearGradient id="paint16_linear_201_303" x1="217.403" y1="179.408" x2="238.46" y2="179.408" gradientUnits="userSpaceOnUse">
<stop stop-color="#DD1F26"/>
<stop offset="1" stop-color="#662874"/>
</linearGradient>
<linearGradient id="paint17_linear_201_303" x1="228.943" y1="172.574" x2="250" y2="172.574" gradientUnits="userSpaceOnUse">
<stop stop-color="#DD1F26"/>
<stop offset="1" stop-color="#662874"/>
</linearGradient>
<clipPath id="clip0_201_303">
<rect width="250" height="242.857" fill="white"/>
</clipPath>
</defs>
</svg>
