<svg width="250" height="243" viewBox="0 0 250 243" fill="none" xmlns="http://www.w3.org/2000/svg">
<g clip-path="url(#clip0_285_100)">
<path d="M78.5394 63.9478C78.147 65.4477 77.8219 67.0091 77.5641 68.6266C62.6443 79.8591 53.0938 96.9962 53.0938 116.154C53.0938 137.953 61.4505 151.284 70.4405 162.226L67.7558 162.242L67.767 164.095C58.4799 152.773 49.843 138.943 49.843 116.154C49.843 94.7072 61.1646 75.6784 78.5394 63.9478Z" fill="#2F61D6"/>
<path d="M201.508 157.731C200.14 160.065 197.702 161.459 194.995 161.459H188.662L188.549 170.184L188.381 188.345C188.381 198.403 180.787 205.997 170.715 205.997L159.483 206.048V222.021C159.483 228.748 154.007 234.216 147.276 234.216H102.404C95.6675 234.216 90.1917 228.748 90.1917 222.021V210.939L93.4312 207.671L93.4424 222.021C93.4424 226.957 97.461 230.97 102.404 230.97H147.276C152.214 230.97 156.238 226.957 156.238 222.021V202.824L170.71 202.751C179.072 202.751 185.136 196.684 185.136 188.329L185.411 158.213H194.995C196.536 158.213 197.926 157.418 198.705 156.092C199.484 154.765 199.507 153.165 198.75 151.821L185.411 127.963V110.703C185.248 100.444 179.005 77.2343 157.04 64.2052C156.642 62.6325 156.176 61.1214 155.644 59.6775C181.336 72.9864 188.482 99.2573 188.656 110.406V127.123L201.592 150.238C202.909 152.599 202.881 155.398 201.508 157.731Z" fill="#2F61D6"/>
<path d="M120.138 0H116.887V14.4171H120.138V0Z" fill="#2F61D6"/>
<path d="M65.1329 67.8822H51.4741V71.1283H65.1329V67.8822Z" fill="white"/>
<path d="M187.087 67.8822H173.428V71.1283H187.087V67.8822Z" fill="white"/>
<path d="M68.3675 21.8999L66.0688 24.1952L76.2819 34.3936L78.5805 32.0982L68.3675 21.8999Z" fill="white"/>
<path d="M170.193 21.9118L159.984 32.1062L162.282 34.4015L172.491 24.2071L170.193 21.9118Z" fill="white"/>
<path d="M132.592 136.055H102.931L102.842 134.528C102.276 124.974 97.9263 115.891 90.5897 108.945C81.241 100.097 76.2584 87.6329 76.9197 74.7549C78.3826 46.2398 99.1145 33.2499 117.762 33.2499C136.409 33.2499 157.141 46.2398 158.603 74.7549C159.265 87.6329 154.282 100.097 144.933 108.945C137.597 115.891 133.247 124.974 132.681 134.528L132.592 136.055ZM105.969 132.809H129.56C130.524 122.993 135.153 113.736 142.703 106.583C151.362 98.3897 155.975 86.8438 155.364 74.9116C154.417 56.409 142.243 36.4904 117.767 36.4904C93.2912 36.4904 81.1233 56.409 80.1705 74.9116C79.5539 86.8438 84.1723 98.3897 92.8316 106.583C100.381 113.73 105.011 122.993 105.975 132.809H105.969Z" fill="#2F61D6"/>
<path d="M128.293 155.862C126.897 160.306 122.739 163.535 117.823 163.535C112.908 163.535 108.469 160.082 107.225 155.403L128.293 155.862Z" fill="#2F61D6"/>
<path d="M117.829 165.153C112.123 165.153 107.118 161.313 105.655 155.812L108.8 154.984C109.881 159.064 113.597 161.912 117.829 161.912C122.06 161.912 125.519 159.287 126.746 155.381L129.845 156.349C128.192 161.621 123.361 165.158 117.829 165.158V165.153Z" fill="#2F61D6"/>
<path d="M106.221 109.326L103.621 107.428L116.086 84.6723H101.715L100.454 82.025L127.547 48.7975L130.305 50.4541L120.811 72.8633L137.238 72.7625L138.426 75.5049L106.221 109.326ZM105.134 81.4318H118.826L120.25 83.8328L112.443 98.0819L133.432 76.0366L118.356 76.1317L116.848 73.8762L122.862 59.683L105.123 81.4374L105.134 81.4318Z" fill="white"/>
<path d="M34.3963 182.385L34.3795 179.021C33.9311 178.87 33.4995 178.697 33.0792 178.49L30.7084 180.874L25.311 175.546L27.6762 173.156C27.4688 172.736 27.2839 172.305 27.1269 171.858L23.7641 171.874L23.7192 164.291L27.0821 164.274C27.2334 163.826 27.4128 163.395 27.6145 162.97L25.2213 160.608L30.5626 155.219L32.9559 157.58C33.3762 157.373 33.8134 157.189 34.2562 157.038L34.2394 153.68L41.8338 153.64L41.8506 156.998C42.299 157.15 42.7306 157.329 43.1565 157.53L45.5217 155.14L50.9191 160.474L48.5539 162.864C48.7613 163.283 48.9462 163.72 49.1032 164.162L52.466 164.145L52.5052 171.729L49.1424 171.746C48.9911 172.188 48.8117 172.624 48.6099 173.044L51.0032 175.406L45.6618 180.796L43.2686 178.434C42.8483 178.641 42.4111 178.825 41.9683 178.977L41.9851 182.335L34.3907 182.379L34.3963 182.385ZM35.3939 179.318C35.3939 179.318 35.4108 179.318 35.422 179.324C35.4164 179.324 35.4051 179.324 35.3939 179.318ZM32.827 174.93H33.2585L33.7742 175.182C34.5364 175.641 35.3267 175.966 36.1618 176.161C37.0081 176.357 37.6078 177.107 37.619 177.986V179.117L38.7176 179.111V177.992C38.712 177.113 39.3005 176.357 40.1412 176.139C40.9819 175.926 41.7721 175.596 42.5008 175.148C43.2406 174.684 44.199 174.796 44.8267 175.412L45.6282 176.206L46.3961 175.428L45.6002 174.639C44.9837 174.035 44.8548 173.078 45.2975 172.328C45.7459 171.583 46.071 170.789 46.2728 169.955C46.4801 169.098 47.2424 168.5 48.1223 168.5H49.2377L49.2321 167.403H48.1111C47.22 167.408 46.4633 166.815 46.2559 165.959C46.0542 165.142 45.7179 164.358 45.2695 163.625C44.8155 162.892 44.9164 161.935 45.5217 161.308L46.3288 160.496L45.5497 159.724L44.7595 160.524C44.1654 161.14 43.207 161.274 42.4503 160.832C41.6993 160.379 40.909 160.054 40.0739 159.858C39.2276 159.662 38.6223 158.912 38.6111 158.034V156.903H37.5125V158.023C37.5293 158.89 36.9409 159.657 36.0889 159.875C35.2538 160.082 34.4635 160.412 33.7349 160.866C32.9671 161.33 32.0031 161.213 31.3809 160.586L30.5963 159.814L29.8284 160.591L30.6243 161.381C31.2576 162.024 31.3697 162.981 30.9045 163.726C30.4786 164.436 30.1535 165.231 29.9517 166.065C29.7556 166.916 28.9933 167.52 28.1022 167.52H26.9924V168.617H28.1134C29.0045 168.612 29.7612 169.205 29.9741 170.061C30.1815 170.878 30.5122 171.667 30.9606 172.395C31.4146 173.134 31.3137 174.085 30.7084 174.712L29.9013 175.523L30.6803 176.29L31.947 175.014L32.8214 174.93H32.827ZM44.2102 177.919C44.2102 177.919 44.2102 177.919 44.2046 177.919C44.2046 177.919 44.2046 177.919 44.2102 177.919ZM47.8925 172.339H47.8981C47.8981 172.339 47.8981 172.339 47.8925 172.339ZM26.8243 170.839C26.8243 170.839 26.8243 170.85 26.8243 170.856C26.8243 170.85 26.8243 170.845 26.8243 170.839ZM26.7962 165.298C26.7962 165.298 26.7962 165.309 26.7906 165.321C26.7906 165.309 26.7906 165.304 26.7962 165.298ZM49.4058 165.17C49.4058 165.17 49.4058 165.181 49.4058 165.186C49.4058 165.186 49.4058 165.175 49.4058 165.17ZM28.1302 162.035C28.1302 162.035 28.119 162.052 28.1134 162.063C28.119 162.052 28.1246 162.047 28.1302 162.035ZM48.0327 161.929C48.0327 161.929 48.0327 161.929 48.0327 161.935C48.0327 161.935 48.0327 161.935 48.0327 161.929ZM33.6509 158.274L33.6789 158.302C33.6789 158.302 33.6621 158.286 33.6509 158.274ZM42.4559 158.241C42.4559 158.241 42.4391 158.258 42.4335 158.263L42.4559 158.241ZM40.8081 156.702C40.8081 156.702 40.8249 156.702 40.8305 156.707C40.8249 156.707 40.8137 156.707 40.8081 156.702Z" fill="#2F61D6"/>
<path d="M92.753 199.472C92.8371 199.321 92.9156 199.169 92.994 199.018C93.661 197.725 94.1934 196.371 94.5914 194.972L100.852 194.933L100.79 183.062L94.5297 183.101C94.0701 181.534 93.4368 180.034 92.6353 178.618L97.0406 174.169L88.5887 165.824L84.189 170.268C82.7597 169.49 81.2465 168.869 79.6771 168.432L79.6491 162.175L70.4405 162.226L67.7558 162.242L67.767 164.095L67.7894 168.494C66.2313 168.947 64.7292 169.585 63.3056 170.38L58.8555 165.981L50.4932 174.421L54.949 178.82C54.1643 180.241 53.5478 181.753 53.105 183.32L46.8445 183.359L46.9117 195.224L53.1722 195.19C53.6262 196.752 54.2596 198.252 55.061 199.668L50.6557 204.117L59.1021 212.462L63.5074 208.018C64.9366 208.801 66.4443 209.417 68.0136 209.853L68.0529 216.105L79.9349 216.043L79.9069 209.792C81.4706 209.339 82.9727 208.706 84.3907 207.906L88.8409 212.305L90.1916 210.939L93.4312 207.671L97.2032 203.865L93.1285 199.841L92.753 199.472ZM90.1916 206.328L88.8185 207.716L86.089 205.018C85.3716 204.313 84.2674 204.19 83.4211 204.716C81.835 205.69 80.1087 206.412 78.2815 206.87C77.3119 207.117 76.6393 207.99 76.6506 208.986L76.673 212.814L71.2812 212.842L71.2588 209.014C71.2532 208.012 70.5694 207.15 69.5886 206.91C67.767 206.479 66.0408 205.774 64.4546 204.816L63.782 204.509H63.3281C62.7396 204.509 62.1735 204.744 61.7811 205.152L59.0797 207.878L55.246 204.095L57.9475 201.369C58.6593 200.658 58.7882 199.556 58.2558 198.699C57.2749 197.11 56.5519 195.392 56.0979 193.584C55.8513 192.616 54.9882 191.944 53.9793 191.944L50.1401 191.961L50.1121 186.582L53.9625 186.566C54.9602 186.549 55.8233 185.86 56.0531 184.892C56.4847 183.073 57.1909 181.35 58.1549 179.76C58.6705 178.904 58.536 177.807 57.8186 177.096L55.0891 174.398L58.8779 170.57L61.6074 173.274C62.3248 173.979 63.4177 174.102 64.2809 173.576C65.8726 172.596 67.5933 171.869 69.3924 171.421C70.3732 171.18 71.0514 170.313 71.0458 169.305V167.973L71.0234 165.466L73.1532 165.455L76.4152 165.444L76.432 169.233C77.0821 169.977 77.7211 170.71 78.3488 171.438C80.0751 171.874 81.7285 172.557 83.2474 173.469C84.1105 173.996 85.209 173.856 85.9152 173.139L88.6167 170.414L92.4448 174.197L89.7433 176.928C89.0371 177.645 88.9138 178.741 89.4462 179.598C90.4214 181.176 91.1444 182.894 91.5928 184.702C91.8338 185.67 92.7026 186.347 93.717 186.347L97.5563 186.331L97.5843 191.709L93.7338 191.726C92.7418 191.743 91.8787 192.425 91.6433 193.399C91.6321 193.444 91.6208 193.489 91.6096 193.534C91.1725 195.28 90.4887 196.948 89.5639 198.487C89.7713 199.438 89.9338 200.395 90.0347 201.352L92.6073 203.887L90.1916 206.328Z" fill="white"/>
<path d="M137.927 157.2H97.5955V132.809H137.927V157.2ZM100.846 153.954H134.682V136.056H100.846V153.954Z" fill="#2F61D6"/>
<path d="M38.118 132.39C40.1207 132.39 41.7443 130.768 41.7443 128.769C41.7443 126.769 40.1207 125.148 38.118 125.148C36.1152 125.148 34.4917 126.769 34.4917 128.769C34.4917 130.768 36.1152 132.39 38.118 132.39Z" fill="white"/>
<path d="M55.1002 52.5977C55.1002 54.5958 53.4748 56.2188 51.4739 56.2188C49.473 56.2188 47.8477 54.5958 47.8477 52.5977C47.8477 50.5997 49.473 48.9767 51.4739 48.9767C53.4748 48.9767 55.1002 50.5997 55.1002 52.5977Z" fill="#2F61D6"/>
<path d="M209.573 69.5053C209.573 71.509 207.947 73.1264 205.947 73.1264C203.946 73.1264 202.32 71.5034 202.32 69.5053C202.32 67.5073 203.946 65.8843 205.947 65.8843C207.947 65.8843 209.573 67.5073 209.573 69.5053Z" fill="white"/>
<path d="M46.4635 220.392C46.4635 222.396 44.8381 224.013 42.8372 224.013C40.8363 224.013 39.2109 222.39 39.2109 220.392C39.2109 218.394 40.8363 216.771 42.8372 216.771C44.8381 216.771 46.4635 218.394 46.4635 220.392Z" fill="white"/>
<path d="M200.936 204.884C200.936 206.887 199.311 208.505 197.31 208.505C195.309 208.505 193.683 206.882 193.683 204.884C193.683 202.886 195.309 201.263 197.31 201.263C199.311 201.263 200.936 202.886 200.936 204.884Z" fill="#2F61D6"/>
<path d="M177.239 227.539H167.263V237.501H177.239V227.539Z" fill="white"/>
<path d="M178.859 239.119H165.637V225.916H178.859V239.119ZM168.888 235.873H175.614V229.157H168.888V235.873Z" fill="white"/>
<path d="M81.1513 231.278H71.1748V241.24H81.1513V231.278Z" fill="white"/>
<path d="M82.7709 242.857H69.5493V229.655H82.7709V242.857ZM72.8001 239.611H79.5258V232.895H72.8001V239.611Z" fill="white"/>
<path d="M26.2416 103.55H16.2651V113.512H26.2416V103.55Z" fill="#2F61D6"/>
<path d="M27.8669 115.135H14.6396V101.927H27.8669V115.135ZM17.8904 111.889H24.6161V105.173H17.8904V111.889Z" fill="#2F61D6"/>
<path d="M197.579 56.5657H184.357V43.3632H197.579V56.5657ZM187.608 53.3197H194.334V46.6036H187.608V53.3197Z" fill="white"/>
<path d="M224.664 146.972L217.61 154.016L224.664 161.061L231.718 154.016L224.664 146.972Z" fill="white"/>
<path d="M224.661 163.351L215.312 154.015L224.661 144.68L234.01 154.015L224.661 163.351ZM219.908 154.015L224.661 158.767L229.414 154.015L224.661 149.264L219.908 154.015Z" fill="white"/>
<path d="M212.403 119.4L203.055 110.059L212.403 100.724L221.752 110.059L212.403 119.4ZM207.645 110.059L212.403 114.81L217.156 110.059L212.403 105.307L207.645 110.059Z" fill="white"/>
<path d="M21.0571 83.3236H0V86.5697H21.0571V83.3236Z" fill="#2F61D6"/>
<path d="M32.5973 76.49H11.5403V79.7361H32.5973V76.49Z" fill="#2F61D6"/>
<path d="M238.46 177.785H217.403V181.031H238.46V177.785Z" fill="#2F61D6"/>
<path d="M250 170.951H228.943V174.197H250V170.951Z" fill="#2F61D6"/>
<path d="M79.5651 9.35205H58.5081V12.5981H79.5651V9.35205Z" fill="white"/>
<path d="M91.0998 2.51855H70.0427V5.76463H91.0998V2.51855Z" fill="white"/>
</g>
<defs>
<clipPath id="clip0_285_100">
<rect width="250" height="242.857" fill="white"/>
</clipPath>
</defs>
</svg>
