<?xml version="1.0" encoding="UTF-8"?>
<svg id="Layer_1" data-name="Layer 1" xmlns="http://www.w3.org/2000/svg" viewBox="0 0 1035.155 174.622">
  <defs>
    <style>
      .cls-1 {
        fill: #fff;
      }

      .cls-1, .cls-2 {
        stroke-width: 0px;
      }

      .cls-2 {
        fill: #2f61d6;
      }
    </style>
  </defs>
  <rect class="cls-2" y="95.092" width="10.478" height="10.478"/>
  <rect class="cls-2" x="10.478" y="106.697" width="7.05" height="7.05"/>
  <rect class="cls-2" x="483.404" y="155.838" width="10.478" height="10.478"/>
  <rect class="cls-2" x="493.882" y="167.443" width="7.05" height="7.05"/>
  <path class="cls-2" d="m166.478,174.493h-49.012l-32.468-54.673h-27.571v-39.138h38.307c2.62,0,4.879-.793,6.907-2.423,2.137-1.725,3.948-4.191,5.379-7.329,1.433-3.158,2.161-6.906,2.161-11.138,0-4.163-.824-7.824-2.449-10.88-1.637-3.052-3.671-5.454-6.041-7.131-2.299-1.622-4.639-2.411-7.151-2.411h-37.113V0h39.733c8.288,0,16.083,1.73,23.168,5.142,7.032,3.394,13.195,8.006,18.319,13.707,5.099,5.675,9.15,12.145,12.042,19.23,2.895,7.123,4.361,14.428,4.361,21.714,0,7.244-1.174,14.23-3.489,20.766-2.322,6.539-5.678,12.495-9.974,17.704-3.795,4.592-8.261,8.482-13.303,11.595l38.193,64.636Zm-46.166-5h37.404l-36.321-61.467,2.248-1.245c5.408-2.997,10.147-6.934,14.088-11.702,3.923-4.756,6.992-10.205,9.118-16.192,2.125-5.995,3.202-12.42,3.202-19.094,0-6.638-1.343-13.309-3.992-19.828-2.672-6.548-6.417-12.529-11.129-17.774-4.688-5.215-10.33-9.436-16.772-12.545-6.401-3.082-13.466-4.646-20.997-4.646h-34.733v29.371h32.113c3.53,0,6.906,1.119,10.036,3.327,3.012,2.131,5.556,5.11,7.567,8.859,2.018,3.794,3.039,8.244,3.039,13.235,0,4.949-.878,9.393-2.61,13.208-1.758,3.855-4.043,6.933-6.793,9.152-2.915,2.343-6.292,3.529-10.044,3.529h-33.307v29.138h25.417l32.468,54.673Z"/>
  <path class="cls-2" d="m62.427,174.493H18.275v-59.673h44.152v59.673Zm-39.152-5h34.152v-49.673H23.275v49.673Z"/>
  <g>
    <path class="cls-1" d="m178.405,142.517V55.18h40.101c4.263,0,8.199.882,11.809,2.645,3.607,1.764,6.704,4.06,9.287,6.888s4.613,6.07,6.089,9.718c1.476,3.65,2.214,7.318,2.214,11.009,0,5.086-1.107,9.822-3.321,14.208-2.214,4.388-5.289,7.976-9.226,10.763l19.681,32.105h-27.062l-16.606-26.816h-8.98v26.816h-23.986Zm23.986-47.727h15.13c1.476,0,2.848-.819,4.121-2.46,1.27-1.639,1.906-3.936,1.906-6.888,0-3.033-.738-5.351-2.214-6.95s-2.952-2.398-4.428-2.398h-14.515v18.697Z"/>
    <path class="cls-1" d="m298.338,143.255c-6.233,0-11.913-1.271-17.037-3.813-5.126-2.541-9.514-5.884-13.162-10.026-3.65-4.14-6.479-8.875-8.488-14.208-2.01-5.329-3.013-10.824-3.013-16.483,0-5.74,1.046-11.274,3.137-16.606,2.091-5.33,5.022-10.025,8.795-14.084,3.771-4.06,8.221-7.298,13.346-9.717,5.124-2.418,10.763-3.629,16.914-3.629,6.231,0,11.911,1.272,17.037,3.813,5.124,2.542,9.512,5.904,13.162,10.086,3.648,4.183,6.458,8.939,8.426,14.269,1.968,5.331,2.952,10.784,2.952,16.36,0,5.74-1.046,11.255-3.137,16.544-2.091,5.289-4.982,9.964-8.672,14.023-3.69,4.06-8.119,7.319-13.285,9.78-5.166,2.46-10.824,3.69-16.975,3.69Zm-17.344-44.283c0,2.952.348,5.803,1.046,8.549.696,2.749,1.784,5.187,3.26,7.319,1.476,2.133,3.322,3.855,5.535,5.166,2.214,1.312,4.798,1.968,7.749,1.968,3.033,0,5.659-.677,7.873-2.03,2.214-1.353,4.017-3.116,5.412-5.289,1.393-2.172,2.439-4.653,3.137-7.442.696-2.787,1.046-5.616,1.046-8.487,0-2.953-.369-5.801-1.107-8.549-.738-2.747-1.826-5.166-3.26-7.258-1.435-2.091-3.26-3.771-5.474-5.043-2.214-1.271-4.798-1.907-7.75-1.907-3.035,0-5.639.657-7.811,1.968-2.174,1.312-3.979,3.056-5.412,5.228-1.435,2.174-2.502,4.634-3.198,7.38-.698,2.749-1.046,5.557-1.046,8.427Z"/>
    <path class="cls-1" d="m364.147,55.18l15.868,27.554,15.868-27.554h25.832l-29.153,44.283,28.169,43.053h-25.832l-14.884-26.324-14.884,26.324h-25.955l28.169-43.053-29.153-44.283h25.955Z"/>
    <path class="cls-1" d="m500.932,55.18v87.336h-11.071v-39.731h-48.096v39.731h-11.071V55.18h11.071v37.764h48.096v-37.764h11.071Z"/>
    <path class="cls-1" d="m521.844,142.517V55.18h11.071v87.336h-11.071Z"/>
    <path class="cls-1" d="m588.883,143.132c-5.741,0-11.092-1.249-16.053-3.752-4.962-2.501-9.287-5.863-12.977-10.087-3.69-4.222-6.562-8.979-8.611-14.268-2.051-5.289-3.076-10.763-3.076-16.422,0-5.905,1.025-11.502,3.076-16.791,2.048-5.289,4.899-9.983,8.549-14.084,3.647-4.099,7.953-7.318,12.915-9.656,4.961-2.337,10.352-3.506,16.176-3.506,8.445,0,15.416,1.764,20.911,5.289,5.493,3.527,9.636,8.118,12.424,13.777l-8.487,5.905c-2.543-5.084-6.027-8.857-10.456-11.317-4.428-2.46-9.308-3.69-14.638-3.69-4.428,0-8.447.944-12.055,2.83-3.609,1.887-6.704,4.449-9.287,7.688-2.583,3.241-4.551,6.909-5.904,11.009-1.353,4.102-2.03,8.364-2.03,12.793,0,4.674.757,9.083,2.276,13.223,1.516,4.142,3.669,7.792,6.458,10.948,2.787,3.158,6.028,5.639,9.717,7.442,3.69,1.805,7.667,2.706,11.932,2.706,5.001,0,9.758-1.27,14.269-3.813,4.509-2.541,8.774-6.437,12.792-11.686v11.44c-7.872,9.348-17.181,14.023-27.923,14.023Zm26.57-35.796h-18.82v-8.364h28.169v43.545h-9.349v-35.18Z"/>
    <path class="cls-1" d="m711.89,55.18v87.336h-11.07v-39.731h-48.097v39.731h-11.071V55.18h11.071v37.764h48.097v-37.764h11.07Z"/>
    <path class="cls-1" d="m795.782,65.021h-30.137v77.495h-11.07v-77.495h-30.137v-9.841h71.345v9.841Z"/>
    <path class="cls-1" d="m867.618,132.676v9.84h-59.29V55.18h58.183v9.841h-47.112v28.292h40.962v9.226h-40.962v30.137h48.219Z"/>
    <path class="cls-1" d="m875.368,98.111c0-5.33.923-10.558,2.768-15.684,1.845-5.124,4.551-9.798,8.118-14.023,3.567-4.222,7.934-7.584,13.101-10.086,5.166-2.501,11.028-3.752,17.59-3.752,7.79,0,14.472,1.784,20.05,5.351,5.576,3.567,9.718,8.139,12.424,13.715l-8.734,5.659c-1.722-3.69-3.917-6.621-6.581-8.795-2.666-2.172-5.535-3.71-8.611-4.613-3.075-.901-6.089-1.353-9.041-1.353-4.84,0-9.124.985-12.855,2.952-3.732,1.968-6.869,4.594-9.41,7.873-2.543,3.281-4.45,6.95-5.72,11.009-1.273,4.06-1.907,8.139-1.907,12.239,0,4.51.757,8.857,2.276,13.038,1.516,4.183,3.629,7.873,6.335,11.071,2.707,3.198,5.905,5.741,9.595,7.627,3.69,1.887,7.707,2.829,12.055,2.829,3.033,0,6.15-.532,9.349-1.599,3.198-1.065,6.191-2.725,8.979-4.982,2.788-2.255,5.001-5.186,6.643-8.795l9.225,5.043c-1.805,4.348-4.593,8.038-8.364,11.071-3.773,3.035-7.976,5.331-12.608,6.888-4.634,1.559-9.206,2.337-13.715,2.337-5.987,0-11.482-1.292-16.483-3.875-5.003-2.584-9.329-6.028-12.977-10.333-3.65-4.306-6.479-9.143-8.487-14.515-2.011-5.37-3.014-10.804-3.014-16.299Z"/>
    <path class="cls-1" d="m1035.155,55.18v87.336h-11.07v-39.731h-48.097v39.731h-11.071V55.18h11.071v37.764h48.097v-37.764h11.07Z"/>
  </g>
  <g>
    <path class="cls-1" d="m179.471,174.493v-18.335h2.892v18.335h-2.892Z"/>
    <path class="cls-1" d="m212.861,158.715h-6.095v15.778h-2.918v-15.778h-6.121v-2.557h15.133v2.557Z"/>
    <path class="cls-1" d="m257.588,160.471c-.172-.189-.422-.392-.749-.607-.327-.215-.714-.417-1.162-.606s-.93-.344-1.446-.465c-.517-.12-1.05-.181-1.601-.181-1.206,0-2.101.223-2.686.669-.585.446-.878,1.064-.878,1.854,0,.584.164,1.043.491,1.377.327.335.826.614,1.498.837s1.515.463,2.531.721c1.24.292,2.315.64,3.228,1.043s1.61.939,2.092,1.608c.482.669.723,1.553.723,2.651,0,.927-.172,1.725-.517,2.394-.344.67-.826,1.215-1.446,1.635-.62.421-1.334.729-2.144.927-.81.197-1.679.296-2.608.296-.913,0-1.82-.095-2.724-.284-.904-.188-1.765-.469-2.583-.839-.818-.37-1.571-.822-2.26-1.355l1.317-2.479c.224.224.546.47.969.736.421.267.912.521,1.472.762s1.171.443,1.833.606c.663.164,1.338.245,2.027.245,1.153,0,2.036-.2,2.647-.603.611-.402.917-.98.917-1.733,0-.618-.198-1.111-.594-1.48s-.973-.683-1.73-.94c-.758-.257-1.662-.515-2.712-.772-1.205-.326-2.212-.682-3.021-1.068-.81-.386-1.417-.884-1.821-1.494-.405-.609-.607-1.386-.607-2.33,0-1.202.292-2.219.878-3.052s1.382-1.46,2.389-1.88c1.007-.421,2.139-.631,3.396-.631.827,0,1.61.09,2.35.271s1.433.427,2.079.736c.646.31,1.235.663,1.769,1.059l-1.317,2.376Z"/>
    <path class="cls-1" d="m288.009,171.937v2.557h-12.576v-18.335h12.344v2.557h-9.452v5.216h8.187v2.402h-8.187v5.604h9.684Z"/>
    <path class="cls-1" d="m303.917,174.493v-18.335h7.979c.827,0,1.584.172,2.273.517.688.345,1.287.8,1.794,1.368s.904,1.205,1.188,1.911.426,1.43.426,2.169c0,.81-.146,1.584-.439,2.324-.293.74-.71,1.378-1.252,1.911-.542.534-1.175.921-1.898,1.162l4.313,6.973h-3.254l-3.977-6.379h-4.261v6.379h-2.892Zm2.892-8.936h5.062c.533,0,1.007-.154,1.42-.465.414-.31.74-.727.981-1.252.241-.525.362-1.098.362-1.718,0-.637-.138-1.209-.414-1.717s-.632-.917-1.072-1.227c-.439-.311-.917-.465-1.433-.465h-4.907v6.843Z"/>
    <path class="cls-1" d="m334.493,156.158l5.526,14.797,5.5-14.797h3.073l-7.205,18.335h-2.737l-7.231-18.335h3.073Z"/>
    <path class="cls-1" d="m363.751,174.493v-18.335h2.892v18.335h-2.892Z"/>
    <path class="cls-1" d="m382.525,165.171c0-1.119.198-2.217.594-3.293.396-1.075.977-2.057,1.743-2.944.766-.886,1.7-1.592,2.802-2.117,1.102-.524,2.35-.787,3.745-.787,1.652,0,3.082.374,4.287,1.123s2.1,1.709,2.686,2.879l-2.272,1.524c-.345-.74-.779-1.326-1.304-1.757-.525-.43-1.093-.731-1.704-.903-.611-.172-1.21-.259-1.795-.259-.964,0-1.808.194-2.531.581-.723.388-1.33.9-1.821,1.537s-.861,1.352-1.11,2.144-.375,1.584-.375,2.375c0,.879.146,1.727.439,2.544.293.818.702,1.541,1.227,2.17.525.628,1.149,1.123,1.872,1.484s1.515.542,2.376.542c.585,0,1.196-.103,1.833-.31.637-.207,1.227-.529,1.769-.969.542-.438.968-1.02,1.278-1.743l2.402,1.369c-.379.913-.968,1.688-1.769,2.324-.8.637-1.696,1.119-2.686,1.446-.99.327-1.967.49-2.931.49-1.291,0-2.471-.271-3.538-.813-1.067-.542-1.988-1.266-2.763-2.169-.774-.904-1.377-1.92-1.808-3.047-.43-1.128-.646-2.269-.646-3.422Z"/>
    <path class="cls-1" d="m426.839,171.937v2.557h-12.576v-18.335h12.344v2.557h-9.452v5.216h8.187v2.402h-8.187v5.604h9.684Z"/>
    <path class="cls-1" d="m453.593,160.471c-.172-.189-.422-.392-.749-.607-.327-.215-.714-.417-1.162-.606s-.93-.344-1.446-.465c-.517-.12-1.05-.181-1.601-.181-1.206,0-2.101.223-2.686.669-.585.446-.878,1.064-.878,1.854,0,.584.164,1.043.491,1.377.327.335.826.614,1.498.837s1.515.463,2.531.721c1.24.292,2.315.64,3.228,1.043s1.61.939,2.092,1.608.723,1.553.723,2.651c0,.927-.172,1.725-.517,2.394-.344.67-.826,1.215-1.446,1.635-.62.421-1.334.729-2.144.927-.81.197-1.679.296-2.608.296-.913,0-1.82-.095-2.724-.284-.904-.188-1.765-.469-2.583-.839-.818-.37-1.571-.822-2.26-1.355l1.317-2.479c.224.224.546.47.969.736.421.267.912.521,1.472.762s1.171.443,1.833.606c.663.164,1.338.245,2.027.245,1.153,0,2.036-.2,2.647-.603.611-.402.917-.98.917-1.733,0-.618-.198-1.111-.594-1.48s-.973-.683-1.73-.94c-.758-.257-1.662-.515-2.712-.772-1.205-.326-2.212-.682-3.021-1.068-.81-.386-1.417-.884-1.821-1.494-.405-.609-.607-1.386-.607-2.33,0-1.202.292-2.219.878-3.052s1.382-1.46,2.389-1.88c1.007-.421,2.139-.631,3.396-.631.827,0,1.61.09,2.35.271s1.433.427,2.079.736c.646.31,1.235.663,1.769,1.059l-1.317,2.376Z"/>
    <path class="cls-1" d="m541.886,171.937v2.557h-12.577v-18.335h12.345v2.557h-9.452v5.216h8.187v2.402h-8.187v5.604h9.685Z"/>
    <path class="cls-1" d="m557.793,174.493v-18.335h6.507c1.98,0,3.633.409,4.959,1.227,1.325.817,2.319,1.92,2.982,3.306.662,1.386.994,2.922.994,4.609,0,1.859-.366,3.478-1.098,4.854-.731,1.378-1.769,2.445-3.111,3.202-1.343.758-2.919,1.137-4.727,1.137h-6.507Zm12.498-9.193c0-1.291-.236-2.432-.71-3.422-.474-.989-1.153-1.765-2.04-2.324s-1.967-.839-3.241-.839h-3.615v13.222h3.615c1.292,0,2.38-.293,3.268-.878.886-.585,1.562-1.377,2.026-2.376.465-.998.697-2.126.697-3.383Z"/>
    <path class="cls-1" d="m621.165,158.715h-6.095v15.778h-2.918v-15.778h-6.12v-2.557h15.133v2.557Z"/>
    <path class="cls-1" d="m649.108,171.937v2.557h-12.576v-18.335h12.344v2.557h-9.452v5.216h8.187v2.402h-8.187v5.604h9.685Z"/>
    <path class="cls-1" d="m663.518,165.171c0-1.119.197-2.217.594-3.293.396-1.075.977-2.057,1.743-2.944.766-.886,1.699-1.592,2.802-2.117,1.102-.524,2.35-.787,3.744-.787,1.653,0,3.082.374,4.287,1.123s2.101,1.709,2.686,2.879l-2.272,1.524c-.345-.74-.779-1.326-1.304-1.757-.525-.43-1.094-.731-1.705-.903s-1.209-.259-1.795-.259c-.964,0-1.808.194-2.53.581-.723.388-1.33.9-1.82,1.537-.491.637-.861,1.352-1.11,2.144-.25.792-.375,1.584-.375,2.375,0,.879.146,1.727.439,2.544.292.818.701,1.541,1.227,2.17.524.628,1.149,1.123,1.872,1.484s1.515.542,2.376.542c.585,0,1.196-.103,1.833-.31s1.227-.529,1.77-.969c.542-.438.968-1.02,1.278-1.743l2.401,1.369c-.379.913-.969,1.688-1.769,2.324-.801.637-1.696,1.119-2.687,1.446s-1.967.49-2.931.49c-1.291,0-2.471-.271-3.538-.813-1.067-.542-1.988-1.266-2.763-2.169-.775-.904-1.378-1.92-1.808-3.047-.431-1.128-.646-2.269-.646-3.422Z"/>
    <path class="cls-1" d="m710.31,156.158v18.335h-2.918v-8.083h-9.245v8.083h-2.892v-18.335h2.892v7.67h9.245v-7.67h2.918Z"/>
  </g>
</svg>