<svg width="54" height="92" viewBox="0 0 54 92" fill="none" xmlns="http://www.w3.org/2000/svg">
<g clip-path="url(#clip0_211_3)">
<path d="M1.57363e-06 26.9993C1.57363e-06 12.1113 12.112 0 27.001 0C41.8899 0 54 12.1113 54 26.9993C54 37.3771 48.1146 46.4053 39.5047 50.9213L38.9753 45.1604C44.8685 41.2648 48.7642 34.579 48.7642 26.9993C48.7642 14.9985 39.0005 5.23543 27.001 5.23543C15.0014 5.23543 5.23575 14.9985 5.23575 26.9993C5.23575 34.3231 8.87363 40.8131 14.4371 44.759L14.0124 50.6615C5.66625 46.0659 1.57363e-06 37.1812 1.57363e-06 26.9993Z" fill="#F5A01D"/>
<path d="M12.1411 77.1411C12.1411 85.3335 18.808 92 27.001 92C35.194 92 41.8608 85.3335 41.8608 77.1411C41.8608 68.9486 35.194 62.2822 27.001 62.2822C18.808 62.2822 12.1411 68.9486 12.1411 77.1411ZM17.3769 77.1411C17.3769 71.8339 21.6935 67.5176 27.001 67.5176C32.3085 67.5176 36.6251 71.8339 36.6251 77.1411C36.6251 82.4482 32.3085 86.7646 27.001 86.7646C21.6935 86.7646 17.3769 82.4482 17.3769 77.1411Z" fill="#F5A01D"/>
<path d="M41.7406 75.2524C41.7871 75.6054 41.8182 75.9641 41.8376 76.3247L41.7406 75.2524ZM17.755 71.5935L18.2185 65.1636C20.6793 63.3525 23.718 62.2822 27.001 62.2822C30.0571 62.2822 32.9019 63.209 35.2657 64.799L35.8901 72.1383L35.2056 72.117C33.5127 69.3597 30.4663 67.5176 27.001 67.5176C23.7412 67.5176 20.8538 69.1464 19.1124 71.6342L17.755 71.5935Z" fill="#F5A01D"/>
<path d="M12.1411 77.1411C12.1411 76.9801 12.1431 76.8211 12.1508 76.6621C12.1508 76.5768 12.1547 76.4934 12.1586 76.4081L12.2051 75.7624L14.0124 50.6615L14.4371 44.759L15.7266 26.8364C16.1048 21.1938 20.8402 16.765 26.5084 16.765C29.2213 16.765 31.8159 17.7752 33.8133 19.6076C35.8125 21.442 37.042 23.9395 37.2747 26.6425L38.9753 45.1604L39.5047 50.9213L41.7386 75.2331V75.2524L41.8375 76.3247C41.8434 76.4062 41.8472 76.4896 41.8492 76.571C41.8569 76.7591 41.8608 76.951 41.8608 77.1411C41.8608 85.3335 35.194 92 27.001 92C18.808 92 12.1411 85.3335 12.1411 77.1411ZM17.3769 77.1411C17.3769 82.4482 21.6935 86.7646 27.001 86.7646C32.3085 86.7646 36.6251 82.4482 36.6251 77.1411C36.6251 76.9549 36.6192 76.7707 36.6095 76.5865C36.5165 74.9558 36.0142 73.4336 35.2056 72.117L35.8901 72.1383L35.2657 64.799L34.2632 53.0038L33.8094 47.6695L32.0583 27.0885C31.8082 24.1896 29.423 22.0004 26.5084 22.0004C23.5938 22.0004 21.1447 24.2846 20.9508 27.199L19.4944 47.4271L19.1066 52.8196L18.2185 65.1636L17.755 71.5935L19.1124 71.6342C18.1079 73.0691 17.4835 74.789 17.3885 76.6466C17.3808 76.8095 17.3769 76.9743 17.3769 77.1411Z" fill="#F5A01D"/>
</g>
<defs>
<clipPath id="clip0_211_3">
<rect width="54" height="92" fill="white" transform="matrix(-1 0 0 1 54 0)"/>
</clipPath>
</defs>
</svg>
