<svg width="50" height="85" viewBox="0 0 50 85" fill="none" xmlns="http://www.w3.org/2000/svg">
<g clip-path="url(#clip0_208_2)">
<path d="M37.0255 38.1932L36.6323 43.6466C41.7837 47.2923 45.1521 53.2885 45.1521 60.055C45.1521 71.1427 36.1116 80.1629 24.9991 80.1629C13.8866 80.1629 4.84792 71.1427 4.84792 60.055C4.84792 53.052 8.45513 46.8749 13.9117 43.2757L13.4216 37.9532C5.44942 42.1256 0 50.4669 0 60.055C0 73.8102 11.2149 85 24.9991 85C38.7834 85 50 73.8102 50 60.055C50 50.6478 44.7535 42.4391 37.0255 38.1932Z" fill="url(#paint0_linear_208_2)"/>
<path d="M24.9991 27.4567C17.413 27.4567 11.24 21.2975 11.24 13.7283C11.24 6.15921 17.413 0 24.9991 0C32.5852 0 38.7582 6.15921 38.7582 13.7283C38.7582 21.2975 32.5852 27.4567 24.9991 27.4567ZM24.9991 4.83708C20.0847 4.83708 16.0879 8.82498 16.0879 13.7283C16.0879 18.6317 20.0847 22.6196 24.9991 22.6196C29.9135 22.6196 33.9103 18.6317 33.9103 13.7283C33.9103 8.82498 29.9135 4.83708 24.9991 4.83708Z" fill="url(#paint1_linear_208_2)"/>
<path d="M11.2615 14.4826C11.2795 14.8158 11.3082 15.1472 11.3513 15.4733L11.2615 14.4826ZM32.3033 18.8162C30.6909 21.1147 28.0174 22.6196 24.9991 22.6196C21.7905 22.6196 18.9697 20.9177 17.4022 18.3702L16.7684 18.3504L17.3466 25.1313C19.5353 26.6004 22.1694 27.4567 24.9991 27.4567C28.0389 27.4567 30.8525 26.4678 33.131 24.7945L33.5602 18.8539L32.3033 18.8162Z" fill="url(#paint2_linear_208_2)"/>
<path d="M24.9991 0C17.413 0 11.24 6.15921 11.24 13.7283C11.24 13.9039 11.2436 14.0813 11.2508 14.255C11.2526 14.3303 11.2562 14.4073 11.2615 14.4826L11.3513 15.4733V15.4912L13.4216 37.9531L13.9117 43.2757L15.4864 60.3847C15.7019 62.882 16.8402 65.1895 18.6914 66.8842C20.5408 68.5772 22.9432 69.5106 25.4552 69.5106C30.7035 69.5106 35.0882 65.4188 35.4383 60.2055L36.6323 43.6466L37.0255 38.1932L38.699 15.0021L38.7421 14.4055C38.7456 14.3267 38.7492 14.2497 38.7492 14.1708C38.7564 14.0239 38.7582 13.877 38.7582 13.7283C38.7582 6.15921 32.587 0 24.9991 0ZM33.8995 14.1852C33.8115 15.9014 33.2334 17.4905 32.3033 18.8162L33.5602 18.8539L33.131 24.7945L32.3087 36.1993L31.9496 41.1814L30.6011 59.8705C30.4216 62.5631 28.1592 64.6735 25.4552 64.6735C22.7511 64.6735 20.548 62.6509 20.3164 59.9726L18.695 40.9575L18.2749 36.0291L17.3466 25.1313L16.7684 18.3504L17.4022 18.3701C16.6535 17.1537 16.1885 15.7474 16.1023 14.2407C16.0933 14.0705 16.0879 13.9003 16.0879 13.7283C16.0879 8.82498 20.0865 4.83708 24.9991 4.83708C29.9117 4.83708 33.9103 8.82498 33.9103 13.7283C33.9103 13.8824 33.9067 14.0347 33.8995 14.1852Z" fill="url(#paint3_linear_208_2)"/>
</g>
<defs>
<linearGradient id="paint0_linear_208_2" x1="0" y1="61.4775" x2="50" y2="61.4775" gradientUnits="userSpaceOnUse">
<stop stop-color="#DC1F26"/>
<stop offset="1" stop-color="#652873"/>
</linearGradient>
<linearGradient id="paint1_linear_208_2" x1="11.24" y1="13.7283" x2="38.7582" y2="13.7283" gradientUnits="userSpaceOnUse">
<stop stop-color="#DC1F26"/>
<stop offset="1" stop-color="#652873"/>
</linearGradient>
<linearGradient id="paint2_linear_208_2" x1="11.2615" y1="20.9696" x2="33.5602" y2="20.9696" gradientUnits="userSpaceOnUse">
<stop stop-color="#DC1F26"/>
<stop offset="1" stop-color="#652873"/>
</linearGradient>
<linearGradient id="paint3_linear_208_2" x1="11.24" y1="34.7553" x2="38.7582" y2="34.7553" gradientUnits="userSpaceOnUse">
<stop stop-color="#DC1F26"/>
<stop offset="1" stop-color="#652873"/>
</linearGradient>
<clipPath id="clip0_208_2">
<rect width="50" height="85" fill="white"/>
</clipPath>
</defs>
</svg>
