<svg width="1066" height="78" viewBox="0 0 1066 78" fill="none" xmlns="http://www.w3.org/2000/svg">
<path d="M736.578 9.12707C738.853 8.86504 741.142 8.71369 743.435 8.67379C745.239 8.18183 747.129 7.96043 749.019 8.01992C750.886 8.08138 752.753 8.08743 754.621 8.03807C754.61 8.17077 754.566 8.30035 754.491 8.41824C754.416 8.53614 754.312 8.63968 754.186 8.72204C754.031 8.85602 753.912 9.01639 753.839 9.19192C753.765 9.36745 753.738 9.5539 753.76 9.73824C763.093 9.71315 772.419 9.4112 781.737 8.83239C791.055 8.25359 800.064 7.73711 808.764 7.28295L807.823 6.97537C814.019 7.71023 820.331 7.54337 826.479 6.48217C835.04 4.6798 843.951 4.44424 852.596 5.79172C856.937 5.22864 860.97 4.78703 864.696 4.4669C868.499 4.14651 872.332 4.50096 875.943 5.50695C882.17 4.22401 888.559 3.60444 894.957 3.6631C901.491 3.71202 908.8 3.62961 916.884 3.41589C915.026 3.68666 913.788 3.88815 913.169 4.02036L910.386 4.5964C913.457 5.21474 916.678 5.12957 919.712 4.34986C922.079 3.51613 924.585 2.99606 927.138 2.80859C929.008 2.98079 930.724 3.15958 932.286 3.34495C934.608 3.55101 936.947 3.60287 939.282 3.50004C943.881 2.68802 948.555 2.22807 953.246 2.12593C958.22 1.99443 963.505 2.07888 969.1 2.37927C977.812 2.37061 986.674 2.19172 995.688 1.84262C1004.7 1.49351 1013.55 0.979878 1022.25 0.301722C1022.25 0.523209 1022.57 0.625737 1023.19 0.609309L1025.05 0.560027C1028.89 1.7786 1032.81 2.79656 1036.8 3.60804C1041.22 4.51733 1045.49 5.8723 1049.51 7.64321C1051.22 8.17842 1052.81 8.92873 1054.24 9.86814C1057.14 10.4365 1059.78 11.7117 1061.8 13.5331C1062.97 14.7978 1063.95 16.1822 1064.71 17.6535C1065.99 18.9647 1064.46 20.2391 1060.14 21.4767C1057.06 22.6764 1056.16 23.9343 1057.44 25.2505C1058.07 26.2823 1058.42 27.42 1058.46 28.5821C1058.49 29.6996 1059.77 30.7855 1062.29 31.8397C1064.2 33.8039 1063.93 35.3789 1061.48 36.5646L1055.93 38.7286C1051.58 38.6222 1047.53 38.5604 1043.79 38.5433C1040.35 38.5436 1036.92 38.3542 1033.51 37.9764C1032.13 37.7834 1030.71 37.7649 1029.31 37.9213C1027.91 38.0776 1026.5 38.059 1025.11 37.8661C1018.26 37.5989 1011.56 37.4409 1005.03 37.3921C998.49 37.3432 991.812 37.1835 984.992 36.913C980.012 36.823 975.656 36.8274 971.924 36.926C968.178 37.0242 964.432 36.8986 960.712 36.5499C948.9 36.8622 937.238 37.0597 925.727 37.1424C914.216 37.225 902.548 37.1985 890.724 37.0628L834.277 37.8826C815.307 38.1625 795.873 38.5654 775.976 39.0914L767.116 39.3256C764.317 39.3996 761.367 39.5884 758.266 39.8921L748.94 40.1386C745.83 40.2208 742.719 40.1923 739.606 40.0529C731.516 40.0451 723.584 40.0861 715.81 40.1757C708.036 40.2654 700.11 40.5303 692.032 40.9706L667.318 41.6239C659.544 41.8295 651.309 42.158 642.612 42.6095C628.938 43.1927 615.732 43.766 602.993 44.3294C590.254 44.8929 577.355 45.3447 564.297 45.6849C555.597 46.1365 546.739 46.4815 537.722 46.7199C528.706 46.9583 519.848 47.3033 511.148 47.7549C506.801 48.0914 502.452 48.3752 498.103 48.606C493.753 48.8369 489.091 49.0155 484.116 49.142C469.827 49.9681 455.07 50.7511 439.845 51.4911C424.621 52.2311 409.864 53.0141 395.574 53.8402C388.742 54.2425 382.215 54.5258 375.995 54.6903C369.775 54.8547 363.252 55.2538 356.426 55.8877C343.385 56.9024 330.033 57.8724 316.371 58.7978C302.709 59.7231 288.735 60.7096 274.448 61.7573C270.723 62.0774 266.685 62.3529 262.335 62.5838C258.276 62.7861 254.23 63.1755 250.218 63.7504C242.145 64.4121 233.917 65.0225 225.534 65.5817C217.151 66.1408 208.616 66.8702 199.928 67.7698C192.483 68.6366 185.342 69.2183 178.507 69.5148C171.672 69.8114 164.522 70.0558 157.059 70.2481C153.943 70.1088 150.986 70.0182 148.186 69.9764C145.189 69.9168 142.21 69.6006 139.296 69.0327C137.136 68.5898 134.945 68.2541 132.735 68.0274C130.238 67.7559 127.428 67.4398 124.306 67.0791C115.624 68.2052 106.009 69.2981 95.4595 70.3578C84.9103 71.4175 74.6822 72.752 64.7753 74.3614C60.472 75.1211 56.1246 75.6851 51.7523 76.0506C37.3767 78.1025 22.6585 77.3418 8.75961 73.8286C3.74912 72.8176 0.909485 71.4243 0.240706 69.6487C-0.428073 67.8731 1.3933 66.1463 5.70482 64.4682C5.68712 63.7987 6.92259 63.4311 9.41122 63.3653C13.8216 63.0995 18.187 62.4214 22.4254 61.3438C26.6753 60.248 31.0262 59.4568 35.4306 58.9788C44.74 58.0627 54.0404 56.8094 63.332 55.2188C68.2944 54.6392 73.2613 54.115 78.2326 53.6461C83.204 53.1772 88.4725 52.645 94.0382 52.0495C106.452 50.8297 118.553 49.6132 130.342 48.3999C142.131 47.1865 154.235 46.0832 166.655 45.09C195.192 42.3206 223.439 39.8889 251.397 37.7947C259.469 37.133 267.23 36.4795 274.678 35.8343C282.126 35.1891 289.264 34.552 296.094 33.9232C303.545 33.2779 311.15 32.6285 318.909 31.9751C326.667 31.3216 334.586 30.7748 342.664 30.3345L348.727 30.1742C350.777 30.1344 352.812 29.8542 354.773 29.3419C361.6 28.7132 368.121 28.2612 374.339 27.986C380.556 27.7108 387.081 27.3696 393.913 26.9623C397.299 26.424 400.761 26.3325 404.171 26.6911C405.739 26.7347 407.309 26.5811 408.827 26.2355C412.261 25.2149 415.898 24.777 419.524 24.9478C423.731 25.0576 427.944 24.8349 432.108 24.2826C437.082 24.1511 440.816 24.1632 443.311 24.3189C443.591 24.3088 443.871 24.3153 444.149 24.3383C444.618 24.1419 445.117 24.0015 445.632 23.9213C446.416 23.8363 447.192 23.7047 447.954 23.5275C452.295 22.5166 456.903 22.7487 461.039 24.1865C462.276 23.9322 463.825 23.667 465.686 23.3912L471.266 22.5712C472.508 22.5383 474.065 22.5526 475.935 22.614C477.805 22.6771 479.68 22.5718 481.528 22.2999C490.228 21.8483 498.932 21.5627 507.64 21.4433C516.361 21.3237 525.072 20.8134 533.735 19.9147C535.738 19.6318 537.762 19.4672 539.79 19.4222L545.853 19.2619C547.039 18.8057 548.275 18.4466 549.542 18.1897L553.257 17.419C556.105 17.7554 558.923 18.2411 561.695 18.8733C563.055 17.9199 564.621 17.1935 566.307 16.734C568.402 16.1265 570.608 15.8403 572.818 15.8894C575.329 15.7652 577.845 15.9249 580.297 16.3641C583.605 17.2635 587.123 17.5168 590.582 17.1047C596.172 16.7353 601.918 16.4146 607.821 16.1427C613.725 15.8708 619.161 15.5521 624.129 15.1865C627.239 15.1043 630.501 14.9626 633.916 14.7615C637.331 14.5604 640.904 14.4105 644.635 14.3119C644.008 14.1068 644.612 13.4184 646.446 12.2466L660.437 11.8767C661.679 11.8439 662.154 12.1663 661.861 12.844C661.568 13.5217 662.968 13.4847 666.06 12.733C668.223 12.4507 670.416 12.3927 672.59 12.5604C680.665 13.0267 688.779 12.9234 696.847 12.2516C707.05 10.8394 717.443 10.7917 727.633 12.1101C729.238 11.7029 730.788 11.1554 732.258 10.4767C733.486 9.88508 734.717 9.3488 735.951 8.86786C736.171 8.93076 736.381 9.0139 736.578 9.11575L736.578 9.12707Z" fill="#F7A003"/>
</svg>
