<?xml version="1.0" encoding="UTF-8"?>
<svg id="Layer_2" data-name="Layer 2" xmlns="http://www.w3.org/2000/svg" viewBox="0 0 93.7 134.32">
  <defs>
    <style>
      .cls-1 {
        fill: #0f1eaf;
      }

      .cls-1, .cls-2, .cls-3 {
        stroke-width: 0px;
      }

      .cls-2 {
        fill: #c16542;
      }

      .cls-3 {
        fill: #fd6420;
      }
    </style>
  </defs>
  <g id="Layer_1-2" data-name="Layer 1">
    <g>
      <path class="cls-1" d="M93.48,123.43c.01.29.01.56.01.85v10.04h-17.03v-9.02c.03-.62.03-1.24,0-1.86-.39-10.03-7.58-19.79-21.55-20.4h-21.1v-16.9h21.03c28.87-1.18,28.85-41.4,0-42.57h-21.03v25.67h-16.9V0h16.9v26.66h21.03c20.93-.09,38.67,16.89,38.66,38.19.01,11.95-5.63,22.72-14.46,29.74,8.54,6.8,14.19,17.14,14.45,28.85Z"/>
      <polygon class="cls-3" points="33.81 103.03 33.81 134.32 16.9 134.32 16.9 103.03 0 103.03 0 86.13 16.9 86.13 33.81 103.03"/>
      <path class="cls-2" d="M93.7,123.43v.85c0-.29,0-.56-.01-.85h.01Z"/>
      <path class="cls-3" d="M93.49,0v50.61c-3.21-8.5-9.22-15.67-16.9-20.4V0h16.9Z"/>
    </g>
  </g>
</svg>